<svg width="239" height="210" viewBox="0 0 239 210" fill="none" xmlns="http://www.w3.org/2000/svg">
<path d="M0 183.835V209.165H1.88162V196.709H9.54749V194.83H1.88162V185.714H12.8229V183.835H0Z" fill="black"/>
<path d="M63.4821 194.83H55.8163V185.714H65.4335V183.835H53.9347V209.165H66.7576V207.286H55.8163V196.709H63.4821V194.83Z" fill="black"/>
<path d="M109.264 183V209.165H111.146V188.149L129.509 210V183.835H127.628V204.851L109.264 183Z" fill="black"/>
<path d="M174.609 209.165V183.835H172.727V209.165H174.609Z" fill="black"/>
<path d="M239 208.573L228.337 195.874L237.99 184.392L236.561 183.174L227.118 194.412L217.675 183.209L216.246 184.392L225.794 195.769L215.027 208.573L216.49 209.756L227.013 197.231L237.571 209.791L239 208.573Z" fill="black"/>
<path d="M189.08 40.101C138.558 4.51108 53.5196 0.501018 9.99998 0C14.0019 45.6146 37.5124 84.2119 50.018 97.746C63.0239 78.1967 86.8679 64.4955 98.5398 60.1513C88.0351 51.6298 84.5333 39.0982 84.5333 29.5744C111.045 47.6197 145.061 43.7822 168.571 56.1412C192.082 68.5001 195.083 95.7409 194.083 108.272C183.078 98.2472 161.493 98.3546 151.063 113.285C130.053 143.361 173.776 173.5 206.588 151.381C240.603 128.451 233.6 69.174 189.08 40.101Z" fill="url(#paint0_linear_9573_32825)"/>
<defs>
<linearGradient id="paint0_linear_9573_32825" x1="8.49999" y1="-3" x2="213.304" y2="146.901" gradientUnits="userSpaceOnUse">
<stop stop-color="#F6781A"/>
<stop offset="1" stop-color="#F9386D"/>
</linearGradient>
</defs>
</svg>
