<svg width="825" height="350" viewBox="0 0 825 350" fill="none" xmlns="http://www.w3.org/2000/svg">
<g clip-path="url(#clip0_10541_15467)">
<rect width="825" height="350" fill="black"/>
<g opacity="0.4">
<path d="M561 0H0V350H561V0Z" fill="#F6B81A"/>
<path d="M825 0H561V350H825V0Z" fill="#F9386D"/>
</g>
<path fill-rule="evenodd" clip-rule="evenodd" d="M561 0V350H0C216.171 297.693 359.306 236.844 435.903 173.172C512.5 109.5 552.033 49.8698 561 0Z" fill="#DCA310"/>
<path fill-rule="evenodd" clip-rule="evenodd" d="M561 0V350H825C825 222 789.549 141 740.52 80.9999C691.491 20.9999 609.651 0 561 0Z" fill="#CE2151"/>
<path d="M9.75 341.119C9.10795 341.119 8.56108 340.945 8.10938 340.595C7.65767 340.243 7.3125 339.733 7.07386 339.065C6.83523 338.395 6.71591 337.585 6.71591 336.636C6.71591 335.693 6.83523 334.888 7.07386 334.22C7.31534 333.55 7.66193 333.038 8.11364 332.686C8.56818 332.331 9.11364 332.153 9.75 332.153C10.3864 332.153 10.9304 332.331 11.3821 332.686C11.8366 333.038 12.1832 333.55 12.4219 334.22C12.6634 334.888 12.7841 335.693 12.7841 336.636C12.7841 337.585 12.6648 338.395 12.4261 339.065C12.1875 339.733 11.8423 340.243 11.3906 340.595C10.9389 340.945 10.392 341.119 9.75 341.119ZM9.75 340.182C10.3864 340.182 10.8807 339.875 11.233 339.261C11.5852 338.648 11.7614 337.773 11.7614 336.636C11.7614 335.881 11.6804 335.237 11.5185 334.706C11.3594 334.175 11.1293 333.77 10.8281 333.491C10.5298 333.213 10.1705 333.074 9.75 333.074C9.11932 333.074 8.62642 333.385 8.27131 334.007C7.91619 334.626 7.73864 335.503 7.73864 336.636C7.73864 337.392 7.81818 338.034 7.97727 338.562C8.13636 339.091 8.36506 339.493 8.66335 339.768C8.96449 340.044 9.3267 340.182 9.75 340.182ZM20.267 341.136C19.7216 341.136 19.2401 340.999 18.8224 340.723C18.4048 340.445 18.0781 340.053 17.8423 339.547C17.6065 339.038 17.4886 338.438 17.4886 337.744C17.4886 337.057 17.6065 336.46 17.8423 335.955C18.0781 335.449 18.4063 335.058 18.8267 334.783C19.2472 334.507 19.733 334.369 20.2841 334.369C20.7102 334.369 21.0469 334.44 21.294 334.582C21.544 334.722 21.7344 334.881 21.8651 335.06C21.9986 335.236 22.1023 335.381 22.1761 335.494H22.2614V332.273H23.267V341H22.2955V339.994H22.1761C22.1023 340.114 21.9972 340.264 21.8608 340.446C21.7244 340.625 21.5298 340.786 21.277 340.928C21.0241 341.067 20.6875 341.136 20.267 341.136ZM20.4034 340.233C20.8068 340.233 21.1477 340.128 21.4261 339.918C21.7045 339.705 21.9162 339.411 22.0611 339.036C22.206 338.658 22.2784 338.222 22.2784 337.727C22.2784 337.239 22.2074 336.811 22.0653 336.445C21.9233 336.075 21.7131 335.788 21.4347 335.584C21.1563 335.376 20.8125 335.273 20.4034 335.273C19.9773 335.273 19.6222 335.382 19.3381 335.601C19.0568 335.817 18.8452 336.111 18.7031 336.483C18.5639 336.852 18.4943 337.267 18.4943 337.727C18.4943 338.193 18.5653 338.616 18.7074 338.997C18.8523 339.375 19.0653 339.676 19.3466 339.901C19.6307 340.122 19.983 340.233 20.4034 340.233ZM27.1747 341.153C26.7599 341.153 26.3835 341.075 26.0455 340.919C25.7074 340.76 25.4389 340.531 25.2401 340.233C25.0412 339.932 24.9418 339.568 24.9418 339.142C24.9418 338.767 25.0156 338.463 25.1634 338.23C25.3111 337.994 25.5085 337.81 25.7557 337.676C26.0028 337.543 26.2756 337.443 26.5739 337.378C26.875 337.31 27.1776 337.256 27.4815 337.216C27.8793 337.165 28.2017 337.126 28.4489 337.101C28.6989 337.072 28.8807 337.026 28.9943 336.96C29.1108 336.895 29.169 336.781 29.169 336.619V336.585C29.169 336.165 29.054 335.838 28.8239 335.605C28.5966 335.372 28.2514 335.256 27.7884 335.256C27.3082 335.256 26.9318 335.361 26.6591 335.571C26.3864 335.781 26.1946 336.006 26.0838 336.244L25.1293 335.903C25.2997 335.506 25.527 335.196 25.8111 334.974C26.098 334.75 26.4105 334.594 26.7486 334.506C27.0895 334.415 27.4247 334.369 27.7543 334.369C27.9645 334.369 28.206 334.395 28.4787 334.446C28.7543 334.494 29.0199 334.595 29.2756 334.749C29.5341 334.902 29.7486 335.134 29.919 335.443C30.0895 335.753 30.1747 336.168 30.1747 336.688V341H29.169V340.114H29.1179C29.0497 340.256 28.9361 340.408 28.777 340.57C28.6179 340.732 28.4063 340.869 28.142 340.983C27.8778 341.097 27.5554 341.153 27.1747 341.153ZM27.3281 340.25C27.7259 340.25 28.0611 340.172 28.3338 340.016C28.6094 339.859 28.8168 339.658 28.956 339.411C29.098 339.163 29.169 338.903 29.169 338.631V337.71C29.1264 337.761 29.0327 337.808 28.8878 337.851C28.7457 337.891 28.581 337.926 28.3935 337.957C28.2088 337.986 28.0284 338.011 27.8523 338.034C27.679 338.054 27.5384 338.071 27.4304 338.085C27.169 338.119 26.9247 338.175 26.6974 338.251C26.473 338.325 26.2912 338.437 26.152 338.588C26.0156 338.736 25.9474 338.937 25.9474 339.193C25.9474 339.543 26.0767 339.807 26.3352 339.986C26.5966 340.162 26.9276 340.25 27.3281 340.25ZM32.4237 343.455C32.2532 343.455 32.1012 343.44 31.9677 343.412C31.8342 343.386 31.7418 343.361 31.6907 343.335L31.9464 342.449C32.1907 342.511 32.4066 342.534 32.5941 342.517C32.7816 342.5 32.9478 342.416 33.0927 342.266C33.2404 342.118 33.3754 341.878 33.4975 341.545L33.685 341.034L31.2646 334.455H32.3555L34.1623 339.67H34.2305L36.0373 334.455H37.1282L34.3498 341.955C34.2248 342.293 34.07 342.572 33.8853 342.794C33.7006 343.018 33.4862 343.185 33.2418 343.293C33.0004 343.401 32.7276 343.455 32.4237 343.455ZM43.092 335.92L42.1886 336.176C42.1317 336.026 42.0479 335.879 41.9371 335.737C41.8292 335.592 41.6815 335.473 41.494 335.379C41.3065 335.286 41.0664 335.239 40.7738 335.239C40.3732 335.239 40.0394 335.331 39.7724 335.516C39.5082 335.697 39.3761 335.929 39.3761 336.21C39.3761 336.46 39.467 336.658 39.6488 336.803C39.8306 336.947 40.1147 337.068 40.5011 337.165L41.4727 337.403C42.0579 337.545 42.494 337.763 42.7809 338.055C43.0678 338.345 43.2113 338.719 43.2113 339.176C43.2113 339.551 43.1033 339.886 42.8874 340.182C42.6744 340.477 42.3761 340.71 41.9925 340.881C41.609 341.051 41.163 341.136 40.6545 341.136C39.9869 341.136 39.4343 340.991 38.9968 340.702C38.5593 340.412 38.2823 339.989 38.1658 339.432L39.1204 339.193C39.2113 339.545 39.3832 339.81 39.636 339.986C39.8917 340.162 40.2255 340.25 40.6374 340.25C41.1062 340.25 41.4783 340.151 41.7539 339.952C42.0323 339.75 42.1715 339.509 42.1715 339.227C42.1715 339 42.092 338.81 41.9329 338.656C41.7738 338.5 41.5295 338.384 41.1999 338.307L40.109 338.051C39.5096 337.909 39.0692 337.689 38.788 337.391C38.5096 337.089 38.3704 336.713 38.3704 336.261C38.3704 335.892 38.4741 335.565 38.6815 335.281C38.8917 334.997 39.1772 334.774 39.538 334.612C39.9016 334.45 40.3136 334.369 40.7738 334.369C41.4215 334.369 41.93 334.511 42.2994 334.795C42.6715 335.08 42.9357 335.455 43.092 335.92Z" fill="white"/>
<path d="M487.903 341V340.233L490.784 337.08C491.122 336.71 491.401 336.389 491.619 336.116C491.838 335.841 492 335.582 492.105 335.341C492.213 335.097 492.267 334.841 492.267 334.574C492.267 334.267 492.193 334.001 492.045 333.777C491.901 333.553 491.702 333.379 491.449 333.257C491.196 333.135 490.912 333.074 490.597 333.074C490.261 333.074 489.969 333.143 489.719 333.283C489.472 333.419 489.28 333.611 489.143 333.858C489.01 334.105 488.943 334.395 488.943 334.727H487.938C487.938 334.216 488.055 333.767 488.291 333.381C488.527 332.994 488.848 332.693 489.254 332.477C489.663 332.261 490.122 332.153 490.631 332.153C491.142 332.153 491.595 332.261 491.99 332.477C492.385 332.693 492.695 332.984 492.919 333.351C493.143 333.717 493.256 334.125 493.256 334.574C493.256 334.895 493.197 335.209 493.081 335.516C492.967 335.82 492.768 336.159 492.484 336.534C492.203 336.906 491.812 337.361 491.312 337.898L489.352 339.994V340.062H493.409V341H487.903ZM498.016 341.119C497.374 341.119 496.827 340.945 496.375 340.595C495.923 340.243 495.578 339.733 495.339 339.065C495.101 338.395 494.982 337.585 494.982 336.636C494.982 335.693 495.101 334.888 495.339 334.22C495.581 333.55 495.928 333.038 496.379 332.686C496.834 332.331 497.379 332.153 498.016 332.153C498.652 332.153 499.196 332.331 499.648 332.686C500.102 333.038 500.449 333.55 500.688 334.22C500.929 334.888 501.05 335.693 501.05 336.636C501.05 337.585 500.93 338.395 500.692 339.065C500.453 339.733 500.108 340.243 499.656 340.595C499.205 340.945 498.658 341.119 498.016 341.119ZM498.016 340.182C498.652 340.182 499.146 339.875 499.499 339.261C499.851 338.648 500.027 337.773 500.027 336.636C500.027 335.881 499.946 335.237 499.784 334.706C499.625 334.175 499.395 333.77 499.094 333.491C498.795 333.213 498.436 333.074 498.016 333.074C497.385 333.074 496.892 333.385 496.537 334.007C496.182 334.626 496.004 335.503 496.004 336.636C496.004 337.392 496.084 338.034 496.243 338.562C496.402 339.091 496.631 339.493 496.929 339.768C497.23 340.044 497.592 340.182 498.016 340.182ZM505.516 341.119C504.874 341.119 504.327 340.945 503.875 340.595C503.423 340.243 503.078 339.733 502.839 339.065C502.601 338.395 502.482 337.585 502.482 336.636C502.482 335.693 502.601 334.888 502.839 334.22C503.081 333.55 503.428 333.038 503.879 332.686C504.334 332.331 504.879 332.153 505.516 332.153C506.152 332.153 506.696 332.331 507.148 332.686C507.602 333.038 507.949 333.55 508.188 334.22C508.429 334.888 508.55 335.693 508.55 336.636C508.55 337.585 508.43 338.395 508.192 339.065C507.953 339.733 507.608 340.243 507.156 340.595C506.705 340.945 506.158 341.119 505.516 341.119ZM505.516 340.182C506.152 340.182 506.646 339.875 506.999 339.261C507.351 338.648 507.527 337.773 507.527 336.636C507.527 335.881 507.446 335.237 507.284 334.706C507.125 334.175 506.895 333.77 506.594 333.491C506.295 333.213 505.936 333.074 505.516 333.074C504.885 333.074 504.392 333.385 504.037 334.007C503.682 334.626 503.504 335.503 503.504 336.636C503.504 337.392 503.584 338.034 503.743 338.562C503.902 339.091 504.131 339.493 504.429 339.768C504.73 340.044 505.092 340.182 505.516 340.182ZM510.207 341L514.111 333.278V333.21H509.611V332.273H515.202V333.261L511.315 341H510.207ZM519.4 341.119C518.9 341.119 518.45 341.02 518.049 340.821C517.649 340.622 517.328 340.349 517.086 340.003C516.845 339.656 516.713 339.261 516.69 338.818H517.713C517.752 339.213 517.931 339.54 518.25 339.798C518.571 340.054 518.954 340.182 519.4 340.182C519.758 340.182 520.076 340.098 520.355 339.93C520.636 339.763 520.856 339.533 521.015 339.24C521.177 338.945 521.258 338.611 521.258 338.239C521.258 337.858 521.174 337.518 521.007 337.22C520.842 336.919 520.615 336.682 520.325 336.509C520.035 336.335 519.704 336.247 519.332 336.244C519.065 336.241 518.791 336.283 518.51 336.368C518.228 336.45 517.997 336.557 517.815 336.688L516.826 336.568L517.355 332.273H521.889V333.21H518.241L517.934 335.784H517.985C518.164 335.642 518.389 335.524 518.659 335.43C518.929 335.337 519.21 335.29 519.502 335.29C520.037 335.29 520.512 335.418 520.93 335.673C521.35 335.926 521.68 336.273 521.919 336.713C522.16 337.153 522.281 337.656 522.281 338.222C522.281 338.778 522.156 339.276 521.906 339.713C521.659 340.148 521.318 340.491 520.883 340.744C520.449 340.994 519.954 341.119 519.4 341.119ZM529.837 341.136C529.292 341.136 528.81 340.999 528.393 340.723C527.975 340.445 527.648 340.053 527.413 339.547C527.177 339.038 527.059 338.438 527.059 337.744C527.059 337.057 527.177 336.46 527.413 335.955C527.648 335.449 527.977 335.058 528.397 334.783C528.817 334.507 529.303 334.369 529.854 334.369C530.281 334.369 530.617 334.44 530.864 334.582C531.114 334.722 531.305 334.881 531.435 335.06C531.569 335.236 531.673 335.381 531.746 335.494H531.832V332.273H532.837V341H531.866V339.994H531.746C531.673 340.114 531.567 340.264 531.431 340.446C531.295 340.625 531.1 340.786 530.847 340.928C530.594 341.067 530.258 341.136 529.837 341.136ZM529.974 340.233C530.377 340.233 530.718 340.128 530.996 339.918C531.275 339.705 531.487 339.411 531.631 339.036C531.776 338.658 531.849 338.222 531.849 337.727C531.849 337.239 531.778 336.811 531.636 336.445C531.494 336.075 531.283 335.788 531.005 335.584C530.727 335.376 530.383 335.273 529.974 335.273C529.548 335.273 529.192 335.382 528.908 335.601C528.627 335.817 528.415 336.111 528.273 336.483C528.134 336.852 528.065 337.267 528.065 337.727C528.065 338.193 528.136 338.616 528.278 338.997C528.423 339.375 528.636 339.676 528.917 339.901C529.201 340.122 529.553 340.233 529.974 340.233ZM536.745 341.153C536.33 341.153 535.954 341.075 535.616 340.919C535.278 340.76 535.009 340.531 534.81 340.233C534.612 339.932 534.512 339.568 534.512 339.142C534.512 338.767 534.586 338.463 534.734 338.23C534.881 337.994 535.079 337.81 535.326 337.676C535.573 337.543 535.846 337.443 536.144 337.378C536.445 337.31 536.748 337.256 537.052 337.216C537.45 337.165 537.772 337.126 538.019 337.101C538.269 337.072 538.451 337.026 538.565 336.96C538.681 336.895 538.739 336.781 538.739 336.619V336.585C538.739 336.165 538.624 335.838 538.394 335.605C538.167 335.372 537.822 335.256 537.359 335.256C536.879 335.256 536.502 335.361 536.229 335.571C535.957 335.781 535.765 336.006 535.654 336.244L534.7 335.903C534.87 335.506 535.097 335.196 535.381 334.974C535.668 334.75 535.981 334.594 536.319 334.506C536.66 334.415 536.995 334.369 537.325 334.369C537.535 334.369 537.776 334.395 538.049 334.446C538.325 334.494 538.59 334.595 538.846 334.749C539.104 334.902 539.319 335.134 539.489 335.443C539.66 335.753 539.745 336.168 539.745 336.688V341H538.739V340.114H538.688C538.62 340.256 538.506 340.408 538.347 340.57C538.188 340.732 537.977 340.869 537.712 340.983C537.448 341.097 537.126 341.153 536.745 341.153ZM536.898 340.25C537.296 340.25 537.631 340.172 537.904 340.016C538.18 339.859 538.387 339.658 538.526 339.411C538.668 339.163 538.739 338.903 538.739 338.631V337.71C538.697 337.761 538.603 337.808 538.458 337.851C538.316 337.891 538.151 337.926 537.964 337.957C537.779 337.986 537.599 338.011 537.423 338.034C537.249 338.054 537.109 338.071 537.001 338.085C536.739 338.119 536.495 338.175 536.268 338.251C536.043 338.325 535.862 338.437 535.722 338.588C535.586 338.736 535.518 338.937 535.518 339.193C535.518 339.543 535.647 339.807 535.906 339.986C536.167 340.162 536.498 340.25 536.898 340.25ZM541.994 343.455C541.824 343.455 541.672 343.44 541.538 343.412C541.404 343.386 541.312 343.361 541.261 343.335L541.517 342.449C541.761 342.511 541.977 342.534 542.164 342.517C542.352 342.5 542.518 342.416 542.663 342.266C542.811 342.118 542.946 341.878 543.068 341.545L543.255 341.034L540.835 334.455H541.926L543.733 339.67H543.801L545.608 334.455H546.699L543.92 341.955C543.795 342.293 543.64 342.572 543.456 342.794C543.271 343.018 543.056 343.185 542.812 343.293C542.571 343.401 542.298 343.455 541.994 343.455ZM552.662 335.92L551.759 336.176C551.702 336.026 551.618 335.879 551.507 335.737C551.4 335.592 551.252 335.473 551.064 335.379C550.877 335.286 550.637 335.239 550.344 335.239C549.944 335.239 549.61 335.331 549.343 335.516C549.078 335.697 548.946 335.929 548.946 336.21C548.946 336.46 549.037 336.658 549.219 336.803C549.401 336.947 549.685 337.068 550.071 337.165L551.043 337.403C551.628 337.545 552.064 337.763 552.351 338.055C552.638 338.345 552.782 338.719 552.782 339.176C552.782 339.551 552.674 339.886 552.458 340.182C552.245 340.477 551.946 340.71 551.563 340.881C551.179 341.051 550.733 341.136 550.225 341.136C549.557 341.136 549.005 340.991 548.567 340.702C548.13 340.412 547.853 339.989 547.736 339.432L548.691 339.193C548.782 339.545 548.953 339.81 549.206 339.986C549.462 340.162 549.796 340.25 550.208 340.25C550.676 340.25 551.049 340.151 551.324 339.952C551.603 339.75 551.742 339.509 551.742 339.227C551.742 339 551.662 338.81 551.503 338.656C551.344 338.5 551.1 338.384 550.77 338.307L549.679 338.051C549.08 337.909 548.64 337.689 548.358 337.391C548.08 337.089 547.941 336.713 547.941 336.261C547.941 335.892 548.044 335.565 548.252 335.281C548.462 334.997 548.748 334.774 549.108 334.612C549.472 334.45 549.884 334.369 550.344 334.369C550.992 334.369 551.5 334.511 551.87 334.795C552.242 335.08 552.506 335.455 552.662 335.92Z" fill="white"/>
<path d="M257.381 18V9.27273H260.33C261.015 9.27273 261.574 9.39631 262.009 9.64347C262.446 9.88778 262.77 10.2188 262.98 10.6364C263.191 11.054 263.296 11.5199 263.296 12.0341C263.296 12.5483 263.191 13.0156 262.98 13.4361C262.773 13.8565 262.452 14.1918 262.017 14.4418C261.583 14.6889 261.026 14.8125 260.347 14.8125H258.233V13.875H260.313C260.782 13.875 261.158 13.794 261.442 13.6321C261.726 13.4702 261.932 13.2514 262.06 12.9759C262.191 12.6974 262.256 12.3835 262.256 12.0341C262.256 11.6847 262.191 11.3722 262.06 11.0966C261.932 10.821 261.725 10.6051 261.438 10.4489C261.151 10.2898 260.77 10.2102 260.296 10.2102H258.438V18H257.381ZM264.998 18V9.27273H267.947C268.629 9.27273 269.189 9.3892 269.626 9.62216C270.064 9.85227 270.387 10.169 270.598 10.5724C270.808 10.9759 270.913 11.4347 270.913 11.9489C270.913 12.4631 270.808 12.919 270.598 13.3168C270.387 13.7145 270.065 14.027 269.63 14.2543C269.196 14.4787 268.64 14.5909 267.964 14.5909H265.578V13.6364H267.93C268.396 13.6364 268.771 13.5682 269.055 13.4318C269.342 13.2955 269.549 13.1023 269.677 12.8523C269.808 12.5994 269.873 12.2983 269.873 11.9489C269.873 11.5994 269.808 11.294 269.677 11.0327C269.547 10.7713 269.338 10.5696 269.051 10.4276C268.764 10.2827 268.385 10.2102 267.913 10.2102H266.055V18H264.998ZM269.106 14.0795L271.254 18H270.027L267.913 14.0795H269.106ZM280.038 13.6364C280.038 14.5568 279.871 15.3523 279.539 16.0227C279.207 16.6932 278.751 17.2102 278.171 17.5739C277.592 17.9375 276.93 18.1193 276.185 18.1193C275.441 18.1193 274.779 17.9375 274.2 17.5739C273.62 17.2102 273.164 16.6932 272.832 16.0227C272.499 15.3523 272.333 14.5568 272.333 13.6364C272.333 12.7159 272.499 11.9205 272.832 11.25C273.164 10.5795 273.62 10.0625 274.2 9.69886C274.779 9.33523 275.441 9.15341 276.185 9.15341C276.93 9.15341 277.592 9.33523 278.171 9.69886C278.751 10.0625 279.207 10.5795 279.539 11.25C279.871 11.9205 280.038 12.7159 280.038 13.6364ZM279.015 13.6364C279.015 12.8807 278.888 12.2429 278.636 11.723C278.386 11.2031 278.046 10.8097 277.617 10.5426C277.191 10.2756 276.714 10.142 276.185 10.142C275.657 10.142 275.178 10.2756 274.749 10.5426C274.323 10.8097 273.984 11.2031 273.731 11.723C273.481 12.2429 273.356 12.8807 273.356 13.6364C273.356 14.392 273.481 15.0298 273.731 15.5497C273.984 16.0696 274.323 16.4631 274.749 16.7301C275.178 16.9972 275.657 17.1307 276.185 17.1307C276.714 17.1307 277.191 16.9972 277.617 16.7301C278.046 16.4631 278.386 16.0696 278.636 15.5497C278.888 15.0298 279.015 14.392 279.015 13.6364ZM281.815 18V9.27273H287.048V10.2102H282.871V13.1591H286.656V14.0966H282.871V18H281.815ZM289.914 9.27273V18H288.858V9.27273H289.914ZM291.556 10.2102V9.27273H298.102V10.2102H295.357V18H294.3V10.2102H291.556Z" fill="white"/>
<path d="M669.057 18V9.27273H672.006C672.69 9.27273 673.25 9.39631 673.685 9.64347C674.122 9.88778 674.446 10.2188 674.656 10.6364C674.866 11.054 674.972 11.5199 674.972 12.0341C674.972 12.5483 674.866 13.0156 674.656 13.4361C674.449 13.8565 674.128 14.1918 673.693 14.4418C673.259 14.6889 672.702 14.8125 672.023 14.8125H669.909V13.875H671.989C672.457 13.875 672.834 13.794 673.118 13.6321C673.402 13.4702 673.608 13.2514 673.736 12.9759C673.866 12.6974 673.932 12.3835 673.932 12.0341C673.932 11.6847 673.866 11.3722 673.736 11.0966C673.608 10.821 673.401 10.6051 673.114 10.4489C672.827 10.2898 672.446 10.2102 671.972 10.2102H670.114V18H669.057ZM676.674 18V9.27273H679.623C680.305 9.27273 680.864 9.3892 681.302 9.62216C681.739 9.85227 682.063 10.169 682.273 10.5724C682.484 10.9759 682.589 11.4347 682.589 11.9489C682.589 12.4631 682.484 12.919 682.273 13.3168C682.063 13.7145 681.741 14.027 681.306 14.2543C680.871 14.4787 680.316 14.5909 679.64 14.5909H677.254V13.6364H679.606C680.072 13.6364 680.447 13.5682 680.731 13.4318C681.018 13.2955 681.225 13.1023 681.353 12.8523C681.484 12.5994 681.549 12.2983 681.549 11.9489C681.549 11.5994 681.484 11.294 681.353 11.0327C681.222 10.7713 681.013 10.5696 680.727 10.4276C680.44 10.2827 680.06 10.2102 679.589 10.2102H677.731V18H676.674ZM680.782 14.0795L682.93 18H681.702L679.589 14.0795H680.782ZM691.713 13.6364C691.713 14.5568 691.547 15.3523 691.215 16.0227C690.882 16.6932 690.426 17.2102 689.847 17.5739C689.267 17.9375 688.605 18.1193 687.861 18.1193C687.117 18.1193 686.455 17.9375 685.875 17.5739C685.296 17.2102 684.84 16.6932 684.507 16.0227C684.175 15.3523 684.009 14.5568 684.009 13.6364C684.009 12.7159 684.175 11.9205 684.507 11.25C684.84 10.5795 685.296 10.0625 685.875 9.69886C686.455 9.33523 687.117 9.15341 687.861 9.15341C688.605 9.15341 689.267 9.33523 689.847 9.69886C690.426 10.0625 690.882 10.5795 691.215 11.25C691.547 11.9205 691.713 12.7159 691.713 13.6364ZM690.691 13.6364C690.691 12.8807 690.564 12.2429 690.311 11.723C690.061 11.2031 689.722 10.8097 689.293 10.5426C688.867 10.2756 688.39 10.142 687.861 10.142C687.333 10.142 686.854 10.2756 686.425 10.5426C685.999 10.8097 685.659 11.2031 685.407 11.723C685.157 12.2429 685.032 12.8807 685.032 13.6364C685.032 14.392 685.157 15.0298 685.407 15.5497C685.659 16.0696 685.999 16.4631 686.425 16.7301C686.854 16.9972 687.333 17.1307 687.861 17.1307C688.39 17.1307 688.867 16.9972 689.293 16.7301C689.722 16.4631 690.061 16.0696 690.311 15.5497C690.564 15.0298 690.691 14.392 690.691 13.6364ZM693.49 18V9.27273H698.723V10.2102H694.547V13.1591H698.331V14.0966H694.547V18H693.49ZM701.59 9.27273V18H700.533V9.27273H701.59ZM703.232 10.2102V9.27273H709.777V10.2102H707.033V18H705.976V10.2102H703.232Z" fill="white"/>
<path d="M570.75 341.119C570.108 341.119 569.561 340.945 569.109 340.595C568.658 340.243 568.313 339.733 568.074 339.065C567.835 338.395 567.716 337.585 567.716 336.636C567.716 335.693 567.835 334.888 568.074 334.22C568.315 333.55 568.662 333.038 569.114 332.686C569.568 332.331 570.114 332.153 570.75 332.153C571.386 332.153 571.93 332.331 572.382 332.686C572.837 333.038 573.183 333.55 573.422 334.22C573.663 334.888 573.784 335.693 573.784 336.636C573.784 337.585 573.665 338.395 573.426 339.065C573.188 339.733 572.842 340.243 572.391 340.595C571.939 340.945 571.392 341.119 570.75 341.119ZM570.75 340.182C571.386 340.182 571.881 339.875 572.233 339.261C572.585 338.648 572.761 337.773 572.761 336.636C572.761 335.881 572.68 335.237 572.518 334.706C572.359 334.175 572.129 333.77 571.828 333.491C571.53 333.213 571.17 333.074 570.75 333.074C570.119 333.074 569.626 333.385 569.271 334.007C568.916 334.626 568.739 335.503 568.739 336.636C568.739 337.392 568.818 338.034 568.977 338.562C569.136 339.091 569.365 339.493 569.663 339.768C569.964 340.044 570.327 340.182 570.75 340.182ZM581.267 341.136C580.722 341.136 580.24 340.999 579.822 340.723C579.405 340.445 579.078 340.053 578.842 339.547C578.607 339.038 578.489 338.438 578.489 337.744C578.489 337.057 578.607 336.46 578.842 335.955C579.078 335.449 579.406 335.058 579.827 334.783C580.247 334.507 580.733 334.369 581.284 334.369C581.71 334.369 582.047 334.44 582.294 334.582C582.544 334.722 582.734 334.881 582.865 335.06C582.999 335.236 583.102 335.381 583.176 335.494H583.261V332.273H584.267V341H583.295V339.994H583.176C583.102 340.114 582.997 340.264 582.861 340.446C582.724 340.625 582.53 340.786 582.277 340.928C582.024 341.067 581.688 341.136 581.267 341.136ZM581.403 340.233C581.807 340.233 582.148 340.128 582.426 339.918C582.705 339.705 582.916 339.411 583.061 339.036C583.206 338.658 583.278 338.222 583.278 337.727C583.278 337.239 583.207 336.811 583.065 336.445C582.923 336.075 582.713 335.788 582.435 335.584C582.156 335.376 581.813 335.273 581.403 335.273C580.977 335.273 580.622 335.382 580.338 335.601C580.057 335.817 579.845 336.111 579.703 336.483C579.564 336.852 579.494 337.267 579.494 337.727C579.494 338.193 579.565 338.616 579.707 338.997C579.852 339.375 580.065 339.676 580.347 339.901C580.631 340.122 580.983 340.233 581.403 340.233ZM588.175 341.153C587.76 341.153 587.384 341.075 587.045 340.919C586.707 340.76 586.439 340.531 586.24 340.233C586.041 339.932 585.942 339.568 585.942 339.142C585.942 338.767 586.016 338.463 586.163 338.23C586.311 337.994 586.509 337.81 586.756 337.676C587.003 337.543 587.276 337.443 587.574 337.378C587.875 337.31 588.178 337.256 588.482 337.216C588.879 337.165 589.202 337.126 589.449 337.101C589.699 337.072 589.881 337.026 589.994 336.96C590.111 336.895 590.169 336.781 590.169 336.619V336.585C590.169 336.165 590.054 335.838 589.824 335.605C589.597 335.372 589.251 335.256 588.788 335.256C588.308 335.256 587.932 335.361 587.659 335.571C587.386 335.781 587.195 336.006 587.084 336.244L586.129 335.903C586.3 335.506 586.527 335.196 586.811 334.974C587.098 334.75 587.411 334.594 587.749 334.506C588.089 334.415 588.425 334.369 588.754 334.369C588.964 334.369 589.206 334.395 589.479 334.446C589.754 334.494 590.02 334.595 590.276 334.749C590.534 334.902 590.749 335.134 590.919 335.443C591.089 335.753 591.175 336.168 591.175 336.688V341H590.169V340.114H590.118C590.05 340.256 589.936 340.408 589.777 340.57C589.618 340.732 589.406 340.869 589.142 340.983C588.878 341.097 588.555 341.153 588.175 341.153ZM588.328 340.25C588.726 340.25 589.061 340.172 589.334 340.016C589.609 339.859 589.817 339.658 589.956 339.411C590.098 339.163 590.169 338.903 590.169 338.631V337.71C590.126 337.761 590.033 337.808 589.888 337.851C589.746 337.891 589.581 337.926 589.393 337.957C589.209 337.986 589.028 338.011 588.852 338.034C588.679 338.054 588.538 338.071 588.43 338.085C588.169 338.119 587.925 338.175 587.697 338.251C587.473 338.325 587.291 338.437 587.152 338.588C587.016 338.736 586.947 338.937 586.947 339.193C586.947 339.543 587.077 339.807 587.335 339.986C587.597 340.162 587.928 340.25 588.328 340.25ZM593.424 343.455C593.253 343.455 593.101 343.44 592.968 343.412C592.834 343.386 592.742 343.361 592.691 343.335L592.946 342.449C593.191 342.511 593.407 342.534 593.594 342.517C593.782 342.5 593.948 342.416 594.093 342.266C594.24 342.118 594.375 341.878 594.498 341.545L594.685 341.034L592.265 334.455H593.355L595.162 339.67H595.23L597.037 334.455H598.128L595.35 341.955C595.225 342.293 595.07 342.572 594.885 342.794C594.701 343.018 594.486 343.185 594.242 343.293C594 343.401 593.728 343.455 593.424 343.455ZM604.092 335.92L603.189 336.176C603.132 336.026 603.048 335.879 602.937 335.737C602.829 335.592 602.681 335.473 602.494 335.379C602.306 335.286 602.066 335.239 601.774 335.239C601.373 335.239 601.039 335.331 600.772 335.516C600.508 335.697 600.376 335.929 600.376 336.21C600.376 336.46 600.467 336.658 600.649 336.803C600.831 336.947 601.115 337.068 601.501 337.165L602.473 337.403C603.058 337.545 603.494 337.763 603.781 338.055C604.068 338.345 604.211 338.719 604.211 339.176C604.211 339.551 604.103 339.886 603.887 340.182C603.674 340.477 603.376 340.71 602.993 340.881C602.609 341.051 602.163 341.136 601.654 341.136C600.987 341.136 600.434 340.991 599.997 340.702C599.559 340.412 599.282 339.989 599.166 339.432L600.12 339.193C600.211 339.545 600.383 339.81 600.636 339.986C600.892 340.162 601.225 340.25 601.637 340.25C602.106 340.25 602.478 340.151 602.754 339.952C603.032 339.75 603.172 339.509 603.172 339.227C603.172 339 603.092 338.81 602.933 338.656C602.774 338.5 602.529 338.384 602.2 338.307L601.109 338.051C600.51 337.909 600.069 337.689 599.788 337.391C599.51 337.089 599.37 336.713 599.37 336.261C599.37 335.892 599.474 335.565 599.681 335.281C599.892 334.997 600.177 334.774 600.538 334.612C600.902 334.45 601.314 334.369 601.774 334.369C602.422 334.369 602.93 334.511 603.299 334.795C603.672 335.08 603.936 335.455 604.092 335.92Z" fill="white"/>
<path d="M771.972 332.273V341H770.915V333.381H770.864L768.733 334.795V333.722L770.915 332.273H771.972ZM777.277 341.119C776.692 341.119 776.175 341.016 775.726 340.808C775.28 340.598 774.932 340.31 774.682 339.943C774.432 339.574 774.308 339.153 774.311 338.682C774.308 338.312 774.381 337.972 774.528 337.659C774.676 337.344 774.878 337.081 775.134 336.871C775.392 336.658 775.68 336.523 775.999 336.466V336.415C775.581 336.307 775.249 336.072 775.001 335.712C774.754 335.348 774.632 334.935 774.635 334.472C774.632 334.028 774.744 333.632 774.972 333.283C775.199 332.933 775.511 332.658 775.909 332.456C776.31 332.254 776.766 332.153 777.277 332.153C777.783 332.153 778.234 332.254 778.632 332.456C779.03 332.658 779.342 332.933 779.57 333.283C779.8 333.632 779.916 334.028 779.919 334.472C779.916 334.935 779.79 335.348 779.54 335.712C779.293 336.072 778.964 336.307 778.555 336.415V336.466C778.871 336.523 779.155 336.658 779.408 336.871C779.661 337.081 779.862 337.344 780.013 337.659C780.163 337.972 780.24 338.312 780.243 338.682C780.24 339.153 780.112 339.574 779.859 339.943C779.609 340.31 779.261 340.598 778.815 340.808C778.372 341.016 777.859 341.119 777.277 341.119ZM777.277 340.182C777.672 340.182 778.013 340.118 778.3 339.99C778.587 339.862 778.808 339.682 778.964 339.449C779.121 339.216 779.2 338.943 779.203 338.631C779.2 338.301 779.115 338.01 778.947 337.757C778.78 337.504 778.551 337.305 778.261 337.161C777.974 337.016 777.646 336.943 777.277 336.943C776.905 336.943 776.572 337.016 776.28 337.161C775.99 337.305 775.761 337.504 775.594 337.757C775.429 338.01 775.348 338.301 775.351 338.631C775.348 338.943 775.423 339.216 775.577 339.449C775.733 339.682 775.956 339.862 776.246 339.99C776.536 340.118 776.879 340.182 777.277 340.182ZM777.277 336.04C777.589 336.04 777.866 335.977 778.108 335.852C778.352 335.727 778.544 335.553 778.683 335.328C778.822 335.104 778.893 334.841 778.896 334.54C778.893 334.244 778.824 333.987 778.688 333.768C778.551 333.547 778.362 333.376 778.121 333.257C777.879 333.135 777.598 333.074 777.277 333.074C776.95 333.074 776.665 333.135 776.42 333.257C776.176 333.376 775.987 333.547 775.854 333.768C775.72 333.987 775.655 334.244 775.658 334.54C775.655 334.841 775.722 335.104 775.858 335.328C775.997 335.553 776.189 335.727 776.433 335.852C776.678 335.977 776.959 336.04 777.277 336.04ZM784.723 341.119C784.081 341.119 783.534 340.945 783.082 340.595C782.63 340.243 782.285 339.733 782.047 339.065C781.808 338.395 781.689 337.585 781.689 336.636C781.689 335.693 781.808 334.888 782.047 334.22C782.288 333.55 782.635 333.038 783.086 332.686C783.541 332.331 784.086 332.153 784.723 332.153C785.359 332.153 785.903 332.331 786.355 332.686C786.809 333.038 787.156 333.55 787.395 334.22C787.636 334.888 787.757 335.693 787.757 336.636C787.757 337.585 787.637 338.395 787.399 339.065C787.16 339.733 786.815 340.243 786.363 340.595C785.912 340.945 785.365 341.119 784.723 341.119ZM784.723 340.182C785.359 340.182 785.853 339.875 786.206 339.261C786.558 338.648 786.734 337.773 786.734 336.636C786.734 335.881 786.653 335.237 786.491 334.706C786.332 334.175 786.102 333.77 785.801 333.491C785.502 333.213 785.143 333.074 784.723 333.074C784.092 333.074 783.599 333.385 783.244 334.007C782.889 334.626 782.711 335.503 782.711 336.636C782.711 337.392 782.791 338.034 782.95 338.562C783.109 339.091 783.338 339.493 783.636 339.768C783.937 340.044 784.299 340.182 784.723 340.182ZM795.24 341.136C794.694 341.136 794.213 340.999 793.795 340.723C793.377 340.445 793.051 340.053 792.815 339.547C792.579 339.038 792.461 338.438 792.461 337.744C792.461 337.057 792.579 336.46 792.815 335.955C793.051 335.449 793.379 335.058 793.799 334.783C794.22 334.507 794.706 334.369 795.257 334.369C795.683 334.369 796.02 334.44 796.267 334.582C796.517 334.722 796.707 334.881 796.838 335.06C796.971 335.236 797.075 335.381 797.149 335.494H797.234V332.273H798.24V341H797.268V339.994H797.149C797.075 340.114 796.97 340.264 796.833 340.446C796.697 340.625 796.502 340.786 796.25 340.928C795.997 341.067 795.66 341.136 795.24 341.136ZM795.376 340.233C795.779 340.233 796.12 340.128 796.399 339.918C796.677 339.705 796.889 339.411 797.034 339.036C797.179 338.658 797.251 338.222 797.251 337.727C797.251 337.239 797.18 336.811 797.038 336.445C796.896 336.075 796.686 335.788 796.407 335.584C796.129 335.376 795.785 335.273 795.376 335.273C794.95 335.273 794.595 335.382 794.311 335.601C794.029 335.817 793.818 336.111 793.676 336.483C793.537 336.852 793.467 337.267 793.467 337.727C793.467 338.193 793.538 338.616 793.68 338.997C793.825 339.375 794.038 339.676 794.319 339.901C794.603 340.122 794.956 340.233 795.376 340.233ZM802.147 341.153C801.733 341.153 801.356 341.075 801.018 340.919C800.68 340.76 800.412 340.531 800.213 340.233C800.014 339.932 799.914 339.568 799.914 339.142C799.914 338.767 799.988 338.463 800.136 338.23C800.284 337.994 800.481 337.81 800.728 337.676C800.975 337.543 801.248 337.443 801.547 337.378C801.848 337.31 802.15 337.256 802.454 337.216C802.852 337.165 803.174 337.126 803.422 337.101C803.672 337.072 803.853 337.026 803.967 336.96C804.083 336.895 804.142 336.781 804.142 336.619V336.585C804.142 336.165 804.027 335.838 803.797 335.605C803.569 335.372 803.224 335.256 802.761 335.256C802.281 335.256 801.904 335.361 801.632 335.571C801.359 335.781 801.167 336.006 801.056 336.244L800.102 335.903C800.272 335.506 800.5 335.196 800.784 334.974C801.071 334.75 801.383 334.594 801.721 334.506C802.062 334.415 802.397 334.369 802.727 334.369C802.937 334.369 803.179 334.395 803.451 334.446C803.727 334.494 803.993 334.595 804.248 334.749C804.507 334.902 804.721 335.134 804.892 335.443C805.062 335.753 805.147 336.168 805.147 336.688V341H804.142V340.114H804.091C804.022 340.256 803.909 340.408 803.75 340.57C803.591 340.732 803.379 340.869 803.115 340.983C802.85 341.097 802.528 341.153 802.147 341.153ZM802.301 340.25C802.699 340.25 803.034 340.172 803.306 340.016C803.582 339.859 803.789 339.658 803.929 339.411C804.071 339.163 804.142 338.903 804.142 338.631V337.71C804.099 337.761 804.005 337.808 803.86 337.851C803.718 337.891 803.554 337.926 803.366 337.957C803.181 337.986 803.001 338.011 802.825 338.034C802.652 338.054 802.511 338.071 802.403 338.085C802.142 338.119 801.897 338.175 801.67 338.251C801.446 338.325 801.264 338.437 801.125 338.588C800.988 338.736 800.92 338.937 800.92 339.193C800.92 339.543 801.049 339.807 801.308 339.986C801.569 340.162 801.9 340.25 802.301 340.25ZM807.396 343.455C807.226 343.455 807.074 343.44 806.94 343.412C806.807 343.386 806.714 343.361 806.663 343.335L806.919 342.449C807.163 342.511 807.379 342.534 807.567 342.517C807.754 342.5 807.92 342.416 808.065 342.266C808.213 342.118 808.348 341.878 808.47 341.545L808.658 341.034L806.237 334.455H807.328L809.135 339.67H809.203L811.01 334.455H812.101L809.322 341.955C809.197 342.293 809.043 342.572 808.858 342.794C808.673 343.018 808.459 343.185 808.214 343.293C807.973 343.401 807.7 343.455 807.396 343.455ZM818.065 335.92L817.161 336.176C817.104 336.026 817.021 335.879 816.91 335.737C816.802 335.592 816.654 335.473 816.467 335.379C816.279 335.286 816.039 335.239 815.746 335.239C815.346 335.239 815.012 335.331 814.745 335.516C814.481 335.697 814.349 335.929 814.349 336.21C814.349 336.46 814.44 336.658 814.621 336.803C814.803 336.947 815.087 337.068 815.474 337.165L816.445 337.403C817.031 337.545 817.467 337.763 817.754 338.055C818.04 338.345 818.184 338.719 818.184 339.176C818.184 339.551 818.076 339.886 817.86 340.182C817.647 340.477 817.349 340.71 816.965 340.881C816.582 341.051 816.136 341.136 815.627 341.136C814.96 341.136 814.407 340.991 813.969 340.702C813.532 340.412 813.255 339.989 813.138 339.432L814.093 339.193C814.184 339.545 814.356 339.81 814.609 339.986C814.864 340.162 815.198 340.25 815.61 340.25C816.079 340.25 816.451 340.151 816.727 339.952C817.005 339.75 817.144 339.509 817.144 339.227C817.144 339 817.065 338.81 816.906 338.656C816.746 338.5 816.502 338.384 816.173 338.307L815.082 338.051C814.482 337.909 814.042 337.689 813.761 337.391C813.482 337.089 813.343 336.713 813.343 336.261C813.343 335.892 813.447 335.565 813.654 335.281C813.864 334.997 814.15 334.774 814.511 334.612C814.874 334.45 815.286 334.369 815.746 334.369C816.394 334.369 816.903 334.511 817.272 334.795C817.644 335.08 817.908 335.455 818.065 335.92Z" fill="white"/>
<path d="M9.68182 17.1534C10.0398 17.1562 10.3977 17.2244 10.7557 17.358C11.1136 17.4915 11.4403 17.7131 11.7358 18.0227C12.0313 18.3295 12.2685 18.7486 12.4474 19.2798C12.6264 19.8111 12.7159 20.4773 12.7159 21.2784C12.7159 22.054 12.642 22.7429 12.4943 23.3452C12.3494 23.9446 12.1392 24.4503 11.8636 24.8622C11.5909 25.2741 11.2585 25.5866 10.8665 25.7997C10.4773 26.0128 10.0369 26.1193 9.54545 26.1193C9.05682 26.1193 8.62074 26.0227 8.23722 25.8295C7.85653 25.6335 7.54403 25.3622 7.29972 25.0156C7.05824 24.6662 6.90341 24.2614 6.83523 23.8011H7.875C7.96875 24.2017 8.15483 24.5327 8.43324 24.794C8.71449 25.0526 9.08523 25.1818 9.54545 25.1818C10.2188 25.1818 10.75 24.8878 11.1392 24.2997C11.5313 23.7116 11.7273 22.8807 11.7273 21.8068H11.6591C11.5 22.0455 11.3111 22.2514 11.0923 22.4247C10.8736 22.598 10.6307 22.7315 10.3636 22.8253C10.0966 22.919 9.8125 22.9659 9.51136 22.9659C9.01136 22.9659 8.55256 22.8423 8.13494 22.5952C7.72017 22.3452 7.38778 22.0028 7.13778 21.5682C6.89062 21.1307 6.76705 20.6307 6.76705 20.0682C6.76705 19.5341 6.88636 19.0455 7.125 18.6023C7.36648 18.1562 7.70455 17.8011 8.1392 17.5369C8.5767 17.2727 9.09091 17.1449 9.68182 17.1534ZM9.68182 18.0909C9.32386 18.0909 9.00142 18.1804 8.71449 18.3594C8.4304 18.5355 8.20455 18.7741 8.03693 19.0753C7.87216 19.3736 7.78977 19.7045 7.78977 20.0682C7.78977 20.4318 7.86932 20.7628 8.02841 21.0611C8.19034 21.3565 8.41051 21.5923 8.68892 21.7685C8.97017 21.9418 9.28977 22.0284 9.64773 22.0284C9.91761 22.0284 10.169 21.9759 10.402 21.8707C10.6349 21.7628 10.8381 21.6165 11.0114 21.4318C11.1875 21.2443 11.3253 21.0327 11.4247 20.7969C11.5241 20.5582 11.5739 20.3097 11.5739 20.0511C11.5739 19.7102 11.4915 19.3906 11.3267 19.0923C11.1648 18.794 10.9403 18.5526 10.6534 18.3679C10.3693 18.1832 10.0455 18.0909 9.68182 18.0909ZM17.2383 26.1193C16.5962 26.1193 16.0494 25.9446 15.5977 25.5952C15.146 25.2429 14.8008 24.733 14.5621 24.0653C14.3235 23.3949 14.2042 22.5852 14.2042 21.6364C14.2042 20.6932 14.3235 19.8878 14.5621 19.2202C14.8036 18.5497 15.1502 18.0384 15.6019 17.6861C16.0565 17.331 16.6019 17.1534 17.2383 17.1534C17.8746 17.1534 18.4187 17.331 18.8704 17.6861C19.3249 18.0384 19.6715 18.5497 19.9102 19.2202C20.1516 19.8878 20.2724 20.6932 20.2724 21.6364C20.2724 22.5852 20.1531 23.3949 19.9144 24.0653C19.6758 24.733 19.3306 25.2429 18.8789 25.5952C18.4272 25.9446 17.8803 26.1193 17.2383 26.1193ZM17.2383 25.1818C17.8746 25.1818 18.369 24.875 18.7212 24.2614C19.0735 23.6477 19.2496 22.7727 19.2496 21.6364C19.2496 20.8807 19.1687 20.2372 19.0067 19.706C18.8477 19.1747 18.6175 18.7699 18.3164 18.4915C18.0181 18.2131 17.6587 18.0739 17.2383 18.0739C16.6076 18.0739 16.1147 18.3849 15.7596 19.0071C15.4045 19.6264 15.2269 20.5028 15.2269 21.6364C15.2269 22.392 15.3065 23.0341 15.4656 23.5625C15.6246 24.0909 15.8533 24.4929 16.1516 24.7685C16.4528 25.044 16.815 25.1818 17.2383 25.1818ZM26.3406 24.3636V23.9034C26.3406 23.5852 26.4059 23.294 26.5366 23.0298C26.6701 22.7628 26.8633 22.5497 27.1161 22.3906C27.3718 22.2287 27.6815 22.1477 28.0451 22.1477C28.4144 22.1477 28.7241 22.2287 28.9741 22.3906C29.2241 22.5497 29.413 22.7628 29.5408 23.0298C29.6687 23.294 29.7326 23.5852 29.7326 23.9034V24.3636C29.7326 24.6818 29.6673 24.9744 29.5366 25.2415C29.4087 25.5057 29.2184 25.7187 28.9656 25.8807C28.7156 26.0398 28.4087 26.1193 28.0451 26.1193C27.6758 26.1193 27.3647 26.0398 27.1119 25.8807C26.859 25.7187 26.6673 25.5057 26.5366 25.2415C26.4059 24.9744 26.3406 24.6818 26.3406 24.3636ZM27.2099 23.9034V24.3636C27.2099 24.6278 27.2724 24.8651 27.3974 25.0753C27.5224 25.2827 27.7383 25.3864 28.0451 25.3864C28.3434 25.3864 28.5536 25.2827 28.6758 25.0753C28.8008 24.8651 28.8633 24.6278 28.8633 24.3636V23.9034C28.8633 23.6392 28.8036 23.4034 28.6843 23.196C28.565 22.9858 28.3519 22.8807 28.0451 22.8807C27.7468 22.8807 27.5323 22.9858 27.4016 23.196C27.2738 23.4034 27.2099 23.6392 27.2099 23.9034ZM21.994 19.3693V18.9091C21.994 18.5909 22.0593 18.2997 22.19 18.0355C22.3235 17.7685 22.5167 17.5554 22.7695 17.3963C23.0252 17.2344 23.3349 17.1534 23.6985 17.1534C24.0678 17.1534 24.3775 17.2344 24.6275 17.3963C24.8775 17.5554 25.0664 17.7685 25.1942 18.0355C25.3221 18.2997 25.386 18.5909 25.386 18.9091V19.3693C25.386 19.6875 25.3207 19.9801 25.19 20.2472C25.0621 20.5114 24.8718 20.7244 24.619 20.8864C24.369 21.0455 24.0621 21.125 23.6985 21.125C23.3292 21.125 23.0181 21.0455 22.7653 20.8864C22.5124 20.7244 22.3207 20.5114 22.19 20.2472C22.0593 19.9801 21.994 19.6875 21.994 19.3693ZM22.8633 18.9091V19.3693C22.8633 19.6335 22.9258 19.8707 23.0508 20.081C23.1758 20.2884 23.3917 20.392 23.6985 20.392C23.9968 20.392 24.207 20.2884 24.3292 20.081C24.4542 19.8707 24.5167 19.6335 24.5167 19.3693V18.9091C24.5167 18.6449 24.457 18.4091 24.3377 18.2017C24.2184 17.9915 24.0053 17.8864 23.6985 17.8864C23.4002 17.8864 23.1857 17.9915 23.055 18.2017C22.9272 18.4091 22.8633 18.6449 22.8633 18.9091ZM22.3178 26L28.3178 17.2727H29.2894L23.2894 26H22.3178Z" fill="white"/>
<path d="M276.176 86L280.08 78.2784V78.2102H275.58V77.2727H281.17V78.2614L277.284 86H276.176ZM282.759 86V85.233L285.64 82.0795C285.978 81.7102 286.256 81.3892 286.475 81.1165C286.694 80.8409 286.855 80.5824 286.961 80.3409C287.069 80.0966 287.123 79.8409 287.123 79.5739C287.123 79.267 287.049 79.0014 286.901 78.777C286.756 78.5526 286.557 78.3793 286.304 78.2571C286.051 78.1349 285.767 78.0739 285.452 78.0739C285.117 78.0739 284.824 78.1435 284.574 78.2827C284.327 78.419 284.135 78.6108 283.999 78.858C283.865 79.1051 283.799 79.3949 283.799 79.7273H282.793C282.793 79.2159 282.911 78.767 283.147 78.3807C283.382 77.9943 283.703 77.6932 284.11 77.4773C284.519 77.2614 284.978 77.1534 285.486 77.1534C285.998 77.1534 286.451 77.2614 286.846 77.4773C287.24 77.6932 287.55 77.9844 287.775 78.3509C287.999 78.7173 288.111 79.125 288.111 79.5739C288.111 79.8949 288.053 80.2088 287.936 80.5156C287.823 80.8196 287.624 81.1591 287.34 81.5341C287.059 81.9062 286.668 82.3608 286.168 82.8977L284.208 84.9943V85.0625H288.265V86H282.759ZM294.473 84.3636V83.9034C294.473 83.5852 294.539 83.294 294.669 83.0298C294.803 82.7628 294.996 82.5497 295.249 82.3906C295.505 82.2287 295.814 82.1477 296.178 82.1477C296.547 82.1477 296.857 82.2287 297.107 82.3906C297.357 82.5497 297.546 82.7628 297.674 83.0298C297.801 83.294 297.865 83.5852 297.865 83.9034V84.3636C297.865 84.6818 297.8 84.9744 297.669 85.2415C297.542 85.5057 297.351 85.7187 297.098 85.8807C296.848 86.0398 296.542 86.1193 296.178 86.1193C295.809 86.1193 295.498 86.0398 295.245 85.8807C294.992 85.7187 294.8 85.5057 294.669 85.2415C294.539 84.9744 294.473 84.6818 294.473 84.3636ZM295.343 83.9034V84.3636C295.343 84.6278 295.405 84.8651 295.53 85.0753C295.655 85.2827 295.871 85.3864 296.178 85.3864C296.476 85.3864 296.686 85.2827 296.809 85.0753C296.934 84.8651 296.996 84.6278 296.996 84.3636V83.9034C296.996 83.6392 296.936 83.4034 296.817 83.196C296.698 82.9858 296.485 82.8807 296.178 82.8807C295.88 82.8807 295.665 82.9858 295.534 83.196C295.407 83.4034 295.343 83.6392 295.343 83.9034ZM290.127 79.3693V78.9091C290.127 78.5909 290.192 78.2997 290.323 78.0355C290.456 77.7685 290.65 77.5554 290.902 77.3963C291.158 77.2344 291.468 77.1534 291.831 77.1534C292.201 77.1534 292.51 77.2344 292.76 77.3963C293.01 77.5554 293.199 77.7685 293.327 78.0355C293.455 78.2997 293.519 78.5909 293.519 78.9091V79.3693C293.519 79.6875 293.453 79.9801 293.323 80.2472C293.195 80.5114 293.005 80.7244 292.752 80.8864C292.502 81.0455 292.195 81.125 291.831 81.125C291.462 81.125 291.151 81.0455 290.898 80.8864C290.645 80.7244 290.453 80.5114 290.323 80.2472C290.192 79.9801 290.127 79.6875 290.127 79.3693ZM290.996 78.9091V79.3693C290.996 79.6335 291.059 79.8707 291.184 80.081C291.309 80.2884 291.525 80.392 291.831 80.392C292.13 80.392 292.34 80.2884 292.462 80.081C292.587 79.8707 292.65 79.6335 292.65 79.3693V78.9091C292.65 78.6449 292.59 78.4091 292.471 78.2017C292.351 77.9915 292.138 77.8864 291.831 77.8864C291.533 77.8864 291.319 77.9915 291.188 78.2017C291.06 78.4091 290.996 78.6449 290.996 78.9091ZM290.451 86L296.451 77.2727H297.422L291.422 86H290.451Z" fill="white"/>
<path d="M520.852 187.119C520.29 187.119 519.788 187.023 519.348 186.83C518.911 186.636 518.563 186.368 518.304 186.024C518.048 185.678 517.909 185.276 517.886 184.818H518.96C518.983 185.099 519.08 185.342 519.25 185.547C519.42 185.749 519.643 185.905 519.919 186.016C520.195 186.126 520.5 186.182 520.835 186.182C521.21 186.182 521.543 186.116 521.832 185.986C522.122 185.855 522.349 185.673 522.514 185.44C522.679 185.207 522.761 184.938 522.761 184.631C522.761 184.31 522.682 184.027 522.523 183.783C522.364 183.536 522.131 183.342 521.824 183.203C521.517 183.064 521.142 182.994 520.699 182.994H520V182.057H520.699C521.045 182.057 521.349 181.994 521.611 181.869C521.875 181.744 522.081 181.568 522.229 181.341C522.379 181.114 522.455 180.847 522.455 180.54C522.455 180.244 522.389 179.987 522.259 179.768C522.128 179.55 521.943 179.379 521.705 179.257C521.469 179.135 521.19 179.074 520.869 179.074C520.568 179.074 520.284 179.129 520.017 179.24C519.753 179.348 519.537 179.506 519.369 179.713C519.202 179.918 519.111 180.165 519.097 180.455H518.074C518.091 179.997 518.229 179.597 518.487 179.253C518.746 178.906 519.084 178.636 519.501 178.443C519.922 178.25 520.384 178.153 520.886 178.153C521.426 178.153 521.889 178.263 522.276 178.482C522.662 178.697 522.959 178.983 523.166 179.338C523.374 179.693 523.477 180.077 523.477 180.489C523.477 180.98 523.348 181.399 523.089 181.746C522.834 182.092 522.486 182.332 522.045 182.466V182.534C522.597 182.625 523.027 182.859 523.337 183.237C523.646 183.612 523.801 184.077 523.801 184.631C523.801 185.105 523.672 185.531 523.413 185.909C523.158 186.284 522.808 186.58 522.365 186.795C521.922 187.011 521.418 187.119 520.852 187.119ZM525.817 187L529.72 179.278V179.21H525.22V178.273H530.811V179.261L526.925 187H525.817ZM536.848 185.364V184.903C536.848 184.585 536.914 184.294 537.044 184.03C537.178 183.763 537.371 183.55 537.624 183.391C537.88 183.229 538.189 183.148 538.553 183.148C538.922 183.148 539.232 183.229 539.482 183.391C539.732 183.55 539.921 183.763 540.049 184.03C540.176 184.294 540.24 184.585 540.24 184.903V185.364C540.24 185.682 540.175 185.974 540.044 186.241C539.917 186.506 539.726 186.719 539.473 186.881C539.223 187.04 538.917 187.119 538.553 187.119C538.184 187.119 537.873 187.04 537.62 186.881C537.367 186.719 537.175 186.506 537.044 186.241C536.914 185.974 536.848 185.682 536.848 185.364ZM537.718 184.903V185.364C537.718 185.628 537.78 185.865 537.905 186.075C538.03 186.283 538.246 186.386 538.553 186.386C538.851 186.386 539.061 186.283 539.184 186.075C539.309 185.865 539.371 185.628 539.371 185.364V184.903C539.371 184.639 539.311 184.403 539.192 184.196C539.073 183.986 538.86 183.881 538.553 183.881C538.255 183.881 538.04 183.986 537.909 184.196C537.782 184.403 537.718 184.639 537.718 184.903ZM532.502 180.369V179.909C532.502 179.591 532.567 179.3 532.698 179.036C532.831 178.768 533.025 178.555 533.277 178.396C533.533 178.234 533.843 178.153 534.206 178.153C534.576 178.153 534.885 178.234 535.135 178.396C535.385 178.555 535.574 178.768 535.702 179.036C535.83 179.3 535.894 179.591 535.894 179.909V180.369C535.894 180.687 535.828 180.98 535.698 181.247C535.57 181.511 535.38 181.724 535.127 181.886C534.877 182.045 534.57 182.125 534.206 182.125C533.837 182.125 533.526 182.045 533.273 181.886C533.02 181.724 532.828 181.511 532.698 181.247C532.567 180.98 532.502 180.687 532.502 180.369ZM533.371 179.909V180.369C533.371 180.634 533.434 180.871 533.559 181.081C533.684 181.288 533.9 181.392 534.206 181.392C534.505 181.392 534.715 181.288 534.837 181.081C534.962 180.871 535.025 180.634 535.025 180.369V179.909C535.025 179.645 534.965 179.409 534.846 179.202C534.726 178.991 534.513 178.886 534.206 178.886C533.908 178.886 533.694 178.991 533.563 179.202C533.435 179.409 533.371 179.645 533.371 179.909ZM532.826 187L538.826 178.273H539.797L533.797 187H532.826Z" fill="white"/>
<path d="M770.699 122.119C770.114 122.119 769.597 122.016 769.148 121.808C768.702 121.598 768.354 121.31 768.104 120.943C767.854 120.574 767.73 120.153 767.733 119.682C767.73 119.312 767.803 118.972 767.95 118.659C768.098 118.344 768.3 118.081 768.555 117.871C768.814 117.658 769.102 117.523 769.42 117.466V117.415C769.003 117.307 768.67 117.072 768.423 116.712C768.176 116.348 768.054 115.935 768.057 115.472C768.054 115.028 768.166 114.632 768.393 114.283C768.621 113.933 768.933 113.658 769.331 113.456C769.732 113.254 770.188 113.153 770.699 113.153C771.205 113.153 771.656 113.254 772.054 113.456C772.452 113.658 772.764 113.933 772.991 114.283C773.222 114.632 773.338 115.028 773.341 115.472C773.338 115.935 773.212 116.348 772.962 116.712C772.714 117.072 772.386 117.307 771.977 117.415V117.466C772.293 117.523 772.577 117.658 772.83 117.871C773.082 118.081 773.284 118.344 773.435 118.659C773.585 118.972 773.662 119.312 773.665 119.682C773.662 120.153 773.534 120.574 773.281 120.943C773.031 121.31 772.683 121.598 772.237 121.808C771.794 122.016 771.281 122.119 770.699 122.119ZM770.699 121.182C771.094 121.182 771.435 121.118 771.722 120.99C772.009 120.862 772.23 120.682 772.386 120.449C772.543 120.216 772.622 119.943 772.625 119.631C772.622 119.301 772.537 119.01 772.369 118.757C772.202 118.504 771.973 118.305 771.683 118.161C771.396 118.016 771.068 117.943 770.699 117.943C770.327 117.943 769.994 118.016 769.702 118.161C769.412 118.305 769.183 118.504 769.016 118.757C768.851 119.01 768.77 119.301 768.773 119.631C768.77 119.943 768.845 120.216 768.999 120.449C769.155 120.682 769.378 120.862 769.668 120.99C769.957 121.118 770.301 121.182 770.699 121.182ZM770.699 117.04C771.011 117.04 771.288 116.977 771.53 116.852C771.774 116.727 771.966 116.553 772.105 116.328C772.244 116.104 772.315 115.841 772.318 115.54C772.315 115.244 772.246 114.987 772.109 114.768C771.973 114.547 771.784 114.376 771.543 114.257C771.301 114.135 771.02 114.074 770.699 114.074C770.372 114.074 770.087 114.135 769.842 114.257C769.598 114.376 769.409 114.547 769.276 114.768C769.142 114.987 769.077 115.244 769.08 115.54C769.077 115.841 769.143 116.104 769.28 116.328C769.419 116.553 769.611 116.727 769.855 116.852C770.099 116.977 770.381 117.04 770.699 117.04ZM778.145 122.119C777.502 122.119 776.956 121.945 776.504 121.595C776.052 121.243 775.707 120.733 775.468 120.065C775.23 119.395 775.11 118.585 775.11 117.636C775.11 116.693 775.23 115.888 775.468 115.22C775.71 114.55 776.056 114.038 776.508 113.686C776.963 113.331 777.508 113.153 778.145 113.153C778.781 113.153 779.325 113.331 779.777 113.686C780.231 114.038 780.578 114.55 780.816 115.22C781.058 115.888 781.179 116.693 781.179 117.636C781.179 118.585 781.059 119.395 780.821 120.065C780.582 120.733 780.237 121.243 779.785 121.595C779.333 121.945 778.787 122.119 778.145 122.119ZM778.145 121.182C778.781 121.182 779.275 120.875 779.627 120.261C779.98 119.648 780.156 118.773 780.156 117.636C780.156 116.881 780.075 116.237 779.913 115.706C779.754 115.175 779.524 114.77 779.223 114.491C778.924 114.213 778.565 114.074 778.145 114.074C777.514 114.074 777.021 114.385 776.666 115.007C776.311 115.626 776.133 116.503 776.133 117.636C776.133 118.392 776.213 119.034 776.372 119.562C776.531 120.091 776.76 120.493 777.058 120.768C777.359 121.044 777.721 121.182 778.145 121.182ZM787.247 120.364V119.903C787.247 119.585 787.312 119.294 787.443 119.03C787.576 118.763 787.77 118.55 788.022 118.391C788.278 118.229 788.588 118.148 788.951 118.148C789.321 118.148 789.63 118.229 789.88 118.391C790.13 118.55 790.319 118.763 790.447 119.03C790.575 119.294 790.639 119.585 790.639 119.903V120.364C790.639 120.682 790.574 120.974 790.443 121.241C790.315 121.506 790.125 121.719 789.872 121.881C789.622 122.04 789.315 122.119 788.951 122.119C788.582 122.119 788.271 122.04 788.018 121.881C787.765 121.719 787.574 121.506 787.443 121.241C787.312 120.974 787.247 120.682 787.247 120.364ZM788.116 119.903V120.364C788.116 120.628 788.179 120.865 788.304 121.075C788.429 121.283 788.645 121.386 788.951 121.386C789.25 121.386 789.46 121.283 789.582 121.075C789.707 120.865 789.77 120.628 789.77 120.364V119.903C789.77 119.639 789.71 119.403 789.591 119.196C789.471 118.986 789.258 118.881 788.951 118.881C788.653 118.881 788.439 118.986 788.308 119.196C788.18 119.403 788.116 119.639 788.116 119.903ZM782.9 115.369V114.909C782.9 114.591 782.966 114.3 783.096 114.036C783.23 113.768 783.423 113.555 783.676 113.396C783.931 113.234 784.241 113.153 784.605 113.153C784.974 113.153 785.284 113.234 785.534 113.396C785.784 113.555 785.973 113.768 786.1 114.036C786.228 114.3 786.292 114.591 786.292 114.909V115.369C786.292 115.687 786.227 115.98 786.096 116.247C785.968 116.511 785.778 116.724 785.525 116.886C785.275 117.045 784.968 117.125 784.605 117.125C784.235 117.125 783.924 117.045 783.672 116.886C783.419 116.724 783.227 116.511 783.096 116.247C782.966 115.98 782.9 115.687 782.9 115.369ZM783.77 114.909V115.369C783.77 115.634 783.832 115.871 783.957 116.081C784.082 116.288 784.298 116.392 784.605 116.392C784.903 116.392 785.113 116.288 785.235 116.081C785.36 115.871 785.423 115.634 785.423 115.369V114.909C785.423 114.645 785.363 114.409 785.244 114.202C785.125 113.991 784.912 113.886 784.605 113.886C784.306 113.886 784.092 113.991 783.961 114.202C783.833 114.409 783.77 114.645 783.77 114.909ZM783.224 122L789.224 113.273H790.196L784.196 122H783.224Z" fill="white"/>
<path d="M562 127L826 127" stroke="white" stroke-width="2" stroke-linecap="square"/>
<path d="M0.207162 33.5856C174.37 52.0386 399.557 127.576 561.869 220.176" stroke="white" stroke-width="2"/>
</g>
<defs>
<clipPath id="clip0_10541_15467">
<rect width="825" height="350" fill="white"/>
</clipPath>
</defs>
</svg>
