<svg width="825" height="350" viewBox="0 0 825 350" fill="none" xmlns="http://www.w3.org/2000/svg">
<g clip-path="url(#clip0_10181_14786)">
<rect width="825" height="350" fill="white"/>
<g opacity="0.25">
<path d="M561 0H0V350H561V0Z" fill="#F6B81A"/>
<path d="M825 0H561V350H825V0Z" fill="#F9386D"/>
</g>
<path fill-rule="evenodd" clip-rule="evenodd" d="M561 0V350H0C216.171 297.693 359.306 236.844 435.903 173.172C512.5 109.5 552.033 49.8698 561 0Z" fill="#F6B81A"/>
<path fill-rule="evenodd" clip-rule="evenodd" d="M561 0V350H825C825 222 789.549 141 740.52 80.9999C691.491 20.9999 609.651 0 561 0Z" fill="#F9386D"/>
<path d="M9.75 341.119C9.10795 341.119 8.56108 340.945 8.10938 340.595C7.65767 340.243 7.3125 339.733 7.07386 339.065C6.83523 338.395 6.71591 337.585 6.71591 336.636C6.71591 335.693 6.83523 334.888 7.07386 334.22C7.31534 333.55 7.66193 333.038 8.11364 332.686C8.56818 332.331 9.11364 332.153 9.75 332.153C10.3864 332.153 10.9304 332.331 11.3821 332.686C11.8366 333.038 12.1832 333.55 12.4219 334.22C12.6634 334.888 12.7841 335.693 12.7841 336.636C12.7841 337.585 12.6648 338.395 12.4261 339.065C12.1875 339.733 11.8423 340.243 11.3906 340.595C10.9389 340.945 10.392 341.119 9.75 341.119ZM9.75 340.182C10.3864 340.182 10.8807 339.875 11.233 339.261C11.5852 338.648 11.7614 337.773 11.7614 336.636C11.7614 335.881 11.6804 335.237 11.5185 334.706C11.3594 334.175 11.1293 333.77 10.8281 333.491C10.5298 333.213 10.1705 333.074 9.75 333.074C9.11932 333.074 8.62642 333.385 8.27131 334.007C7.91619 334.626 7.73864 335.503 7.73864 336.636C7.73864 337.392 7.81818 338.034 7.97727 338.562C8.13636 339.091 8.36506 339.493 8.66335 339.768C8.96449 340.044 9.3267 340.182 9.75 340.182ZM18.8523 339.364V338.903C18.8523 338.585 18.9176 338.294 19.0483 338.03C19.1818 337.763 19.375 337.55 19.6278 337.391C19.8835 337.229 20.1932 337.148 20.5568 337.148C20.9261 337.148 21.2358 337.229 21.4858 337.391C21.7358 337.55 21.9247 337.763 22.0526 338.03C22.1804 338.294 22.2443 338.585 22.2443 338.903V339.364C22.2443 339.682 22.179 339.974 22.0483 340.241C21.9205 340.506 21.7301 340.719 21.4773 340.881C21.2273 341.04 20.9205 341.119 20.5568 341.119C20.1875 341.119 19.8764 341.04 19.6236 340.881C19.3707 340.719 19.179 340.506 19.0483 340.241C18.9176 339.974 18.8523 339.682 18.8523 339.364ZM19.7216 338.903V339.364C19.7216 339.628 19.7841 339.865 19.9091 340.075C20.0341 340.283 20.25 340.386 20.5568 340.386C20.8551 340.386 21.0653 340.283 21.1875 340.075C21.3125 339.865 21.375 339.628 21.375 339.364V338.903C21.375 338.639 21.3153 338.403 21.196 338.196C21.0767 337.986 20.8636 337.881 20.5568 337.881C20.2585 337.881 20.044 337.986 19.9134 338.196C19.7855 338.403 19.7216 338.639 19.7216 338.903ZM14.5057 334.369V333.909C14.5057 333.591 14.571 333.3 14.7017 333.036C14.8352 332.768 15.0284 332.555 15.2812 332.396C15.5369 332.234 15.8466 332.153 16.2102 332.153C16.5795 332.153 16.8892 332.234 17.1392 332.396C17.3892 332.555 17.5781 332.768 17.706 333.036C17.8338 333.3 17.8977 333.591 17.8977 333.909V334.369C17.8977 334.687 17.8324 334.98 17.7017 335.247C17.5739 335.511 17.3835 335.724 17.1307 335.886C16.8807 336.045 16.5739 336.125 16.2102 336.125C15.8409 336.125 15.5298 336.045 15.277 335.886C15.0241 335.724 14.8324 335.511 14.7017 335.247C14.571 334.98 14.5057 334.687 14.5057 334.369ZM15.375 333.909V334.369C15.375 334.634 15.4375 334.871 15.5625 335.081C15.6875 335.288 15.9034 335.392 16.2102 335.392C16.5085 335.392 16.7188 335.288 16.8409 335.081C16.9659 334.871 17.0284 334.634 17.0284 334.369V333.909C17.0284 333.645 16.9688 333.409 16.8494 333.202C16.7301 332.991 16.517 332.886 16.2102 332.886C15.9119 332.886 15.6974 332.991 15.5668 333.202C15.4389 333.409 15.375 333.645 15.375 333.909ZM14.8295 341L20.8295 332.273H21.8011L15.8011 341H14.8295Z" fill="black"/>
<path d="M523.972 332.273V341H522.915V333.381H522.864L520.733 334.795V333.722L522.915 332.273H523.972ZM529.328 341.119C528.686 341.119 528.139 340.945 527.688 340.595C527.236 340.243 526.891 339.733 526.652 339.065C526.413 338.395 526.294 337.585 526.294 336.636C526.294 335.693 526.413 334.888 526.652 334.22C526.893 333.55 527.24 333.038 527.692 332.686C528.146 332.331 528.692 332.153 529.328 332.153C529.964 332.153 530.509 332.331 530.96 332.686C531.415 333.038 531.761 333.55 532 334.22C532.241 334.888 532.362 335.693 532.362 336.636C532.362 337.585 532.243 338.395 532.004 339.065C531.766 339.733 531.42 340.243 530.969 340.595C530.517 340.945 529.97 341.119 529.328 341.119ZM529.328 340.182C529.964 340.182 530.459 339.875 530.811 339.261C531.163 338.648 531.339 337.773 531.339 336.636C531.339 335.881 531.259 335.237 531.097 334.706C530.938 334.175 530.707 333.77 530.406 333.491C530.108 333.213 529.749 333.074 529.328 333.074C528.697 333.074 528.205 333.385 527.849 334.007C527.494 334.626 527.317 335.503 527.317 336.636C527.317 337.392 527.396 338.034 527.555 338.562C527.714 339.091 527.943 339.493 528.241 339.768C528.543 340.044 528.905 340.182 529.328 340.182ZM536.828 341.119C536.186 341.119 535.639 340.945 535.188 340.595C534.736 340.243 534.391 339.733 534.152 339.065C533.913 338.395 533.794 337.585 533.794 336.636C533.794 335.693 533.913 334.888 534.152 334.22C534.393 333.55 534.74 333.038 535.192 332.686C535.646 332.331 536.192 332.153 536.828 332.153C537.464 332.153 538.009 332.331 538.46 332.686C538.915 333.038 539.261 333.55 539.5 334.22C539.741 334.888 539.862 335.693 539.862 336.636C539.862 337.585 539.743 338.395 539.504 339.065C539.266 339.733 538.92 340.243 538.469 340.595C538.017 340.945 537.47 341.119 536.828 341.119ZM536.828 340.182C537.464 340.182 537.959 339.875 538.311 339.261C538.663 338.648 538.839 337.773 538.839 336.636C538.839 335.881 538.759 335.237 538.597 334.706C538.438 334.175 538.207 333.77 537.906 333.491C537.608 333.213 537.249 333.074 536.828 333.074C536.197 333.074 535.705 333.385 535.349 334.007C534.994 334.626 534.817 335.503 534.817 336.636C534.817 337.392 534.896 338.034 535.055 338.562C535.214 339.091 535.443 339.493 535.741 339.768C536.043 340.044 536.405 340.182 536.828 340.182ZM545.93 339.364V338.903C545.93 338.585 545.996 338.294 546.126 338.03C546.26 337.763 546.453 337.55 546.706 337.391C546.962 337.229 547.271 337.148 547.635 337.148C548.004 337.148 548.314 337.229 548.564 337.391C548.814 337.55 549.003 337.763 549.131 338.03C549.259 338.294 549.322 338.585 549.322 338.903V339.364C549.322 339.682 549.257 339.974 549.126 340.241C548.999 340.506 548.808 340.719 548.555 340.881C548.305 341.04 547.999 341.119 547.635 341.119C547.266 341.119 546.955 341.04 546.702 340.881C546.449 340.719 546.257 340.506 546.126 340.241C545.996 339.974 545.93 339.682 545.93 339.364ZM546.8 338.903V339.364C546.8 339.628 546.862 339.865 546.987 340.075C547.112 340.283 547.328 340.386 547.635 340.386C547.933 340.386 548.143 340.283 548.266 340.075C548.391 339.865 548.453 339.628 548.453 339.364V338.903C548.453 338.639 548.393 338.403 548.274 338.196C548.155 337.986 547.942 337.881 547.635 337.881C547.337 337.881 547.122 337.986 546.991 338.196C546.864 338.403 546.8 338.639 546.8 338.903ZM541.584 334.369V333.909C541.584 333.591 541.649 333.3 541.78 333.036C541.913 332.768 542.107 332.555 542.359 332.396C542.615 332.234 542.925 332.153 543.288 332.153C543.658 332.153 543.967 332.234 544.217 332.396C544.467 332.555 544.656 332.768 544.784 333.036C544.912 333.3 544.976 333.591 544.976 333.909V334.369C544.976 334.687 544.911 334.98 544.78 335.247C544.652 335.511 544.462 335.724 544.209 335.886C543.959 336.045 543.652 336.125 543.288 336.125C542.919 336.125 542.608 336.045 542.355 335.886C542.102 335.724 541.911 335.511 541.78 335.247C541.649 334.98 541.584 334.687 541.584 334.369ZM542.453 333.909V334.369C542.453 334.634 542.516 334.871 542.641 335.081C542.766 335.288 542.982 335.392 543.288 335.392C543.587 335.392 543.797 335.288 543.919 335.081C544.044 334.871 544.107 334.634 544.107 334.369V333.909C544.107 333.645 544.047 333.409 543.928 333.202C543.808 332.991 543.595 332.886 543.288 332.886C542.99 332.886 542.776 332.991 542.645 333.202C542.517 333.409 542.453 333.645 542.453 333.909ZM541.908 341L547.908 332.273H548.879L542.879 341H541.908Z" fill="black"/>
<path d="M253.072 341V332.273H256.021C256.703 332.273 257.263 332.389 257.7 332.622C258.138 332.852 258.462 333.169 258.672 333.572C258.882 333.976 258.987 334.435 258.987 334.949C258.987 335.463 258.882 335.919 258.672 336.317C258.462 336.714 258.139 337.027 257.705 337.254C257.27 337.479 256.714 337.591 256.038 337.591H253.652V336.636H256.004C256.47 336.636 256.845 336.568 257.129 336.432C257.416 336.295 257.624 336.102 257.751 335.852C257.882 335.599 257.947 335.298 257.947 334.949C257.947 334.599 257.882 334.294 257.751 334.033C257.621 333.771 257.412 333.57 257.125 333.428C256.838 333.283 256.459 333.21 255.987 333.21H254.129V341H253.072ZM257.18 337.08L259.328 341H258.101L255.987 337.08H257.18ZM260.748 341V332.273H266.015V333.21H261.805V336.159H265.743V337.097H261.805V340.062H266.083V341H260.748ZM269.505 341L267.119 332.273H268.193L270.017 339.381H270.102L271.96 332.273H273.153L275.011 339.381H275.096L276.92 332.273H277.994L275.608 341H274.517L272.591 334.045H272.522L270.596 341H269.505ZM278.989 341H277.881L281.086 332.273H282.176L285.381 341H284.273L281.665 333.653H281.597L278.989 341ZM279.398 337.591H283.864V338.528H279.398V337.591ZM286.74 341V332.273H289.689C290.371 332.273 290.931 332.389 291.368 332.622C291.806 332.852 292.13 333.169 292.34 333.572C292.55 333.976 292.655 334.435 292.655 334.949C292.655 335.463 292.55 335.919 292.34 336.317C292.13 336.714 291.807 337.027 291.373 337.254C290.938 337.479 290.382 337.591 289.706 337.591H287.32V336.636H289.672C290.138 336.636 290.513 336.568 290.797 336.432C291.084 336.295 291.292 336.102 291.419 335.852C291.55 335.599 291.615 335.298 291.615 334.949C291.615 334.599 291.55 334.294 291.419 334.033C291.289 333.771 291.08 333.57 290.793 333.428C290.506 333.283 290.127 333.21 289.655 333.21H287.797V341H286.74ZM290.848 337.08L292.996 341H291.769L289.655 337.08H290.848ZM297.109 341H294.416V332.273H297.229C298.075 332.273 298.8 332.447 299.402 332.797C300.004 333.143 300.466 333.642 300.787 334.293C301.108 334.94 301.268 335.716 301.268 336.619C301.268 337.528 301.107 338.311 300.783 338.967C300.459 339.621 299.987 340.124 299.368 340.476C298.749 340.825 297.996 341 297.109 341ZM295.473 340.062H297.041C297.763 340.062 298.361 339.923 298.835 339.645C299.31 339.366 299.663 338.97 299.896 338.456C300.129 337.942 300.246 337.33 300.246 336.619C300.246 335.915 300.131 335.308 299.901 334.8C299.67 334.288 299.327 333.896 298.869 333.624C298.412 333.348 297.842 333.21 297.161 333.21H295.473V340.062Z" fill="black"/>
<path d="M669.057 341V332.273H672.006C672.688 332.273 673.247 332.389 673.685 332.622C674.122 332.852 674.446 333.169 674.656 333.572C674.866 333.976 674.972 334.435 674.972 334.949C674.972 335.463 674.866 335.919 674.656 336.317C674.446 336.714 674.124 337.027 673.689 337.254C673.254 337.479 672.699 337.591 672.023 337.591H669.636V336.636H671.989C672.455 336.636 672.83 336.568 673.114 336.432C673.401 336.295 673.608 336.102 673.736 335.852C673.866 335.599 673.932 335.298 673.932 334.949C673.932 334.599 673.866 334.294 673.736 334.033C673.605 333.771 673.396 333.57 673.109 333.428C672.822 333.283 672.443 333.21 671.972 333.21H670.114V341H669.057ZM673.165 337.08L675.312 341H674.085L671.972 337.08H673.165ZM676.733 341V332.273H682V333.21H677.789V336.159H681.727V337.097H677.789V340.062H682.068V341H676.733ZM685.49 341L683.103 332.273H684.177L686.001 339.381H686.086L687.944 332.273H689.137L690.995 339.381H691.081L692.904 332.273H693.978L691.592 341H690.501L688.575 334.045H688.507L686.581 341H685.49ZM694.973 341H693.865L697.07 332.273H698.161L701.365 341H700.257L697.65 333.653H697.581L694.973 341ZM695.382 337.591H699.848V338.528H695.382V337.591ZM702.725 341V332.273H705.674C706.355 332.273 706.915 332.389 707.353 332.622C707.79 332.852 708.114 333.169 708.324 333.572C708.534 333.976 708.64 334.435 708.64 334.949C708.64 335.463 708.534 335.919 708.324 336.317C708.114 336.714 707.792 337.027 707.357 337.254C706.922 337.479 706.367 337.591 705.691 337.591H703.304V336.636H705.657C706.123 336.636 706.498 336.568 706.782 336.432C707.069 336.295 707.276 336.102 707.404 335.852C707.534 335.599 707.6 335.298 707.6 334.949C707.6 334.599 707.534 334.294 707.404 334.033C707.273 333.771 707.064 333.57 706.777 333.428C706.49 333.283 706.111 333.21 705.64 333.21H703.782V341H702.725ZM706.833 337.08L708.98 341H707.753L705.64 337.08H706.833ZM713.094 341H710.401V332.273H713.213C714.06 332.273 714.784 332.447 715.386 332.797C715.989 333.143 716.45 333.642 716.771 334.293C717.092 334.94 717.253 335.716 717.253 336.619C717.253 337.528 717.091 338.311 716.767 338.967C716.443 339.621 715.972 340.124 715.352 340.476C714.733 340.825 713.98 341 713.094 341ZM711.457 340.062H713.026C713.747 340.062 714.345 339.923 714.82 339.645C715.294 339.366 715.648 338.97 715.881 338.456C716.114 337.942 716.23 337.33 716.23 336.619C716.23 335.915 716.115 335.308 715.885 334.8C715.655 334.288 715.311 333.896 714.854 333.624C714.396 333.348 713.827 333.21 713.145 333.21H711.457V340.062Z" fill="black"/>
<path d="M666.455 18V9.27273H669.404C670.089 9.27273 670.648 9.39631 671.083 9.64347C671.521 9.88778 671.844 10.2188 672.055 10.6364C672.265 11.054 672.37 11.5199 672.37 12.0341C672.37 12.5483 672.265 13.0156 672.055 13.4361C671.847 13.8565 671.526 14.1918 671.092 14.4418C670.657 14.6889 670.1 14.8125 669.421 14.8125H667.308V13.875H669.387C669.856 13.875 670.232 13.794 670.516 13.6321C670.8 13.4702 671.006 13.2514 671.134 12.9759C671.265 12.6974 671.33 12.3835 671.33 12.0341C671.33 11.6847 671.265 11.3722 671.134 11.0966C671.006 10.821 670.799 10.6051 670.512 10.4489C670.225 10.2898 669.844 10.2102 669.37 10.2102H667.512V18H666.455ZM674.072 18V9.27273H679.339V10.2102H675.129V13.1591H679.067V14.0966H675.129V17.0625H679.408V18H674.072ZM688.165 9.27273V18H687.142L682.386 11.1477H682.301V18H681.244V9.27273H682.267L687.04 16.142H687.125V9.27273H688.165ZM690.637 18H689.529L692.734 9.27273H693.825L697.029 18H695.922L693.314 10.6534H693.245L690.637 18ZM691.047 14.5909H695.512V15.5284H691.047V14.5909ZM698.389 18V9.27273H699.446V17.0625H703.502V18H698.389ZM703.501 10.2102V9.27273H710.047V10.2102H707.303V18H706.246V10.2102H703.501ZM710.928 9.27273H712.138L714.559 13.3466H714.661L717.081 9.27273H718.292L715.138 14.4034V18H714.081V14.4034L710.928 9.27273Z" fill="black"/>
<path d="M251.455 18V9.27273H254.404C255.089 9.27273 255.648 9.39631 256.083 9.64347C256.521 9.88778 256.844 10.2188 257.055 10.6364C257.265 11.054 257.37 11.5199 257.37 12.0341C257.37 12.5483 257.265 13.0156 257.055 13.4361C256.847 13.8565 256.526 14.1918 256.092 14.4418C255.657 14.6889 255.1 14.8125 254.421 14.8125H252.308V13.875H254.387C254.856 13.875 255.232 13.794 255.516 13.6321C255.8 13.4702 256.006 13.2514 256.134 12.9759C256.265 12.6974 256.33 12.3835 256.33 12.0341C256.33 11.6847 256.265 11.3722 256.134 11.0966C256.006 10.821 255.799 10.6051 255.512 10.4489C255.225 10.2898 254.844 10.2102 254.37 10.2102H252.512V18H251.455ZM259.072 18V9.27273H264.339V10.2102H260.129V13.1591H264.067V14.0966H260.129V17.0625H264.408V18H259.072ZM273.165 9.27273V18H272.142L267.386 11.1477H267.301V18H266.244V9.27273H267.267L272.04 16.142H272.125V9.27273H273.165ZM275.637 18H274.529L277.734 9.27273H278.825L282.029 18H280.922L278.314 10.6534H278.245L275.637 18ZM276.047 14.5909H280.512V15.5284H276.047V14.5909ZM283.389 18V9.27273H284.446V17.0625H288.502V18H283.389ZM288.501 10.2102V9.27273H295.047V10.2102H292.303V18H291.246V10.2102H288.501ZM295.928 9.27273H297.138L299.559 13.3466H299.661L302.081 9.27273H303.292L300.138 14.4034V18H299.081V14.4034L295.928 9.27273Z" fill="black"/>
<path d="M570.75 341.119C570.108 341.119 569.561 340.945 569.109 340.595C568.658 340.243 568.313 339.733 568.074 339.065C567.835 338.395 567.716 337.585 567.716 336.636C567.716 335.693 567.835 334.888 568.074 334.22C568.315 333.55 568.662 333.038 569.114 332.686C569.568 332.331 570.114 332.153 570.75 332.153C571.386 332.153 571.93 332.331 572.382 332.686C572.837 333.038 573.183 333.55 573.422 334.22C573.663 334.888 573.784 335.693 573.784 336.636C573.784 337.585 573.665 338.395 573.426 339.065C573.188 339.733 572.842 340.243 572.391 340.595C571.939 340.945 571.392 341.119 570.75 341.119ZM570.75 340.182C571.386 340.182 571.881 339.875 572.233 339.261C572.585 338.648 572.761 337.773 572.761 336.636C572.761 335.881 572.68 335.237 572.518 334.706C572.359 334.175 572.129 333.77 571.828 333.491C571.53 333.213 571.17 333.074 570.75 333.074C570.119 333.074 569.626 333.385 569.271 334.007C568.916 334.626 568.739 335.503 568.739 336.636C568.739 337.392 568.818 338.034 568.977 338.562C569.136 339.091 569.365 339.493 569.663 339.768C569.964 340.044 570.327 340.182 570.75 340.182ZM579.852 339.364V338.903C579.852 338.585 579.918 338.294 580.048 338.03C580.182 337.763 580.375 337.55 580.628 337.391C580.884 337.229 581.193 337.148 581.557 337.148C581.926 337.148 582.236 337.229 582.486 337.391C582.736 337.55 582.925 337.763 583.053 338.03C583.18 338.294 583.244 338.585 583.244 338.903V339.364C583.244 339.682 583.179 339.974 583.048 340.241C582.92 340.506 582.73 340.719 582.477 340.881C582.227 341.04 581.92 341.119 581.557 341.119C581.188 341.119 580.876 341.04 580.624 340.881C580.371 340.719 580.179 340.506 580.048 340.241C579.918 339.974 579.852 339.682 579.852 339.364ZM580.722 338.903V339.364C580.722 339.628 580.784 339.865 580.909 340.075C581.034 340.283 581.25 340.386 581.557 340.386C581.855 340.386 582.065 340.283 582.188 340.075C582.312 339.865 582.375 339.628 582.375 339.364V338.903C582.375 338.639 582.315 338.403 582.196 338.196C582.077 337.986 581.864 337.881 581.557 337.881C581.259 337.881 581.044 337.986 580.913 338.196C580.786 338.403 580.722 338.639 580.722 338.903ZM575.506 334.369V333.909C575.506 333.591 575.571 333.3 575.702 333.036C575.835 332.768 576.028 332.555 576.281 332.396C576.537 332.234 576.847 332.153 577.21 332.153C577.58 332.153 577.889 332.234 578.139 332.396C578.389 332.555 578.578 332.768 578.706 333.036C578.834 333.3 578.898 333.591 578.898 333.909V334.369C578.898 334.687 578.832 334.98 578.702 335.247C578.574 335.511 578.384 335.724 578.131 335.886C577.881 336.045 577.574 336.125 577.21 336.125C576.841 336.125 576.53 336.045 576.277 335.886C576.024 335.724 575.832 335.511 575.702 335.247C575.571 334.98 575.506 334.687 575.506 334.369ZM576.375 333.909V334.369C576.375 334.634 576.438 334.871 576.562 335.081C576.688 335.288 576.903 335.392 577.21 335.392C577.509 335.392 577.719 335.288 577.841 335.081C577.966 334.871 578.028 334.634 578.028 334.369V333.909C578.028 333.645 577.969 333.409 577.849 333.202C577.73 332.991 577.517 332.886 577.21 332.886C576.912 332.886 576.697 332.991 576.567 333.202C576.439 333.409 576.375 333.645 576.375 333.909ZM575.83 341L581.83 332.273H582.801L576.801 341H575.83Z" fill="black"/>
<path d="M792.972 332.273V341H791.915V333.381H791.864L789.733 334.795V333.722L791.915 332.273H792.972ZM798.328 341.119C797.686 341.119 797.139 340.945 796.688 340.595C796.236 340.243 795.891 339.733 795.652 339.065C795.413 338.395 795.294 337.585 795.294 336.636C795.294 335.693 795.413 334.888 795.652 334.22C795.893 333.55 796.24 333.038 796.692 332.686C797.146 332.331 797.692 332.153 798.328 332.153C798.964 332.153 799.509 332.331 799.96 332.686C800.415 333.038 800.761 333.55 801 334.22C801.241 334.888 801.362 335.693 801.362 336.636C801.362 337.585 801.243 338.395 801.004 339.065C800.766 339.733 800.42 340.243 799.969 340.595C799.517 340.945 798.97 341.119 798.328 341.119ZM798.328 340.182C798.964 340.182 799.459 339.875 799.811 339.261C800.163 338.648 800.339 337.773 800.339 336.636C800.339 335.881 800.259 335.237 800.097 334.706C799.938 334.175 799.707 333.77 799.406 333.491C799.108 333.213 798.749 333.074 798.328 333.074C797.697 333.074 797.205 333.385 796.849 334.007C796.494 334.626 796.317 335.503 796.317 336.636C796.317 337.392 796.396 338.034 796.555 338.562C796.714 339.091 796.943 339.493 797.241 339.768C797.543 340.044 797.905 340.182 798.328 340.182ZM805.828 341.119C805.186 341.119 804.639 340.945 804.188 340.595C803.736 340.243 803.391 339.733 803.152 339.065C802.913 338.395 802.794 337.585 802.794 336.636C802.794 335.693 802.913 334.888 803.152 334.22C803.393 333.55 803.74 333.038 804.192 332.686C804.646 332.331 805.192 332.153 805.828 332.153C806.464 332.153 807.009 332.331 807.46 332.686C807.915 333.038 808.261 333.55 808.5 334.22C808.741 334.888 808.862 335.693 808.862 336.636C808.862 337.585 808.743 338.395 808.504 339.065C808.266 339.733 807.92 340.243 807.469 340.595C807.017 340.945 806.47 341.119 805.828 341.119ZM805.828 340.182C806.464 340.182 806.959 339.875 807.311 339.261C807.663 338.648 807.839 337.773 807.839 336.636C807.839 335.881 807.759 335.237 807.597 334.706C807.438 334.175 807.207 333.77 806.906 333.491C806.608 333.213 806.249 333.074 805.828 333.074C805.197 333.074 804.705 333.385 804.349 334.007C803.994 334.626 803.817 335.503 803.817 336.636C803.817 337.392 803.896 338.034 804.055 338.562C804.214 339.091 804.443 339.493 804.741 339.768C805.043 340.044 805.405 340.182 805.828 340.182ZM814.93 339.364V338.903C814.93 338.585 814.996 338.294 815.126 338.03C815.26 337.763 815.453 337.55 815.706 337.391C815.962 337.229 816.271 337.148 816.635 337.148C817.004 337.148 817.314 337.229 817.564 337.391C817.814 337.55 818.003 337.763 818.131 338.03C818.259 338.294 818.322 338.585 818.322 338.903V339.364C818.322 339.682 818.257 339.974 818.126 340.241C817.999 340.506 817.808 340.719 817.555 340.881C817.305 341.04 816.999 341.119 816.635 341.119C816.266 341.119 815.955 341.04 815.702 340.881C815.449 340.719 815.257 340.506 815.126 340.241C814.996 339.974 814.93 339.682 814.93 339.364ZM815.8 338.903V339.364C815.8 339.628 815.862 339.865 815.987 340.075C816.112 340.283 816.328 340.386 816.635 340.386C816.933 340.386 817.143 340.283 817.266 340.075C817.391 339.865 817.453 339.628 817.453 339.364V338.903C817.453 338.639 817.393 338.403 817.274 338.196C817.155 337.986 816.942 337.881 816.635 337.881C816.337 337.881 816.122 337.986 815.991 338.196C815.864 338.403 815.8 338.639 815.8 338.903ZM810.584 334.369V333.909C810.584 333.591 810.649 333.3 810.78 333.036C810.913 332.768 811.107 332.555 811.359 332.396C811.615 332.234 811.925 332.153 812.288 332.153C812.658 332.153 812.967 332.234 813.217 332.396C813.467 332.555 813.656 332.768 813.784 333.036C813.912 333.3 813.976 333.591 813.976 333.909V334.369C813.976 334.687 813.911 334.98 813.78 335.247C813.652 335.511 813.462 335.724 813.209 335.886C812.959 336.045 812.652 336.125 812.288 336.125C811.919 336.125 811.608 336.045 811.355 335.886C811.102 335.724 810.911 335.511 810.78 335.247C810.649 334.98 810.584 334.687 810.584 334.369ZM811.453 333.909V334.369C811.453 334.634 811.516 334.871 811.641 335.081C811.766 335.288 811.982 335.392 812.288 335.392C812.587 335.392 812.797 335.288 812.919 335.081C813.044 334.871 813.107 334.634 813.107 334.369V333.909C813.107 333.645 813.047 333.409 812.928 333.202C812.808 332.991 812.595 332.886 812.288 332.886C811.99 332.886 811.776 332.991 811.645 333.202C811.517 333.409 811.453 333.645 811.453 333.909ZM810.908 341L816.908 332.273H817.879L811.879 341H810.908Z" fill="black"/>
</g>
<defs>
<clipPath id="clip0_10181_14786">
<rect width="825" height="350" fill="white"/>
</clipPath>
</defs>
</svg>
