<svg width="825" height="350" viewBox="0 0 825 350" fill="none" xmlns="http://www.w3.org/2000/svg">
<g clip-path="url(#clip0_10181_14786)">
<g opacity="0.1">
<path d="M561 0H0V350H561V0Z" fill="#F6B81A"/>
<path d="M825 0H561V350H825V0Z" fill="#F9386D"/>
</g>
<path fill-rule="evenodd" clip-rule="evenodd" d="M561 0V350H0C216.171 297.693 361.472 238.75 435.903 173.172C510.334 107.594 552.033 49.8698 561 0Z" fill="#F6B81A"/>
<path fill-rule="evenodd" clip-rule="evenodd" d="M561 0V350H825C825 222 789.549 141 740.52 80.9999C691.491 20.9999 609.651 0 561 0Z" fill="#F9386D"/>
<path d="M7.05682 170V161.273H10.0057C10.6903 161.273 11.25 161.396 11.6847 161.643C12.1222 161.888 12.446 162.219 12.6562 162.636C12.8665 163.054 12.9716 163.52 12.9716 164.034C12.9716 164.548 12.8665 165.016 12.6562 165.436C12.4489 165.857 12.1278 166.192 11.6932 166.442C11.2585 166.689 10.7017 166.812 10.0227 166.812H7.90909V165.875H9.98864C10.4574 165.875 10.8338 165.794 11.1179 165.632C11.402 165.47 11.608 165.251 11.7358 164.976C11.8665 164.697 11.9318 164.384 11.9318 164.034C11.9318 163.685 11.8665 163.372 11.7358 163.097C11.608 162.821 11.4006 162.605 11.1136 162.449C10.8267 162.29 10.446 162.21 9.97159 162.21H8.11364V170H7.05682ZM14.674 170V161.273H17.6229C18.3047 161.273 18.8643 161.389 19.3018 161.622C19.7393 161.852 20.0632 162.169 20.2734 162.572C20.4837 162.976 20.5888 163.435 20.5888 163.949C20.5888 164.463 20.4837 164.919 20.2734 165.317C20.0632 165.714 19.7408 166.027 19.3061 166.254C18.8714 166.479 18.3161 166.591 17.6399 166.591H15.2536V165.636H17.6058C18.0717 165.636 18.4467 165.568 18.7308 165.432C19.0178 165.295 19.2251 165.102 19.353 164.852C19.4837 164.599 19.549 164.298 19.549 163.949C19.549 163.599 19.4837 163.294 19.353 163.033C19.2223 162.771 19.0135 162.57 18.7266 162.428C18.4396 162.283 18.0604 162.21 17.5888 162.21H15.7308V170H14.674ZM18.782 166.08L20.9297 170H19.7024L17.5888 166.08H18.782ZM29.7134 165.636C29.7134 166.557 29.5472 167.352 29.2148 168.023C28.8825 168.693 28.4265 169.21 27.8469 169.574C27.2674 169.938 26.6055 170.119 25.8612 170.119C25.1168 170.119 24.4549 169.938 23.8754 169.574C23.2958 169.21 22.8398 168.693 22.5075 168.023C22.1751 167.352 22.0089 166.557 22.0089 165.636C22.0089 164.716 22.1751 163.92 22.5075 163.25C22.8398 162.58 23.2958 162.062 23.8754 161.699C24.4549 161.335 25.1168 161.153 25.8612 161.153C26.6055 161.153 27.2674 161.335 27.8469 161.699C28.4265 162.062 28.8825 162.58 29.2148 163.25C29.5472 163.92 29.7134 164.716 29.7134 165.636ZM28.6907 165.636C28.6907 164.881 28.5643 164.243 28.3114 163.723C28.0614 163.203 27.7219 162.81 27.293 162.543C26.8668 162.276 26.3896 162.142 25.8612 162.142C25.3327 162.142 24.854 162.276 24.4251 162.543C23.9989 162.81 23.6594 163.203 23.4066 163.723C23.1566 164.243 23.0316 164.881 23.0316 165.636C23.0316 166.392 23.1566 167.03 23.4066 167.55C23.6594 168.07 23.9989 168.463 24.4251 168.73C24.854 168.997 25.3327 169.131 25.8612 169.131C26.3896 169.131 26.8668 168.997 27.293 168.73C27.7219 168.463 28.0614 168.07 28.3114 167.55C28.5643 167.03 28.6907 166.392 28.6907 165.636ZM31.4904 170V161.273H36.7234V162.21H32.5472V165.159H36.3313V166.097H32.5472V170H31.4904ZM39.5902 161.273V170H38.5334V161.273H39.5902ZM41.2319 162.21V161.273H47.7773V162.21H45.033V170H43.9762V162.21H41.2319ZM52.7834 170V161.273H53.8402V169.062H57.897V170H52.7834ZM60.5902 161.273V170H59.5334V161.273H60.5902ZM69.6296 161.273V170H68.6069L63.8512 163.148H63.766V170H62.7092V161.273H63.7319L68.5046 168.142H68.5898V161.273H69.6296ZM71.7443 170V161.273H77.0114V162.21H72.8011V165.159H76.7386V166.097H72.8011V169.062H77.0795V170H71.7443Z" fill="black"/>
<path d="M9.75 342.119C9.10795 342.119 8.56108 341.945 8.10938 341.595C7.65767 341.243 7.3125 340.733 7.07386 340.065C6.83523 339.395 6.71591 338.585 6.71591 337.636C6.71591 336.693 6.83523 335.888 7.07386 335.22C7.31534 334.55 7.66193 334.038 8.11364 333.686C8.56818 333.331 9.11364 333.153 9.75 333.153C10.3864 333.153 10.9304 333.331 11.3821 333.686C11.8366 334.038 12.1832 334.55 12.4219 335.22C12.6634 335.888 12.7841 336.693 12.7841 337.636C12.7841 338.585 12.6648 339.395 12.4261 340.065C12.1875 340.733 11.8423 341.243 11.3906 341.595C10.9389 341.945 10.392 342.119 9.75 342.119ZM9.75 341.182C10.3864 341.182 10.8807 340.875 11.233 340.261C11.5852 339.648 11.7614 338.773 11.7614 337.636C11.7614 336.881 11.6804 336.237 11.5185 335.706C11.3594 335.175 11.1293 334.77 10.8281 334.491C10.5298 334.213 10.1705 334.074 9.75 334.074C9.11932 334.074 8.62642 334.385 8.27131 335.007C7.91619 335.626 7.73864 336.503 7.73864 337.636C7.73864 338.392 7.81818 339.034 7.97727 339.562C8.13636 340.091 8.36506 340.493 8.66335 340.768C8.96449 341.044 9.3267 341.182 9.75 341.182ZM18.8523 340.364V339.903C18.8523 339.585 18.9176 339.294 19.0483 339.03C19.1818 338.763 19.375 338.55 19.6278 338.391C19.8835 338.229 20.1932 338.148 20.5568 338.148C20.9261 338.148 21.2358 338.229 21.4858 338.391C21.7358 338.55 21.9247 338.763 22.0526 339.03C22.1804 339.294 22.2443 339.585 22.2443 339.903V340.364C22.2443 340.682 22.179 340.974 22.0483 341.241C21.9205 341.506 21.7301 341.719 21.4773 341.881C21.2273 342.04 20.9205 342.119 20.5568 342.119C20.1875 342.119 19.8764 342.04 19.6236 341.881C19.3707 341.719 19.179 341.506 19.0483 341.241C18.9176 340.974 18.8523 340.682 18.8523 340.364ZM19.7216 339.903V340.364C19.7216 340.628 19.7841 340.865 19.9091 341.075C20.0341 341.283 20.25 341.386 20.5568 341.386C20.8551 341.386 21.0653 341.283 21.1875 341.075C21.3125 340.865 21.375 340.628 21.375 340.364V339.903C21.375 339.639 21.3153 339.403 21.196 339.196C21.0767 338.986 20.8636 338.881 20.5568 338.881C20.2585 338.881 20.044 338.986 19.9134 339.196C19.7855 339.403 19.7216 339.639 19.7216 339.903ZM14.5057 335.369V334.909C14.5057 334.591 14.571 334.3 14.7017 334.036C14.8352 333.768 15.0284 333.555 15.2812 333.396C15.5369 333.234 15.8466 333.153 16.2102 333.153C16.5795 333.153 16.8892 333.234 17.1392 333.396C17.3892 333.555 17.5781 333.768 17.706 334.036C17.8338 334.3 17.8977 334.591 17.8977 334.909V335.369C17.8977 335.687 17.8324 335.98 17.7017 336.247C17.5739 336.511 17.3835 336.724 17.1307 336.886C16.8807 337.045 16.5739 337.125 16.2102 337.125C15.8409 337.125 15.5298 337.045 15.277 336.886C15.0241 336.724 14.8324 336.511 14.7017 336.247C14.571 335.98 14.5057 335.687 14.5057 335.369ZM15.375 334.909V335.369C15.375 335.634 15.4375 335.871 15.5625 336.081C15.6875 336.288 15.9034 336.392 16.2102 336.392C16.5085 336.392 16.7188 336.288 16.8409 336.081C16.9659 335.871 17.0284 335.634 17.0284 335.369V334.909C17.0284 334.645 16.9688 334.409 16.8494 334.202C16.7301 333.991 16.517 333.886 16.2102 333.886C15.9119 333.886 15.6974 333.991 15.5668 334.202C15.4389 334.409 15.375 334.645 15.375 334.909ZM14.8295 342L20.8295 333.273H21.8011L15.8011 342H14.8295Z" fill="black"/>
<path d="M528.972 333.273V342H527.915V334.381H527.864L525.733 335.795V334.722L527.915 333.273H528.972ZM534.328 342.119C533.686 342.119 533.139 341.945 532.688 341.595C532.236 341.243 531.891 340.733 531.652 340.065C531.413 339.395 531.294 338.585 531.294 337.636C531.294 336.693 531.413 335.888 531.652 335.22C531.893 334.55 532.24 334.038 532.692 333.686C533.146 333.331 533.692 333.153 534.328 333.153C534.964 333.153 535.509 333.331 535.96 333.686C536.415 334.038 536.761 334.55 537 335.22C537.241 335.888 537.362 336.693 537.362 337.636C537.362 338.585 537.243 339.395 537.004 340.065C536.766 340.733 536.42 341.243 535.969 341.595C535.517 341.945 534.97 342.119 534.328 342.119ZM534.328 341.182C534.964 341.182 535.459 340.875 535.811 340.261C536.163 339.648 536.339 338.773 536.339 337.636C536.339 336.881 536.259 336.237 536.097 335.706C535.938 335.175 535.707 334.77 535.406 334.491C535.108 334.213 534.749 334.074 534.328 334.074C533.697 334.074 533.205 334.385 532.849 335.007C532.494 335.626 532.317 336.503 532.317 337.636C532.317 338.392 532.396 339.034 532.555 339.562C532.714 340.091 532.943 340.493 533.241 340.768C533.543 341.044 533.905 341.182 534.328 341.182ZM541.828 342.119C541.186 342.119 540.639 341.945 540.188 341.595C539.736 341.243 539.391 340.733 539.152 340.065C538.913 339.395 538.794 338.585 538.794 337.636C538.794 336.693 538.913 335.888 539.152 335.22C539.393 334.55 539.74 334.038 540.192 333.686C540.646 333.331 541.192 333.153 541.828 333.153C542.464 333.153 543.009 333.331 543.46 333.686C543.915 334.038 544.261 334.55 544.5 335.22C544.741 335.888 544.862 336.693 544.862 337.636C544.862 338.585 544.743 339.395 544.504 340.065C544.266 340.733 543.92 341.243 543.469 341.595C543.017 341.945 542.47 342.119 541.828 342.119ZM541.828 341.182C542.464 341.182 542.959 340.875 543.311 340.261C543.663 339.648 543.839 338.773 543.839 337.636C543.839 336.881 543.759 336.237 543.597 335.706C543.438 335.175 543.207 334.77 542.906 334.491C542.608 334.213 542.249 334.074 541.828 334.074C541.197 334.074 540.705 334.385 540.349 335.007C539.994 335.626 539.817 336.503 539.817 337.636C539.817 338.392 539.896 339.034 540.055 339.562C540.214 340.091 540.443 340.493 540.741 340.768C541.043 341.044 541.405 341.182 541.828 341.182ZM550.93 340.364V339.903C550.93 339.585 550.996 339.294 551.126 339.03C551.26 338.763 551.453 338.55 551.706 338.391C551.962 338.229 552.271 338.148 552.635 338.148C553.004 338.148 553.314 338.229 553.564 338.391C553.814 338.55 554.003 338.763 554.131 339.03C554.259 339.294 554.322 339.585 554.322 339.903V340.364C554.322 340.682 554.257 340.974 554.126 341.241C553.999 341.506 553.808 341.719 553.555 341.881C553.305 342.04 552.999 342.119 552.635 342.119C552.266 342.119 551.955 342.04 551.702 341.881C551.449 341.719 551.257 341.506 551.126 341.241C550.996 340.974 550.93 340.682 550.93 340.364ZM551.8 339.903V340.364C551.8 340.628 551.862 340.865 551.987 341.075C552.112 341.283 552.328 341.386 552.635 341.386C552.933 341.386 553.143 341.283 553.266 341.075C553.391 340.865 553.453 340.628 553.453 340.364V339.903C553.453 339.639 553.393 339.403 553.274 339.196C553.155 338.986 552.942 338.881 552.635 338.881C552.337 338.881 552.122 338.986 551.991 339.196C551.864 339.403 551.8 339.639 551.8 339.903ZM546.584 335.369V334.909C546.584 334.591 546.649 334.3 546.78 334.036C546.913 333.768 547.107 333.555 547.359 333.396C547.615 333.234 547.925 333.153 548.288 333.153C548.658 333.153 548.967 333.234 549.217 333.396C549.467 333.555 549.656 333.768 549.784 334.036C549.912 334.3 549.976 334.591 549.976 334.909V335.369C549.976 335.687 549.911 335.98 549.78 336.247C549.652 336.511 549.462 336.724 549.209 336.886C548.959 337.045 548.652 337.125 548.288 337.125C547.919 337.125 547.608 337.045 547.355 336.886C547.102 336.724 546.911 336.511 546.78 336.247C546.649 335.98 546.584 335.687 546.584 335.369ZM547.453 334.909V335.369C547.453 335.634 547.516 335.871 547.641 336.081C547.766 336.288 547.982 336.392 548.288 336.392C548.587 336.392 548.797 336.288 548.919 336.081C549.044 335.871 549.107 335.634 549.107 335.369V334.909C549.107 334.645 549.047 334.409 548.928 334.202C548.808 333.991 548.595 333.886 548.288 333.886C547.99 333.886 547.776 333.991 547.645 334.202C547.517 334.409 547.453 334.645 547.453 334.909ZM546.908 342L552.908 333.273H553.879L547.879 342H546.908Z" fill="black"/>
<path d="M280.072 342V333.273H283.021C283.703 333.273 284.263 333.389 284.7 333.622C285.138 333.852 285.462 334.169 285.672 334.572C285.882 334.976 285.987 335.435 285.987 335.949C285.987 336.463 285.882 336.919 285.672 337.317C285.462 337.714 285.139 338.027 284.705 338.254C284.27 338.479 283.714 338.591 283.038 338.591H280.652V337.636H283.004C283.47 337.636 283.845 337.568 284.129 337.432C284.416 337.295 284.624 337.102 284.751 336.852C284.882 336.599 284.947 336.298 284.947 335.949C284.947 335.599 284.882 335.294 284.751 335.033C284.621 334.771 284.412 334.57 284.125 334.428C283.838 334.283 283.459 334.21 282.987 334.21H281.129V342H280.072ZM284.18 338.08L286.328 342H285.101L282.987 338.08H284.18ZM287.748 342V333.273H293.015V334.21H288.805V337.159H292.743V338.097H288.805V341.062H293.083V342H287.748ZM296.505 342L294.119 333.273H295.193L297.017 340.381H297.102L298.96 333.273H300.153L302.011 340.381H302.096L303.92 333.273H304.994L302.608 342H301.517L299.591 335.045H299.522L297.596 342H296.505ZM305.989 342H304.881L308.086 333.273H309.176L312.381 342H311.273L308.665 334.653H308.597L305.989 342ZM306.398 338.591H310.864V339.528H306.398V338.591ZM313.74 342V333.273H316.689C317.371 333.273 317.931 333.389 318.368 333.622C318.806 333.852 319.13 334.169 319.34 334.572C319.55 334.976 319.655 335.435 319.655 335.949C319.655 336.463 319.55 336.919 319.34 337.317C319.13 337.714 318.807 338.027 318.373 338.254C317.938 338.479 317.382 338.591 316.706 338.591H314.32V337.636H316.672C317.138 337.636 317.513 337.568 317.797 337.432C318.084 337.295 318.292 337.102 318.419 336.852C318.55 336.599 318.615 336.298 318.615 335.949C318.615 335.599 318.55 335.294 318.419 335.033C318.289 334.771 318.08 334.57 317.793 334.428C317.506 334.283 317.127 334.21 316.655 334.21H314.797V342H313.74ZM317.848 338.08L319.996 342H318.769L316.655 338.08H317.848ZM324.109 342H321.416V333.273H324.229C325.075 333.273 325.8 333.447 326.402 333.797C327.004 334.143 327.466 334.642 327.787 335.293C328.108 335.94 328.268 336.716 328.268 337.619C328.268 338.528 328.107 339.311 327.783 339.967C327.459 340.621 326.987 341.124 326.368 341.476C325.749 341.825 324.996 342 324.109 342ZM322.473 341.062H324.041C324.763 341.062 325.361 340.923 325.835 340.645C326.31 340.366 326.663 339.97 326.896 339.456C327.129 338.942 327.246 338.33 327.246 337.619C327.246 336.915 327.131 336.308 326.901 335.8C326.67 335.288 326.327 334.896 325.869 334.624C325.412 334.348 324.842 334.21 324.161 334.21H322.473V341.062Z" fill="black"/>
<path d="M673.057 342V333.273H676.006C676.688 333.273 677.247 333.389 677.685 333.622C678.122 333.852 678.446 334.169 678.656 334.572C678.866 334.976 678.972 335.435 678.972 335.949C678.972 336.463 678.866 336.919 678.656 337.317C678.446 337.714 678.124 338.027 677.689 338.254C677.254 338.479 676.699 338.591 676.023 338.591H673.636V337.636H675.989C676.455 337.636 676.83 337.568 677.114 337.432C677.401 337.295 677.608 337.102 677.736 336.852C677.866 336.599 677.932 336.298 677.932 335.949C677.932 335.599 677.866 335.294 677.736 335.033C677.605 334.771 677.396 334.57 677.109 334.428C676.822 334.283 676.443 334.21 675.972 334.21H674.114V342H673.057ZM677.165 338.08L679.312 342H678.085L675.972 338.08H677.165ZM680.733 342V333.273H686V334.21H681.789V337.159H685.727V338.097H681.789V341.062H686.068V342H680.733ZM689.49 342L687.103 333.273H688.177L690.001 340.381H690.086L691.944 333.273H693.137L694.995 340.381H695.081L696.904 333.273H697.978L695.592 342H694.501L692.575 335.045H692.507L690.581 342H689.49ZM698.973 342H697.865L701.07 333.273H702.161L705.365 342H704.257L701.65 334.653H701.581L698.973 342ZM699.382 338.591H703.848V339.528H699.382V338.591ZM706.725 342V333.273H709.674C710.355 333.273 710.915 333.389 711.353 333.622C711.79 333.852 712.114 334.169 712.324 334.572C712.534 334.976 712.64 335.435 712.64 335.949C712.64 336.463 712.534 336.919 712.324 337.317C712.114 337.714 711.792 338.027 711.357 338.254C710.922 338.479 710.367 338.591 709.691 338.591H707.304V337.636H709.657C710.123 337.636 710.498 337.568 710.782 337.432C711.069 337.295 711.276 337.102 711.404 336.852C711.534 336.599 711.6 336.298 711.6 335.949C711.6 335.599 711.534 335.294 711.404 335.033C711.273 334.771 711.064 334.57 710.777 334.428C710.49 334.283 710.111 334.21 709.64 334.21H707.782V342H706.725ZM710.833 338.08L712.98 342H711.753L709.64 338.08H710.833ZM717.094 342H714.401V333.273H717.213C718.06 333.273 718.784 333.447 719.386 333.797C719.989 334.143 720.45 334.642 720.771 335.293C721.092 335.94 721.253 336.716 721.253 337.619C721.253 338.528 721.091 339.311 720.767 339.967C720.443 340.621 719.972 341.124 719.352 341.476C718.733 341.825 717.98 342 717.094 342ZM715.457 341.062H717.026C717.747 341.062 718.345 340.923 718.82 340.645C719.294 340.366 719.648 339.97 719.881 339.456C720.114 338.942 720.23 338.33 720.23 337.619C720.23 336.915 720.115 336.308 719.885 335.8C719.655 335.288 719.311 334.896 718.854 334.624C718.396 334.348 717.827 334.21 717.145 334.21H715.457V341.062Z" fill="black"/>
<path d="M671.455 16V7.27273H674.404C675.089 7.27273 675.648 7.39631 676.083 7.64347C676.521 7.88778 676.844 8.21875 677.055 8.63636C677.265 9.05398 677.37 9.51989 677.37 10.0341C677.37 10.5483 677.265 11.0156 677.055 11.4361C676.847 11.8565 676.526 12.1918 676.092 12.4418C675.657 12.6889 675.1 12.8125 674.421 12.8125H672.308V11.875H674.387C674.856 11.875 675.232 11.794 675.516 11.6321C675.8 11.4702 676.006 11.2514 676.134 10.9759C676.265 10.6974 676.33 10.3835 676.33 10.0341C676.33 9.68466 676.265 9.37216 676.134 9.09659C676.006 8.82102 675.799 8.60511 675.512 8.44886C675.225 8.28977 674.844 8.21023 674.37 8.21023H672.512V16H671.455ZM679.072 16V7.27273H684.339V8.21023H680.129V11.1591H684.067V12.0966H680.129V15.0625H684.408V16H679.072ZM693.165 7.27273V16H692.142L687.386 9.14773H687.301V16H686.244V7.27273H687.267L692.04 14.142H692.125V7.27273H693.165ZM695.637 16H694.529L697.734 7.27273H698.825L702.029 16H700.922L698.314 8.65341H698.245L695.637 16ZM696.047 12.5909H700.512V13.5284H696.047V12.5909ZM703.389 16V7.27273H704.446V15.0625H708.502V16H703.389ZM708.501 8.21023V7.27273H715.047V8.21023H712.303V16H711.246V8.21023H708.501ZM715.928 7.27273H717.138L719.559 11.3466H719.661L722.081 7.27273H723.292L720.138 12.4034V16H719.081V12.4034L715.928 7.27273Z" fill="black"/>
<path d="M278.455 16V7.27273H281.404C282.089 7.27273 282.648 7.39631 283.083 7.64347C283.521 7.88778 283.844 8.21875 284.055 8.63636C284.265 9.05398 284.37 9.51989 284.37 10.0341C284.37 10.5483 284.265 11.0156 284.055 11.4361C283.847 11.8565 283.526 12.1918 283.092 12.4418C282.657 12.6889 282.1 12.8125 281.421 12.8125H279.308V11.875H281.387C281.856 11.875 282.232 11.794 282.516 11.6321C282.8 11.4702 283.006 11.2514 283.134 10.9759C283.265 10.6974 283.33 10.3835 283.33 10.0341C283.33 9.68466 283.265 9.37216 283.134 9.09659C283.006 8.82102 282.799 8.60511 282.512 8.44886C282.225 8.28977 281.844 8.21023 281.37 8.21023H279.512V16H278.455ZM286.072 16V7.27273H291.339V8.21023H287.129V11.1591H291.067V12.0966H287.129V15.0625H291.408V16H286.072ZM300.165 7.27273V16H299.142L294.386 9.14773H294.301V16H293.244V7.27273H294.267L299.04 14.142H299.125V7.27273H300.165ZM302.637 16H301.529L304.734 7.27273H305.825L309.029 16H307.922L305.314 8.65341H305.245L302.637 16ZM303.047 12.5909H307.512V13.5284H303.047V12.5909ZM310.389 16V7.27273H311.446V15.0625H315.502V16H310.389ZM315.501 8.21023V7.27273H322.047V8.21023H319.303V16H318.246V8.21023H315.501ZM322.928 7.27273H324.138L326.559 11.3466H326.661L329.081 7.27273H330.292L327.138 12.4034V16H326.081V12.4034L322.928 7.27273Z" fill="black"/>
<path d="M572.75 342.119C572.108 342.119 571.561 341.945 571.109 341.595C570.658 341.243 570.313 340.733 570.074 340.065C569.835 339.395 569.716 338.585 569.716 337.636C569.716 336.693 569.835 335.888 570.074 335.22C570.315 334.55 570.662 334.038 571.114 333.686C571.568 333.331 572.114 333.153 572.75 333.153C573.386 333.153 573.93 333.331 574.382 333.686C574.837 334.038 575.183 334.55 575.422 335.22C575.663 335.888 575.784 336.693 575.784 337.636C575.784 338.585 575.665 339.395 575.426 340.065C575.188 340.733 574.842 341.243 574.391 341.595C573.939 341.945 573.392 342.119 572.75 342.119ZM572.75 341.182C573.386 341.182 573.881 340.875 574.233 340.261C574.585 339.648 574.761 338.773 574.761 337.636C574.761 336.881 574.68 336.237 574.518 335.706C574.359 335.175 574.129 334.77 573.828 334.491C573.53 334.213 573.17 334.074 572.75 334.074C572.119 334.074 571.626 334.385 571.271 335.007C570.916 335.626 570.739 336.503 570.739 337.636C570.739 338.392 570.818 339.034 570.977 339.562C571.136 340.091 571.365 340.493 571.663 340.768C571.964 341.044 572.327 341.182 572.75 341.182ZM583.267 342.136C582.722 342.136 582.24 341.999 581.822 341.723C581.405 341.445 581.078 341.053 580.842 340.547C580.607 340.038 580.489 339.438 580.489 338.744C580.489 338.057 580.607 337.46 580.842 336.955C581.078 336.449 581.406 336.058 581.827 335.783C582.247 335.507 582.733 335.369 583.284 335.369C583.71 335.369 584.047 335.44 584.294 335.582C584.544 335.722 584.734 335.881 584.865 336.06C584.999 336.236 585.102 336.381 585.176 336.494H585.261V333.273H586.267V342H585.295V340.994H585.176C585.102 341.114 584.997 341.264 584.861 341.446C584.724 341.625 584.53 341.786 584.277 341.928C584.024 342.067 583.688 342.136 583.267 342.136ZM583.403 341.233C583.807 341.233 584.148 341.128 584.426 340.918C584.705 340.705 584.916 340.411 585.061 340.036C585.206 339.658 585.278 339.222 585.278 338.727C585.278 338.239 585.207 337.811 585.065 337.445C584.923 337.075 584.713 336.788 584.435 336.584C584.156 336.376 583.813 336.273 583.403 336.273C582.977 336.273 582.622 336.382 582.338 336.601C582.057 336.817 581.845 337.111 581.703 337.483C581.564 337.852 581.494 338.267 581.494 338.727C581.494 339.193 581.565 339.616 581.707 339.997C581.852 340.375 582.065 340.676 582.347 340.901C582.631 341.122 582.983 341.233 583.403 341.233ZM590.175 342.153C589.76 342.153 589.384 342.075 589.045 341.919C588.707 341.76 588.439 341.531 588.24 341.233C588.041 340.932 587.942 340.568 587.942 340.142C587.942 339.767 588.016 339.463 588.163 339.23C588.311 338.994 588.509 338.81 588.756 338.676C589.003 338.543 589.276 338.443 589.574 338.378C589.875 338.31 590.178 338.256 590.482 338.216C590.879 338.165 591.202 338.126 591.449 338.101C591.699 338.072 591.881 338.026 591.994 337.96C592.111 337.895 592.169 337.781 592.169 337.619V337.585C592.169 337.165 592.054 336.838 591.824 336.605C591.597 336.372 591.251 336.256 590.788 336.256C590.308 336.256 589.932 336.361 589.659 336.571C589.386 336.781 589.195 337.006 589.084 337.244L588.129 336.903C588.3 336.506 588.527 336.196 588.811 335.974C589.098 335.75 589.411 335.594 589.749 335.506C590.089 335.415 590.425 335.369 590.754 335.369C590.964 335.369 591.206 335.395 591.479 335.446C591.754 335.494 592.02 335.595 592.276 335.749C592.534 335.902 592.749 336.134 592.919 336.443C593.089 336.753 593.175 337.168 593.175 337.688V342H592.169V341.114H592.118C592.05 341.256 591.936 341.408 591.777 341.57C591.618 341.732 591.406 341.869 591.142 341.983C590.878 342.097 590.555 342.153 590.175 342.153ZM590.328 341.25C590.726 341.25 591.061 341.172 591.334 341.016C591.609 340.859 591.817 340.658 591.956 340.411C592.098 340.163 592.169 339.903 592.169 339.631V338.71C592.126 338.761 592.033 338.808 591.888 338.851C591.746 338.891 591.581 338.926 591.393 338.957C591.209 338.986 591.028 339.011 590.852 339.034C590.679 339.054 590.538 339.071 590.43 339.085C590.169 339.119 589.925 339.175 589.697 339.251C589.473 339.325 589.291 339.437 589.152 339.588C589.016 339.736 588.947 339.937 588.947 340.193C588.947 340.543 589.077 340.807 589.335 340.986C589.597 341.162 589.928 341.25 590.328 341.25ZM595.424 344.455C595.253 344.455 595.101 344.44 594.968 344.412C594.834 344.386 594.742 344.361 594.691 344.335L594.946 343.449C595.191 343.511 595.407 343.534 595.594 343.517C595.782 343.5 595.948 343.416 596.093 343.266C596.24 343.118 596.375 342.878 596.498 342.545L596.685 342.034L594.265 335.455H595.355L597.162 340.67H597.23L599.037 335.455H600.128L597.35 342.955C597.225 343.293 597.07 343.572 596.885 343.794C596.701 344.018 596.486 344.185 596.242 344.293C596 344.401 595.728 344.455 595.424 344.455ZM606.092 336.92L605.189 337.176C605.132 337.026 605.048 336.879 604.937 336.737C604.829 336.592 604.681 336.473 604.494 336.379C604.306 336.286 604.066 336.239 603.774 336.239C603.373 336.239 603.039 336.331 602.772 336.516C602.508 336.697 602.376 336.929 602.376 337.21C602.376 337.46 602.467 337.658 602.649 337.803C602.831 337.947 603.115 338.068 603.501 338.165L604.473 338.403C605.058 338.545 605.494 338.763 605.781 339.055C606.068 339.345 606.211 339.719 606.211 340.176C606.211 340.551 606.103 340.886 605.887 341.182C605.674 341.477 605.376 341.71 604.993 341.881C604.609 342.051 604.163 342.136 603.654 342.136C602.987 342.136 602.434 341.991 601.997 341.702C601.559 341.412 601.282 340.989 601.166 340.432L602.12 340.193C602.211 340.545 602.383 340.81 602.636 340.986C602.892 341.162 603.225 341.25 603.637 341.25C604.106 341.25 604.478 341.151 604.754 340.952C605.032 340.75 605.172 340.509 605.172 340.227C605.172 340 605.092 339.81 604.933 339.656C604.774 339.5 604.529 339.384 604.2 339.307L603.109 339.051C602.51 338.909 602.069 338.689 601.788 338.391C601.51 338.089 601.37 337.713 601.37 337.261C601.37 336.892 601.474 336.565 601.681 336.281C601.892 335.997 602.177 335.774 602.538 335.612C602.902 335.45 603.314 335.369 603.774 335.369C604.422 335.369 604.93 335.511 605.299 335.795C605.672 336.08 605.936 336.455 606.092 336.92Z" fill="black"/>
<path d="M770.972 333.273V342H769.915V334.381H769.864L767.733 335.795V334.722L769.915 333.273H770.972ZM776.277 342.119C775.692 342.119 775.175 342.016 774.726 341.808C774.28 341.598 773.932 341.31 773.682 340.943C773.432 340.574 773.308 340.153 773.311 339.682C773.308 339.312 773.381 338.972 773.528 338.659C773.676 338.344 773.878 338.081 774.134 337.871C774.392 337.658 774.68 337.523 774.999 337.466V337.415C774.581 337.307 774.249 337.072 774.001 336.712C773.754 336.348 773.632 335.935 773.635 335.472C773.632 335.028 773.744 334.632 773.972 334.283C774.199 333.933 774.511 333.658 774.909 333.456C775.31 333.254 775.766 333.153 776.277 333.153C776.783 333.153 777.234 333.254 777.632 333.456C778.03 333.658 778.342 333.933 778.57 334.283C778.8 334.632 778.916 335.028 778.919 335.472C778.916 335.935 778.79 336.348 778.54 336.712C778.293 337.072 777.964 337.307 777.555 337.415V337.466C777.871 337.523 778.155 337.658 778.408 337.871C778.661 338.081 778.862 338.344 779.013 338.659C779.163 338.972 779.24 339.312 779.243 339.682C779.24 340.153 779.112 340.574 778.859 340.943C778.609 341.31 778.261 341.598 777.815 341.808C777.372 342.016 776.859 342.119 776.277 342.119ZM776.277 341.182C776.672 341.182 777.013 341.118 777.3 340.99C777.587 340.862 777.808 340.682 777.964 340.449C778.121 340.216 778.2 339.943 778.203 339.631C778.2 339.301 778.115 339.01 777.947 338.757C777.78 338.504 777.551 338.305 777.261 338.161C776.974 338.016 776.646 337.943 776.277 337.943C775.905 337.943 775.572 338.016 775.28 338.161C774.99 338.305 774.761 338.504 774.594 338.757C774.429 339.01 774.348 339.301 774.351 339.631C774.348 339.943 774.423 340.216 774.577 340.449C774.733 340.682 774.956 340.862 775.246 340.99C775.536 341.118 775.879 341.182 776.277 341.182ZM776.277 337.04C776.589 337.04 776.866 336.977 777.108 336.852C777.352 336.727 777.544 336.553 777.683 336.328C777.822 336.104 777.893 335.841 777.896 335.54C777.893 335.244 777.824 334.987 777.688 334.768C777.551 334.547 777.362 334.376 777.121 334.257C776.879 334.135 776.598 334.074 776.277 334.074C775.95 334.074 775.665 334.135 775.42 334.257C775.176 334.376 774.987 334.547 774.854 334.768C774.72 334.987 774.655 335.244 774.658 335.54C774.655 335.841 774.722 336.104 774.858 336.328C774.997 336.553 775.189 336.727 775.433 336.852C775.678 336.977 775.959 337.04 776.277 337.04ZM783.723 342.119C783.081 342.119 782.534 341.945 782.082 341.595C781.63 341.243 781.285 340.733 781.047 340.065C780.808 339.395 780.689 338.585 780.689 337.636C780.689 336.693 780.808 335.888 781.047 335.22C781.288 334.55 781.635 334.038 782.086 333.686C782.541 333.331 783.086 333.153 783.723 333.153C784.359 333.153 784.903 333.331 785.355 333.686C785.809 334.038 786.156 334.55 786.395 335.22C786.636 335.888 786.757 336.693 786.757 337.636C786.757 338.585 786.637 339.395 786.399 340.065C786.16 340.733 785.815 341.243 785.363 341.595C784.912 341.945 784.365 342.119 783.723 342.119ZM783.723 341.182C784.359 341.182 784.853 340.875 785.206 340.261C785.558 339.648 785.734 338.773 785.734 337.636C785.734 336.881 785.653 336.237 785.491 335.706C785.332 335.175 785.102 334.77 784.801 334.491C784.502 334.213 784.143 334.074 783.723 334.074C783.092 334.074 782.599 334.385 782.244 335.007C781.889 335.626 781.711 336.503 781.711 337.636C781.711 338.392 781.791 339.034 781.95 339.562C782.109 340.091 782.338 340.493 782.636 340.768C782.937 341.044 783.299 341.182 783.723 341.182ZM794.24 342.136C793.694 342.136 793.213 341.999 792.795 341.723C792.377 341.445 792.051 341.053 791.815 340.547C791.579 340.038 791.461 339.438 791.461 338.744C791.461 338.057 791.579 337.46 791.815 336.955C792.051 336.449 792.379 336.058 792.799 335.783C793.22 335.507 793.706 335.369 794.257 335.369C794.683 335.369 795.02 335.44 795.267 335.582C795.517 335.722 795.707 335.881 795.838 336.06C795.971 336.236 796.075 336.381 796.149 336.494H796.234V333.273H797.24V342H796.268V340.994H796.149C796.075 341.114 795.97 341.264 795.833 341.446C795.697 341.625 795.502 341.786 795.25 341.928C794.997 342.067 794.66 342.136 794.24 342.136ZM794.376 341.233C794.779 341.233 795.12 341.128 795.399 340.918C795.677 340.705 795.889 340.411 796.034 340.036C796.179 339.658 796.251 339.222 796.251 338.727C796.251 338.239 796.18 337.811 796.038 337.445C795.896 337.075 795.686 336.788 795.407 336.584C795.129 336.376 794.785 336.273 794.376 336.273C793.95 336.273 793.595 336.382 793.311 336.601C793.029 336.817 792.818 337.111 792.676 337.483C792.537 337.852 792.467 338.267 792.467 338.727C792.467 339.193 792.538 339.616 792.68 339.997C792.825 340.375 793.038 340.676 793.319 340.901C793.603 341.122 793.956 341.233 794.376 341.233ZM801.147 342.153C800.733 342.153 800.356 342.075 800.018 341.919C799.68 341.76 799.412 341.531 799.213 341.233C799.014 340.932 798.914 340.568 798.914 340.142C798.914 339.767 798.988 339.463 799.136 339.23C799.284 338.994 799.481 338.81 799.728 338.676C799.975 338.543 800.248 338.443 800.547 338.378C800.848 338.31 801.15 338.256 801.454 338.216C801.852 338.165 802.174 338.126 802.422 338.101C802.672 338.072 802.853 338.026 802.967 337.96C803.083 337.895 803.142 337.781 803.142 337.619V337.585C803.142 337.165 803.027 336.838 802.797 336.605C802.569 336.372 802.224 336.256 801.761 336.256C801.281 336.256 800.904 336.361 800.632 336.571C800.359 336.781 800.167 337.006 800.056 337.244L799.102 336.903C799.272 336.506 799.5 336.196 799.784 335.974C800.071 335.75 800.383 335.594 800.721 335.506C801.062 335.415 801.397 335.369 801.727 335.369C801.937 335.369 802.179 335.395 802.451 335.446C802.727 335.494 802.993 335.595 803.248 335.749C803.507 335.902 803.721 336.134 803.892 336.443C804.062 336.753 804.147 337.168 804.147 337.688V342H803.142V341.114H803.091C803.022 341.256 802.909 341.408 802.75 341.57C802.591 341.732 802.379 341.869 802.115 341.983C801.85 342.097 801.528 342.153 801.147 342.153ZM801.301 341.25C801.699 341.25 802.034 341.172 802.306 341.016C802.582 340.859 802.789 340.658 802.929 340.411C803.071 340.163 803.142 339.903 803.142 339.631V338.71C803.099 338.761 803.005 338.808 802.86 338.851C802.718 338.891 802.554 338.926 802.366 338.957C802.181 338.986 802.001 339.011 801.825 339.034C801.652 339.054 801.511 339.071 801.403 339.085C801.142 339.119 800.897 339.175 800.67 339.251C800.446 339.325 800.264 339.437 800.125 339.588C799.988 339.736 799.92 339.937 799.92 340.193C799.92 340.543 800.049 340.807 800.308 340.986C800.569 341.162 800.9 341.25 801.301 341.25ZM806.396 344.455C806.226 344.455 806.074 344.44 805.94 344.412C805.807 344.386 805.714 344.361 805.663 344.335L805.919 343.449C806.163 343.511 806.379 343.534 806.567 343.517C806.754 343.5 806.92 343.416 807.065 343.266C807.213 343.118 807.348 342.878 807.47 342.545L807.658 342.034L805.237 335.455H806.328L808.135 340.67H808.203L810.01 335.455H811.101L808.322 342.955C808.197 343.293 808.043 343.572 807.858 343.794C807.673 344.018 807.459 344.185 807.214 344.293C806.973 344.401 806.7 344.455 806.396 344.455ZM817.065 336.92L816.161 337.176C816.104 337.026 816.021 336.879 815.91 336.737C815.802 336.592 815.654 336.473 815.467 336.379C815.279 336.286 815.039 336.239 814.746 336.239C814.346 336.239 814.012 336.331 813.745 336.516C813.481 336.697 813.349 336.929 813.349 337.21C813.349 337.46 813.44 337.658 813.621 337.803C813.803 337.947 814.087 338.068 814.474 338.165L815.445 338.403C816.031 338.545 816.467 338.763 816.754 339.055C817.04 339.345 817.184 339.719 817.184 340.176C817.184 340.551 817.076 340.886 816.86 341.182C816.647 341.477 816.349 341.71 815.965 341.881C815.582 342.051 815.136 342.136 814.627 342.136C813.96 342.136 813.407 341.991 812.969 341.702C812.532 341.412 812.255 340.989 812.138 340.432L813.093 340.193C813.184 340.545 813.356 340.81 813.609 340.986C813.864 341.162 814.198 341.25 814.61 341.25C815.079 341.25 815.451 341.151 815.727 340.952C816.005 340.75 816.144 340.509 816.144 340.227C816.144 340 816.065 339.81 815.906 339.656C815.746 339.5 815.502 339.384 815.173 339.307L814.082 339.051C813.482 338.909 813.042 338.689 812.761 338.391C812.482 338.089 812.343 337.713 812.343 337.261C812.343 336.892 812.447 336.565 812.654 336.281C812.864 335.997 813.15 335.774 813.511 335.612C813.874 335.45 814.286 335.369 814.746 335.369C815.394 335.369 815.903 335.511 816.272 335.795C816.644 336.08 816.908 336.455 817.065 336.92Z" fill="black"/>
<path d="M427.176 170L431.08 162.278V162.21H426.58V161.273H432.17V162.261L428.284 170H427.176ZM436.827 161.273V170H435.77V162.381H435.719L433.588 163.795V162.722L435.77 161.273H436.827ZM443.786 168.364V167.903C443.786 167.585 443.851 167.294 443.982 167.03C444.115 166.763 444.309 166.55 444.561 166.391C444.817 166.229 445.127 166.148 445.49 166.148C445.86 166.148 446.169 166.229 446.419 166.391C446.669 166.55 446.858 166.763 446.986 167.03C447.114 167.294 447.178 167.585 447.178 167.903V168.364C447.178 168.682 447.113 168.974 446.982 169.241C446.854 169.506 446.664 169.719 446.411 169.881C446.161 170.04 445.854 170.119 445.49 170.119C445.121 170.119 444.81 170.04 444.557 169.881C444.304 169.719 444.113 169.506 443.982 169.241C443.851 168.974 443.786 168.682 443.786 168.364ZM444.655 167.903V168.364C444.655 168.628 444.718 168.865 444.843 169.075C444.968 169.283 445.184 169.386 445.49 169.386C445.789 169.386 445.999 169.283 446.121 169.075C446.246 168.865 446.309 168.628 446.309 168.364V167.903C446.309 167.639 446.249 167.403 446.13 167.196C446.01 166.986 445.797 166.881 445.49 166.881C445.192 166.881 444.978 166.986 444.847 167.196C444.719 167.403 444.655 167.639 444.655 167.903ZM439.439 163.369V162.909C439.439 162.591 439.505 162.3 439.635 162.036C439.769 161.768 439.962 161.555 440.215 161.396C440.471 161.234 440.78 161.153 441.144 161.153C441.513 161.153 441.823 161.234 442.073 161.396C442.323 161.555 442.512 161.768 442.64 162.036C442.767 162.3 442.831 162.591 442.831 162.909V163.369C442.831 163.687 442.766 163.98 442.635 164.247C442.507 164.511 442.317 164.724 442.064 164.886C441.814 165.045 441.507 165.125 441.144 165.125C440.775 165.125 440.463 165.045 440.211 164.886C439.958 164.724 439.766 164.511 439.635 164.247C439.505 163.98 439.439 163.687 439.439 163.369ZM440.309 162.909V163.369C440.309 163.634 440.371 163.871 440.496 164.081C440.621 164.288 440.837 164.392 441.144 164.392C441.442 164.392 441.652 164.288 441.775 164.081C441.9 163.871 441.962 163.634 441.962 163.369V162.909C441.962 162.645 441.902 162.409 441.783 162.202C441.664 161.991 441.451 161.886 441.144 161.886C440.846 161.886 440.631 161.991 440.5 162.202C440.373 162.409 440.309 162.645 440.309 162.909ZM439.763 170L445.763 161.273H446.735L440.735 170H439.763Z" fill="black"/>
<path d="M769.972 161.273V170H768.915V162.381H768.864L766.733 163.795V162.722L768.915 161.273H769.972ZM772.277 168.21V167.341L776.112 161.273H776.743V162.619H776.317L773.419 167.205V167.273H778.584V168.21H772.277ZM776.385 170V167.946V167.541V161.273H777.391V170H776.385ZM783.13 170.119C782.567 170.119 782.066 170.023 781.625 169.83C781.188 169.636 780.84 169.368 780.581 169.024C780.326 168.678 780.186 168.276 780.164 167.818H781.238C781.26 168.099 781.357 168.342 781.527 168.547C781.698 168.749 781.921 168.905 782.196 169.016C782.472 169.126 782.777 169.182 783.113 169.182C783.488 169.182 783.82 169.116 784.11 168.986C784.4 168.855 784.627 168.673 784.792 168.44C784.956 168.207 785.039 167.938 785.039 167.631C785.039 167.31 784.959 167.027 784.8 166.783C784.641 166.536 784.408 166.342 784.101 166.203C783.794 166.064 783.419 165.994 782.976 165.994H782.277V165.057H782.976C783.323 165.057 783.627 164.994 783.888 164.869C784.152 164.744 784.358 164.568 784.506 164.341C784.657 164.114 784.732 163.847 784.732 163.54C784.732 163.244 784.667 162.987 784.536 162.768C784.405 162.55 784.221 162.379 783.982 162.257C783.746 162.135 783.468 162.074 783.147 162.074C782.846 162.074 782.561 162.129 782.294 162.24C782.03 162.348 781.814 162.506 781.647 162.713C781.479 162.918 781.388 163.165 781.374 163.455H780.351C780.368 162.997 780.506 162.597 780.765 162.253C781.023 161.906 781.361 161.636 781.779 161.443C782.199 161.25 782.661 161.153 783.164 161.153C783.703 161.153 784.167 161.263 784.553 161.482C784.939 161.697 785.236 161.983 785.444 162.338C785.651 162.693 785.755 163.077 785.755 163.489C785.755 163.98 785.625 164.399 785.367 164.746C785.111 165.092 784.763 165.332 784.323 165.466V165.534C784.874 165.625 785.304 165.859 785.614 166.237C785.924 166.612 786.078 167.077 786.078 167.631C786.078 168.105 785.949 168.531 785.691 168.909C785.435 169.284 785.086 169.58 784.642 169.795C784.199 170.011 783.695 170.119 783.13 170.119ZM793.685 170.136C793.14 170.136 792.658 169.999 792.24 169.723C791.823 169.445 791.496 169.053 791.26 168.547C791.025 168.038 790.907 167.438 790.907 166.744C790.907 166.057 791.025 165.46 791.26 164.955C791.496 164.449 791.824 164.058 792.245 163.783C792.665 163.507 793.151 163.369 793.702 163.369C794.128 163.369 794.465 163.44 794.712 163.582C794.962 163.722 795.152 163.881 795.283 164.06C795.417 164.236 795.52 164.381 795.594 164.494H795.679V161.273H796.685V170H795.713V168.994H795.594C795.52 169.114 795.415 169.264 795.279 169.446C795.142 169.625 794.948 169.786 794.695 169.928C794.442 170.067 794.105 170.136 793.685 170.136ZM793.821 169.233C794.225 169.233 794.566 169.128 794.844 168.918C795.123 168.705 795.334 168.411 795.479 168.036C795.624 167.658 795.696 167.222 795.696 166.727C795.696 166.239 795.625 165.811 795.483 165.445C795.341 165.075 795.131 164.788 794.853 164.584C794.574 164.376 794.23 164.273 793.821 164.273C793.395 164.273 793.04 164.382 792.756 164.601C792.475 164.817 792.263 165.111 792.121 165.483C791.982 165.852 791.912 166.267 791.912 166.727C791.912 167.193 791.983 167.616 792.125 167.997C792.27 168.375 792.483 168.676 792.765 168.901C793.049 169.122 793.401 169.233 793.821 169.233ZM800.593 170.153C800.178 170.153 799.801 170.075 799.463 169.919C799.125 169.76 798.857 169.531 798.658 169.233C798.459 168.932 798.36 168.568 798.36 168.142C798.36 167.767 798.434 167.463 798.581 167.23C798.729 166.994 798.926 166.81 799.174 166.676C799.421 166.543 799.694 166.443 799.992 166.378C800.293 166.31 800.596 166.256 800.9 166.216C801.297 166.165 801.62 166.126 801.867 166.101C802.117 166.072 802.299 166.026 802.412 165.96C802.529 165.895 802.587 165.781 802.587 165.619V165.585C802.587 165.165 802.472 164.838 802.242 164.605C802.015 164.372 801.669 164.256 801.206 164.256C800.726 164.256 800.35 164.361 800.077 164.571C799.804 164.781 799.613 165.006 799.502 165.244L798.547 164.903C798.718 164.506 798.945 164.196 799.229 163.974C799.516 163.75 799.828 163.594 800.167 163.506C800.507 163.415 800.843 163.369 801.172 163.369C801.382 163.369 801.624 163.395 801.897 163.446C802.172 163.494 802.438 163.595 802.694 163.749C802.952 163.902 803.167 164.134 803.337 164.443C803.507 164.753 803.593 165.168 803.593 165.688V170H802.587V169.114H802.536C802.468 169.256 802.354 169.408 802.195 169.57C802.036 169.732 801.824 169.869 801.56 169.983C801.296 170.097 800.973 170.153 800.593 170.153ZM800.746 169.25C801.144 169.25 801.479 169.172 801.752 169.016C802.027 168.859 802.235 168.658 802.374 168.411C802.516 168.163 802.587 167.903 802.587 167.631V166.71C802.544 166.761 802.451 166.808 802.306 166.851C802.164 166.891 801.999 166.926 801.811 166.957C801.627 166.986 801.446 167.011 801.27 167.034C801.097 167.054 800.956 167.071 800.848 167.085C800.587 167.119 800.343 167.175 800.115 167.251C799.891 167.325 799.709 167.437 799.57 167.588C799.434 167.736 799.365 167.937 799.365 168.193C799.365 168.543 799.495 168.807 799.753 168.986C800.015 169.162 800.346 169.25 800.746 169.25ZM805.842 172.455C805.671 172.455 805.519 172.44 805.386 172.412C805.252 172.386 805.16 172.361 805.109 172.335L805.364 171.449C805.609 171.511 805.825 171.534 806.012 171.517C806.2 171.5 806.366 171.416 806.511 171.266C806.658 171.118 806.793 170.878 806.915 170.545L807.103 170.034L804.683 163.455H805.773L807.58 168.67H807.648L809.455 163.455H810.546L807.768 170.955C807.643 171.293 807.488 171.572 807.303 171.794C807.119 172.018 806.904 172.185 806.66 172.293C806.418 172.401 806.146 172.455 805.842 172.455ZM816.51 164.92L815.607 165.176C815.55 165.026 815.466 164.879 815.355 164.737C815.247 164.592 815.099 164.473 814.912 164.379C814.724 164.286 814.484 164.239 814.192 164.239C813.791 164.239 813.457 164.331 813.19 164.516C812.926 164.697 812.794 164.929 812.794 165.21C812.794 165.46 812.885 165.658 813.067 165.803C813.249 165.947 813.533 166.068 813.919 166.165L814.891 166.403C815.476 166.545 815.912 166.763 816.199 167.055C816.486 167.345 816.629 167.719 816.629 168.176C816.629 168.551 816.521 168.886 816.305 169.182C816.092 169.477 815.794 169.71 815.411 169.881C815.027 170.051 814.581 170.136 814.072 170.136C813.405 170.136 812.852 169.991 812.415 169.702C811.977 169.412 811.7 168.989 811.584 168.432L812.538 168.193C812.629 168.545 812.801 168.81 813.054 168.986C813.31 169.162 813.643 169.25 814.055 169.25C814.524 169.25 814.896 169.151 815.172 168.952C815.45 168.75 815.589 168.509 815.589 168.227C815.589 168 815.51 167.81 815.351 167.656C815.192 167.5 814.947 167.384 814.618 167.307L813.527 167.051C812.928 166.909 812.487 166.689 812.206 166.391C811.928 166.089 811.788 165.713 811.788 165.261C811.788 164.892 811.892 164.565 812.099 164.281C812.31 163.997 812.595 163.774 812.956 163.612C813.32 163.45 813.732 163.369 814.192 163.369C814.839 163.369 815.348 163.511 815.717 163.795C816.089 164.08 816.354 164.455 816.51 164.92Z" fill="black"/>
<path d="M0 175H823" stroke="black" stroke-width="2" stroke-linecap="round"/>
</g>
<defs>
<clipPath id="clip0_10181_14786">
<rect width="825" height="350" fill="white"/>
</clipPath>
</defs>
</svg>
