<svg width="825" height="350" viewBox="0 0 825 350" fill="none" xmlns="http://www.w3.org/2000/svg">
<g clip-path="url(#clip0_10181_14786)">
<rect width="825" height="350" fill="white"/>
<g opacity="0.25">
<path d="M561 0H0V350H561V0Z" fill="#F6B81A"/>
<path d="M825 0H561V350H825V0Z" fill="#F9386D"/>
</g>
<path fill-rule="evenodd" clip-rule="evenodd" d="M561 0V350H0C216.171 297.693 359.306 236.844 435.903 173.172C512.5 109.5 552.033 49.8698 561 0Z" fill="#F6B81A"/>
<path fill-rule="evenodd" clip-rule="evenodd" d="M561 0V350H825C825 222 789.549 141 740.52 80.9999C691.491 20.9999 609.651 0 561 0Z" fill="#F9386D"/>
<path d="M7.05682 72V63.2727H10.0057C10.6903 63.2727 11.25 63.3963 11.6847 63.6435C12.1222 63.8878 12.446 64.2188 12.6562 64.6364C12.8665 65.054 12.9716 65.5199 12.9716 66.0341C12.9716 66.5483 12.8665 67.0156 12.6562 67.4361C12.4489 67.8565 12.1278 68.1918 11.6932 68.4418C11.2585 68.6889 10.7017 68.8125 10.0227 68.8125H7.90909V67.875H9.98864C10.4574 67.875 10.8338 67.794 11.1179 67.6321C11.402 67.4702 11.608 67.2514 11.7358 66.9759C11.8665 66.6974 11.9318 66.3835 11.9318 66.0341C11.9318 65.6847 11.8665 65.3722 11.7358 65.0966C11.608 64.821 11.4006 64.6051 11.1136 64.4489C10.8267 64.2898 10.446 64.2102 9.97159 64.2102H8.11364V72H7.05682ZM14.674 72V63.2727H17.6229C18.3047 63.2727 18.8643 63.3892 19.3018 63.6222C19.7393 63.8523 20.0632 64.169 20.2734 64.5724C20.4837 64.9759 20.5888 65.4347 20.5888 65.9489C20.5888 66.4631 20.4837 66.919 20.2734 67.3168C20.0632 67.7145 19.7408 68.027 19.3061 68.2543C18.8714 68.4787 18.3161 68.5909 17.6399 68.5909H15.2536V67.6364H17.6058C18.0717 67.6364 18.4467 67.5682 18.7308 67.4318C19.0178 67.2955 19.2251 67.1023 19.353 66.8523C19.4837 66.5994 19.549 66.2983 19.549 65.9489C19.549 65.5994 19.4837 65.294 19.353 65.0327C19.2223 64.7713 19.0135 64.5696 18.7266 64.4276C18.4396 64.2827 18.0604 64.2102 17.5888 64.2102H15.7308V72H14.674ZM18.782 68.0795L20.9297 72H19.7024L17.5888 68.0795H18.782ZM29.7134 67.6364C29.7134 68.5568 29.5472 69.3523 29.2148 70.0227C28.8825 70.6932 28.4265 71.2102 27.8469 71.5739C27.2674 71.9375 26.6055 72.1193 25.8612 72.1193C25.1168 72.1193 24.4549 71.9375 23.8754 71.5739C23.2958 71.2102 22.8398 70.6932 22.5075 70.0227C22.1751 69.3523 22.0089 68.5568 22.0089 67.6364C22.0089 66.7159 22.1751 65.9205 22.5075 65.25C22.8398 64.5795 23.2958 64.0625 23.8754 63.6989C24.4549 63.3352 25.1168 63.1534 25.8612 63.1534C26.6055 63.1534 27.2674 63.3352 27.8469 63.6989C28.4265 64.0625 28.8825 64.5795 29.2148 65.25C29.5472 65.9205 29.7134 66.7159 29.7134 67.6364ZM28.6907 67.6364C28.6907 66.8807 28.5643 66.2429 28.3114 65.723C28.0614 65.2031 27.7219 64.8097 27.293 64.5426C26.8668 64.2756 26.3896 64.142 25.8612 64.142C25.3327 64.142 24.854 64.2756 24.4251 64.5426C23.9989 64.8097 23.6594 65.2031 23.4066 65.723C23.1566 66.2429 23.0316 66.8807 23.0316 67.6364C23.0316 68.392 23.1566 69.0298 23.4066 69.5497C23.6594 70.0696 23.9989 70.4631 24.4251 70.7301C24.854 70.9972 25.3327 71.1307 25.8612 71.1307C26.3896 71.1307 26.8668 70.9972 27.293 70.7301C27.7219 70.4631 28.0614 70.0696 28.3114 69.5497C28.5643 69.0298 28.6907 68.392 28.6907 67.6364ZM31.4904 72V63.2727H36.7234V64.2102H32.5472V67.1591H36.3313V68.0966H32.5472V72H31.4904ZM39.5902 63.2727V72H38.5334V63.2727H39.5902ZM41.2319 64.2102V63.2727H47.7773V64.2102H45.033V72H43.9762V64.2102H41.2319ZM52.7834 72V63.2727H53.8402V71.0625H57.897V72H52.7834ZM60.5902 63.2727V72H59.5334V63.2727H60.5902ZM69.6296 63.2727V72H68.6069L63.8512 65.1477H63.766V72H62.7092V63.2727H63.7319L68.5046 70.142H68.5898V63.2727H69.6296ZM71.7443 72V63.2727H77.0114V64.2102H72.8011V67.1591H76.7386V68.0966H72.8011V71.0625H77.0795V72H71.7443Z" fill="black"/>
<path d="M9.75 341.119C9.10795 341.119 8.56108 340.945 8.10938 340.595C7.65767 340.243 7.3125 339.733 7.07386 339.065C6.83523 338.395 6.71591 337.585 6.71591 336.636C6.71591 335.693 6.83523 334.888 7.07386 334.22C7.31534 333.55 7.66193 333.038 8.11364 332.686C8.56818 332.331 9.11364 332.153 9.75 332.153C10.3864 332.153 10.9304 332.331 11.3821 332.686C11.8366 333.038 12.1832 333.55 12.4219 334.22C12.6634 334.888 12.7841 335.693 12.7841 336.636C12.7841 337.585 12.6648 338.395 12.4261 339.065C12.1875 339.733 11.8423 340.243 11.3906 340.595C10.9389 340.945 10.392 341.119 9.75 341.119ZM9.75 340.182C10.3864 340.182 10.8807 339.875 11.233 339.261C11.5852 338.648 11.7614 337.773 11.7614 336.636C11.7614 335.881 11.6804 335.237 11.5185 334.706C11.3594 334.175 11.1293 333.77 10.8281 333.491C10.5298 333.213 10.1705 333.074 9.75 333.074C9.11932 333.074 8.62642 333.385 8.27131 334.007C7.91619 334.626 7.73864 335.503 7.73864 336.636C7.73864 337.392 7.81818 338.034 7.97727 338.562C8.13636 339.091 8.36506 339.493 8.66335 339.768C8.96449 340.044 9.3267 340.182 9.75 340.182ZM20.267 341.136C19.7216 341.136 19.2401 340.999 18.8224 340.723C18.4048 340.445 18.0781 340.053 17.8423 339.547C17.6065 339.038 17.4886 338.438 17.4886 337.744C17.4886 337.057 17.6065 336.46 17.8423 335.955C18.0781 335.449 18.4063 335.058 18.8267 334.783C19.2472 334.507 19.733 334.369 20.2841 334.369C20.7102 334.369 21.0469 334.44 21.294 334.582C21.544 334.722 21.7344 334.881 21.8651 335.06C21.9986 335.236 22.1023 335.381 22.1761 335.494H22.2614V332.273H23.267V341H22.2955V339.994H22.1761C22.1023 340.114 21.9972 340.264 21.8608 340.446C21.7244 340.625 21.5298 340.786 21.277 340.928C21.0241 341.067 20.6875 341.136 20.267 341.136ZM20.4034 340.233C20.8068 340.233 21.1477 340.128 21.4261 339.918C21.7045 339.705 21.9162 339.411 22.0611 339.036C22.206 338.658 22.2784 338.222 22.2784 337.727C22.2784 337.239 22.2074 336.811 22.0653 336.445C21.9233 336.075 21.7131 335.788 21.4347 335.584C21.1563 335.376 20.8125 335.273 20.4034 335.273C19.9773 335.273 19.6222 335.382 19.3381 335.601C19.0568 335.817 18.8452 336.111 18.7031 336.483C18.5639 336.852 18.4943 337.267 18.4943 337.727C18.4943 338.193 18.5653 338.616 18.7074 338.997C18.8523 339.375 19.0653 339.676 19.3466 339.901C19.6307 340.122 19.983 340.233 20.4034 340.233ZM27.1747 341.153C26.7599 341.153 26.3835 341.075 26.0455 340.919C25.7074 340.76 25.4389 340.531 25.2401 340.233C25.0412 339.932 24.9418 339.568 24.9418 339.142C24.9418 338.767 25.0156 338.463 25.1634 338.23C25.3111 337.994 25.5085 337.81 25.7557 337.676C26.0028 337.543 26.2756 337.443 26.5739 337.378C26.875 337.31 27.1776 337.256 27.4815 337.216C27.8793 337.165 28.2017 337.126 28.4489 337.101C28.6989 337.072 28.8807 337.026 28.9943 336.96C29.1108 336.895 29.169 336.781 29.169 336.619V336.585C29.169 336.165 29.054 335.838 28.8239 335.605C28.5966 335.372 28.2514 335.256 27.7884 335.256C27.3082 335.256 26.9318 335.361 26.6591 335.571C26.3864 335.781 26.1946 336.006 26.0838 336.244L25.1293 335.903C25.2997 335.506 25.527 335.196 25.8111 334.974C26.098 334.75 26.4105 334.594 26.7486 334.506C27.0895 334.415 27.4247 334.369 27.7543 334.369C27.9645 334.369 28.206 334.395 28.4787 334.446C28.7543 334.494 29.0199 334.595 29.2756 334.749C29.5341 334.902 29.7486 335.134 29.919 335.443C30.0895 335.753 30.1747 336.168 30.1747 336.688V341H29.169V340.114H29.1179C29.0497 340.256 28.9361 340.408 28.777 340.57C28.6179 340.732 28.4063 340.869 28.142 340.983C27.8778 341.097 27.5554 341.153 27.1747 341.153ZM27.3281 340.25C27.7259 340.25 28.0611 340.172 28.3338 340.016C28.6094 339.859 28.8168 339.658 28.956 339.411C29.098 339.163 29.169 338.903 29.169 338.631V337.71C29.1264 337.761 29.0327 337.808 28.8878 337.851C28.7457 337.891 28.581 337.926 28.3935 337.957C28.2088 337.986 28.0284 338.011 27.8523 338.034C27.679 338.054 27.5384 338.071 27.4304 338.085C27.169 338.119 26.9247 338.175 26.6974 338.251C26.473 338.325 26.2912 338.437 26.152 338.588C26.0156 338.736 25.9474 338.937 25.9474 339.193C25.9474 339.543 26.0767 339.807 26.3352 339.986C26.5966 340.162 26.9276 340.25 27.3281 340.25ZM32.4237 343.455C32.2532 343.455 32.1012 343.44 31.9677 343.412C31.8342 343.386 31.7418 343.361 31.6907 343.335L31.9464 342.449C32.1907 342.511 32.4066 342.534 32.5941 342.517C32.7816 342.5 32.9478 342.416 33.0927 342.266C33.2404 342.118 33.3754 341.878 33.4975 341.545L33.685 341.034L31.2646 334.455H32.3555L34.1623 339.67H34.2305L36.0373 334.455H37.1282L34.3498 341.955C34.2248 342.293 34.07 342.572 33.8853 342.794C33.7006 343.018 33.4862 343.185 33.2418 343.293C33.0004 343.401 32.7276 343.455 32.4237 343.455ZM43.092 335.92L42.1886 336.176C42.1317 336.026 42.0479 335.879 41.9371 335.737C41.8292 335.592 41.6815 335.473 41.494 335.379C41.3065 335.286 41.0664 335.239 40.7738 335.239C40.3732 335.239 40.0394 335.331 39.7724 335.516C39.5082 335.697 39.3761 335.929 39.3761 336.21C39.3761 336.46 39.467 336.658 39.6488 336.803C39.8306 336.947 40.1147 337.068 40.5011 337.165L41.4727 337.403C42.0579 337.545 42.494 337.763 42.7809 338.055C43.0678 338.345 43.2113 338.719 43.2113 339.176C43.2113 339.551 43.1033 339.886 42.8874 340.182C42.6744 340.477 42.3761 340.71 41.9925 340.881C41.609 341.051 41.163 341.136 40.6545 341.136C39.9869 341.136 39.4343 340.991 38.9968 340.702C38.5593 340.412 38.2823 339.989 38.1658 339.432L39.1204 339.193C39.2113 339.545 39.3832 339.81 39.636 339.986C39.8917 340.162 40.2255 340.25 40.6374 340.25C41.1062 340.25 41.4783 340.151 41.7539 339.952C42.0323 339.75 42.1715 339.509 42.1715 339.227C42.1715 339 42.092 338.81 41.9329 338.656C41.7738 338.5 41.5295 338.384 41.1999 338.307L40.109 338.051C39.5096 337.909 39.0692 337.689 38.788 337.391C38.5096 337.089 38.3704 336.713 38.3704 336.261C38.3704 335.892 38.4741 335.565 38.6815 335.281C38.8917 334.997 39.1772 334.774 39.538 334.612C39.9016 334.45 40.3136 334.369 40.7738 334.369C41.4215 334.369 41.93 334.511 42.2994 334.795C42.6715 335.08 42.9357 335.455 43.092 335.92Z" fill="black"/>
<path d="M487.903 341V340.233L490.784 337.08C491.122 336.71 491.401 336.389 491.619 336.116C491.838 335.841 492 335.582 492.105 335.341C492.213 335.097 492.267 334.841 492.267 334.574C492.267 334.267 492.193 334.001 492.045 333.777C491.901 333.553 491.702 333.379 491.449 333.257C491.196 333.135 490.912 333.074 490.597 333.074C490.261 333.074 489.969 333.143 489.719 333.283C489.472 333.419 489.28 333.611 489.143 333.858C489.01 334.105 488.943 334.395 488.943 334.727H487.938C487.938 334.216 488.055 333.767 488.291 333.381C488.527 332.994 488.848 332.693 489.254 332.477C489.663 332.261 490.122 332.153 490.631 332.153C491.142 332.153 491.595 332.261 491.99 332.477C492.385 332.693 492.695 332.984 492.919 333.351C493.143 333.717 493.256 334.125 493.256 334.574C493.256 334.895 493.197 335.209 493.081 335.516C492.967 335.82 492.768 336.159 492.484 336.534C492.203 336.906 491.812 337.361 491.312 337.898L489.352 339.994V340.062H493.409V341H487.903ZM498.016 341.119C497.374 341.119 496.827 340.945 496.375 340.595C495.923 340.243 495.578 339.733 495.339 339.065C495.101 338.395 494.982 337.585 494.982 336.636C494.982 335.693 495.101 334.888 495.339 334.22C495.581 333.55 495.928 333.038 496.379 332.686C496.834 332.331 497.379 332.153 498.016 332.153C498.652 332.153 499.196 332.331 499.648 332.686C500.102 333.038 500.449 333.55 500.688 334.22C500.929 334.888 501.05 335.693 501.05 336.636C501.05 337.585 500.93 338.395 500.692 339.065C500.453 339.733 500.108 340.243 499.656 340.595C499.205 340.945 498.658 341.119 498.016 341.119ZM498.016 340.182C498.652 340.182 499.146 339.875 499.499 339.261C499.851 338.648 500.027 337.773 500.027 336.636C500.027 335.881 499.946 335.237 499.784 334.706C499.625 334.175 499.395 333.77 499.094 333.491C498.795 333.213 498.436 333.074 498.016 333.074C497.385 333.074 496.892 333.385 496.537 334.007C496.182 334.626 496.004 335.503 496.004 336.636C496.004 337.392 496.084 338.034 496.243 338.562C496.402 339.091 496.631 339.493 496.929 339.768C497.23 340.044 497.592 340.182 498.016 340.182ZM505.516 341.119C504.874 341.119 504.327 340.945 503.875 340.595C503.423 340.243 503.078 339.733 502.839 339.065C502.601 338.395 502.482 337.585 502.482 336.636C502.482 335.693 502.601 334.888 502.839 334.22C503.081 333.55 503.428 333.038 503.879 332.686C504.334 332.331 504.879 332.153 505.516 332.153C506.152 332.153 506.696 332.331 507.148 332.686C507.602 333.038 507.949 333.55 508.188 334.22C508.429 334.888 508.55 335.693 508.55 336.636C508.55 337.585 508.43 338.395 508.192 339.065C507.953 339.733 507.608 340.243 507.156 340.595C506.705 340.945 506.158 341.119 505.516 341.119ZM505.516 340.182C506.152 340.182 506.646 339.875 506.999 339.261C507.351 338.648 507.527 337.773 507.527 336.636C507.527 335.881 507.446 335.237 507.284 334.706C507.125 334.175 506.895 333.77 506.594 333.491C506.295 333.213 505.936 333.074 505.516 333.074C504.885 333.074 504.392 333.385 504.037 334.007C503.682 334.626 503.504 335.503 503.504 336.636C503.504 337.392 503.584 338.034 503.743 338.562C503.902 339.091 504.131 339.493 504.429 339.768C504.73 340.044 505.092 340.182 505.516 340.182ZM510.207 341L514.111 333.278V333.21H509.611V332.273H515.202V333.261L511.315 341H510.207ZM519.4 341.119C518.9 341.119 518.45 341.02 518.049 340.821C517.649 340.622 517.328 340.349 517.086 340.003C516.845 339.656 516.713 339.261 516.69 338.818H517.713C517.752 339.213 517.931 339.54 518.25 339.798C518.571 340.054 518.954 340.182 519.4 340.182C519.758 340.182 520.076 340.098 520.355 339.93C520.636 339.763 520.856 339.533 521.015 339.24C521.177 338.945 521.258 338.611 521.258 338.239C521.258 337.858 521.174 337.518 521.007 337.22C520.842 336.919 520.615 336.682 520.325 336.509C520.035 336.335 519.704 336.247 519.332 336.244C519.065 336.241 518.791 336.283 518.51 336.368C518.228 336.45 517.997 336.557 517.815 336.688L516.826 336.568L517.355 332.273H521.889V333.21H518.241L517.934 335.784H517.985C518.164 335.642 518.389 335.524 518.659 335.43C518.929 335.337 519.21 335.29 519.502 335.29C520.037 335.29 520.512 335.418 520.93 335.673C521.35 335.926 521.68 336.273 521.919 336.713C522.16 337.153 522.281 337.656 522.281 338.222C522.281 338.778 522.156 339.276 521.906 339.713C521.659 340.148 521.318 340.491 520.883 340.744C520.449 340.994 519.954 341.119 519.4 341.119ZM529.837 341.136C529.292 341.136 528.81 340.999 528.393 340.723C527.975 340.445 527.648 340.053 527.413 339.547C527.177 339.038 527.059 338.438 527.059 337.744C527.059 337.057 527.177 336.46 527.413 335.955C527.648 335.449 527.977 335.058 528.397 334.783C528.817 334.507 529.303 334.369 529.854 334.369C530.281 334.369 530.617 334.44 530.864 334.582C531.114 334.722 531.305 334.881 531.435 335.06C531.569 335.236 531.673 335.381 531.746 335.494H531.832V332.273H532.837V341H531.866V339.994H531.746C531.673 340.114 531.567 340.264 531.431 340.446C531.295 340.625 531.1 340.786 530.847 340.928C530.594 341.067 530.258 341.136 529.837 341.136ZM529.974 340.233C530.377 340.233 530.718 340.128 530.996 339.918C531.275 339.705 531.487 339.411 531.631 339.036C531.776 338.658 531.849 338.222 531.849 337.727C531.849 337.239 531.778 336.811 531.636 336.445C531.494 336.075 531.283 335.788 531.005 335.584C530.727 335.376 530.383 335.273 529.974 335.273C529.548 335.273 529.192 335.382 528.908 335.601C528.627 335.817 528.415 336.111 528.273 336.483C528.134 336.852 528.065 337.267 528.065 337.727C528.065 338.193 528.136 338.616 528.278 338.997C528.423 339.375 528.636 339.676 528.917 339.901C529.201 340.122 529.553 340.233 529.974 340.233ZM536.745 341.153C536.33 341.153 535.954 341.075 535.616 340.919C535.278 340.76 535.009 340.531 534.81 340.233C534.612 339.932 534.512 339.568 534.512 339.142C534.512 338.767 534.586 338.463 534.734 338.23C534.881 337.994 535.079 337.81 535.326 337.676C535.573 337.543 535.846 337.443 536.144 337.378C536.445 337.31 536.748 337.256 537.052 337.216C537.45 337.165 537.772 337.126 538.019 337.101C538.269 337.072 538.451 337.026 538.565 336.96C538.681 336.895 538.739 336.781 538.739 336.619V336.585C538.739 336.165 538.624 335.838 538.394 335.605C538.167 335.372 537.822 335.256 537.359 335.256C536.879 335.256 536.502 335.361 536.229 335.571C535.957 335.781 535.765 336.006 535.654 336.244L534.7 335.903C534.87 335.506 535.097 335.196 535.381 334.974C535.668 334.75 535.981 334.594 536.319 334.506C536.66 334.415 536.995 334.369 537.325 334.369C537.535 334.369 537.776 334.395 538.049 334.446C538.325 334.494 538.59 334.595 538.846 334.749C539.104 334.902 539.319 335.134 539.489 335.443C539.66 335.753 539.745 336.168 539.745 336.688V341H538.739V340.114H538.688C538.62 340.256 538.506 340.408 538.347 340.57C538.188 340.732 537.977 340.869 537.712 340.983C537.448 341.097 537.126 341.153 536.745 341.153ZM536.898 340.25C537.296 340.25 537.631 340.172 537.904 340.016C538.18 339.859 538.387 339.658 538.526 339.411C538.668 339.163 538.739 338.903 538.739 338.631V337.71C538.697 337.761 538.603 337.808 538.458 337.851C538.316 337.891 538.151 337.926 537.964 337.957C537.779 337.986 537.599 338.011 537.423 338.034C537.249 338.054 537.109 338.071 537.001 338.085C536.739 338.119 536.495 338.175 536.268 338.251C536.043 338.325 535.862 338.437 535.722 338.588C535.586 338.736 535.518 338.937 535.518 339.193C535.518 339.543 535.647 339.807 535.906 339.986C536.167 340.162 536.498 340.25 536.898 340.25ZM541.994 343.455C541.824 343.455 541.672 343.44 541.538 343.412C541.404 343.386 541.312 343.361 541.261 343.335L541.517 342.449C541.761 342.511 541.977 342.534 542.164 342.517C542.352 342.5 542.518 342.416 542.663 342.266C542.811 342.118 542.946 341.878 543.068 341.545L543.255 341.034L540.835 334.455H541.926L543.733 339.67H543.801L545.608 334.455H546.699L543.92 341.955C543.795 342.293 543.64 342.572 543.456 342.794C543.271 343.018 543.056 343.185 542.812 343.293C542.571 343.401 542.298 343.455 541.994 343.455ZM552.662 335.92L551.759 336.176C551.702 336.026 551.618 335.879 551.507 335.737C551.4 335.592 551.252 335.473 551.064 335.379C550.877 335.286 550.637 335.239 550.344 335.239C549.944 335.239 549.61 335.331 549.343 335.516C549.078 335.697 548.946 335.929 548.946 336.21C548.946 336.46 549.037 336.658 549.219 336.803C549.401 336.947 549.685 337.068 550.071 337.165L551.043 337.403C551.628 337.545 552.064 337.763 552.351 338.055C552.638 338.345 552.782 338.719 552.782 339.176C552.782 339.551 552.674 339.886 552.458 340.182C552.245 340.477 551.946 340.71 551.563 340.881C551.179 341.051 550.733 341.136 550.225 341.136C549.557 341.136 549.005 340.991 548.567 340.702C548.13 340.412 547.853 339.989 547.736 339.432L548.691 339.193C548.782 339.545 548.953 339.81 549.206 339.986C549.462 340.162 549.796 340.25 550.208 340.25C550.676 340.25 551.049 340.151 551.324 339.952C551.603 339.75 551.742 339.509 551.742 339.227C551.742 339 551.662 338.81 551.503 338.656C551.344 338.5 551.1 338.384 550.77 338.307L549.679 338.051C549.08 337.909 548.64 337.689 548.358 337.391C548.08 337.089 547.941 336.713 547.941 336.261C547.941 335.892 548.044 335.565 548.252 335.281C548.462 334.997 548.748 334.774 549.108 334.612C549.472 334.45 549.884 334.369 550.344 334.369C550.992 334.369 551.5 334.511 551.87 334.795C552.242 335.08 552.506 335.455 552.662 335.92Z" fill="black"/>
<path d="M253.072 341V332.273H256.021C256.703 332.273 257.263 332.389 257.7 332.622C258.138 332.852 258.462 333.169 258.672 333.572C258.882 333.976 258.987 334.435 258.987 334.949C258.987 335.463 258.882 335.919 258.672 336.317C258.462 336.714 258.139 337.027 257.705 337.254C257.27 337.479 256.714 337.591 256.038 337.591H253.652V336.636H256.004C256.47 336.636 256.845 336.568 257.129 336.432C257.416 336.295 257.624 336.102 257.751 335.852C257.882 335.599 257.947 335.298 257.947 334.949C257.947 334.599 257.882 334.294 257.751 334.033C257.621 333.771 257.412 333.57 257.125 333.428C256.838 333.283 256.459 333.21 255.987 333.21H254.129V341H253.072ZM257.18 337.08L259.328 341H258.101L255.987 337.08H257.18ZM260.748 341V332.273H266.015V333.21H261.805V336.159H265.743V337.097H261.805V340.062H266.083V341H260.748ZM269.505 341L267.119 332.273H268.193L270.017 339.381H270.102L271.96 332.273H273.153L275.011 339.381H275.096L276.92 332.273H277.994L275.608 341H274.517L272.591 334.045H272.522L270.596 341H269.505ZM278.989 341H277.881L281.086 332.273H282.176L285.381 341H284.273L281.665 333.653H281.597L278.989 341ZM279.398 337.591H283.864V338.528H279.398V337.591ZM286.74 341V332.273H289.689C290.371 332.273 290.931 332.389 291.368 332.622C291.806 332.852 292.13 333.169 292.34 333.572C292.55 333.976 292.655 334.435 292.655 334.949C292.655 335.463 292.55 335.919 292.34 336.317C292.13 336.714 291.807 337.027 291.373 337.254C290.938 337.479 290.382 337.591 289.706 337.591H287.32V336.636H289.672C290.138 336.636 290.513 336.568 290.797 336.432C291.084 336.295 291.292 336.102 291.419 335.852C291.55 335.599 291.615 335.298 291.615 334.949C291.615 334.599 291.55 334.294 291.419 334.033C291.289 333.771 291.08 333.57 290.793 333.428C290.506 333.283 290.127 333.21 289.655 333.21H287.797V341H286.74ZM290.848 337.08L292.996 341H291.769L289.655 337.08H290.848ZM297.109 341H294.416V332.273H297.229C298.075 332.273 298.8 332.447 299.402 332.797C300.004 333.143 300.466 333.642 300.787 334.293C301.108 334.94 301.268 335.716 301.268 336.619C301.268 337.528 301.107 338.311 300.783 338.967C300.459 339.621 299.987 340.124 299.368 340.476C298.749 340.825 297.996 341 297.109 341ZM295.473 340.062H297.041C297.763 340.062 298.361 339.923 298.835 339.645C299.31 339.366 299.663 338.97 299.896 338.456C300.129 337.942 300.246 337.33 300.246 336.619C300.246 335.915 300.131 335.308 299.901 334.8C299.67 334.288 299.327 333.896 298.869 333.624C298.412 333.348 297.842 333.21 297.161 333.21H295.473V340.062Z" fill="black"/>
<path d="M669.057 341V332.273H672.006C672.688 332.273 673.247 332.389 673.685 332.622C674.122 332.852 674.446 333.169 674.656 333.572C674.866 333.976 674.972 334.435 674.972 334.949C674.972 335.463 674.866 335.919 674.656 336.317C674.446 336.714 674.124 337.027 673.689 337.254C673.254 337.479 672.699 337.591 672.023 337.591H669.636V336.636H671.989C672.455 336.636 672.83 336.568 673.114 336.432C673.401 336.295 673.608 336.102 673.736 335.852C673.866 335.599 673.932 335.298 673.932 334.949C673.932 334.599 673.866 334.294 673.736 334.033C673.605 333.771 673.396 333.57 673.109 333.428C672.822 333.283 672.443 333.21 671.972 333.21H670.114V341H669.057ZM673.165 337.08L675.312 341H674.085L671.972 337.08H673.165ZM676.733 341V332.273H682V333.21H677.789V336.159H681.727V337.097H677.789V340.062H682.068V341H676.733ZM685.49 341L683.103 332.273H684.177L686.001 339.381H686.086L687.944 332.273H689.137L690.995 339.381H691.081L692.904 332.273H693.978L691.592 341H690.501L688.575 334.045H688.507L686.581 341H685.49ZM694.973 341H693.865L697.07 332.273H698.161L701.365 341H700.257L697.65 333.653H697.581L694.973 341ZM695.382 337.591H699.848V338.528H695.382V337.591ZM702.725 341V332.273H705.674C706.355 332.273 706.915 332.389 707.353 332.622C707.79 332.852 708.114 333.169 708.324 333.572C708.534 333.976 708.64 334.435 708.64 334.949C708.64 335.463 708.534 335.919 708.324 336.317C708.114 336.714 707.792 337.027 707.357 337.254C706.922 337.479 706.367 337.591 705.691 337.591H703.304V336.636H705.657C706.123 336.636 706.498 336.568 706.782 336.432C707.069 336.295 707.276 336.102 707.404 335.852C707.534 335.599 707.6 335.298 707.6 334.949C707.6 334.599 707.534 334.294 707.404 334.033C707.273 333.771 707.064 333.57 706.777 333.428C706.49 333.283 706.111 333.21 705.64 333.21H703.782V341H702.725ZM706.833 337.08L708.98 341H707.753L705.64 337.08H706.833ZM713.094 341H710.401V332.273H713.213C714.06 332.273 714.784 332.447 715.386 332.797C715.989 333.143 716.45 333.642 716.771 334.293C717.092 334.94 717.253 335.716 717.253 336.619C717.253 337.528 717.091 338.311 716.767 338.967C716.443 339.621 715.972 340.124 715.352 340.476C714.733 340.825 713.98 341 713.094 341ZM711.457 340.062H713.026C713.747 340.062 714.345 339.923 714.82 339.645C715.294 339.366 715.648 338.97 715.881 338.456C716.114 337.942 716.23 337.33 716.23 336.619C716.23 335.915 716.115 335.308 715.885 334.8C715.655 334.288 715.311 333.896 714.854 333.624C714.396 333.348 713.827 333.21 713.145 333.21H711.457V340.062Z" fill="black"/>
<path d="M666.455 18V9.27273H669.404C670.089 9.27273 670.648 9.39631 671.083 9.64347C671.521 9.88778 671.844 10.2188 672.055 10.6364C672.265 11.054 672.37 11.5199 672.37 12.0341C672.37 12.5483 672.265 13.0156 672.055 13.4361C671.847 13.8565 671.526 14.1918 671.092 14.4418C670.657 14.6889 670.1 14.8125 669.421 14.8125H667.308V13.875H669.387C669.856 13.875 670.232 13.794 670.516 13.6321C670.8 13.4702 671.006 13.2514 671.134 12.9759C671.265 12.6974 671.33 12.3835 671.33 12.0341C671.33 11.6847 671.265 11.3722 671.134 11.0966C671.006 10.821 670.799 10.6051 670.512 10.4489C670.225 10.2898 669.844 10.2102 669.37 10.2102H667.512V18H666.455ZM674.072 18V9.27273H679.339V10.2102H675.129V13.1591H679.067V14.0966H675.129V17.0625H679.408V18H674.072ZM688.165 9.27273V18H687.142L682.386 11.1477H682.301V18H681.244V9.27273H682.267L687.04 16.142H687.125V9.27273H688.165ZM690.637 18H689.529L692.734 9.27273H693.825L697.029 18H695.922L693.314 10.6534H693.245L690.637 18ZM691.047 14.5909H695.512V15.5284H691.047V14.5909ZM698.389 18V9.27273H699.446V17.0625H703.502V18H698.389ZM703.501 10.2102V9.27273H710.047V10.2102H707.303V18H706.246V10.2102H703.501ZM710.928 9.27273H712.138L714.559 13.3466H714.661L717.081 9.27273H718.292L715.138 14.4034V18H714.081V14.4034L710.928 9.27273Z" fill="black"/>
<path d="M251.455 18V9.27273H254.404C255.089 9.27273 255.648 9.39631 256.083 9.64347C256.521 9.88778 256.844 10.2188 257.055 10.6364C257.265 11.054 257.37 11.5199 257.37 12.0341C257.37 12.5483 257.265 13.0156 257.055 13.4361C256.847 13.8565 256.526 14.1918 256.092 14.4418C255.657 14.6889 255.1 14.8125 254.421 14.8125H252.308V13.875H254.387C254.856 13.875 255.232 13.794 255.516 13.6321C255.8 13.4702 256.006 13.2514 256.134 12.9759C256.265 12.6974 256.33 12.3835 256.33 12.0341C256.33 11.6847 256.265 11.3722 256.134 11.0966C256.006 10.821 255.799 10.6051 255.512 10.4489C255.225 10.2898 254.844 10.2102 254.37 10.2102H252.512V18H251.455ZM259.072 18V9.27273H264.339V10.2102H260.129V13.1591H264.067V14.0966H260.129V17.0625H264.408V18H259.072ZM273.165 9.27273V18H272.142L267.386 11.1477H267.301V18H266.244V9.27273H267.267L272.04 16.142H272.125V9.27273H273.165ZM275.637 18H274.529L277.734 9.27273H278.825L282.029 18H280.922L278.314 10.6534H278.245L275.637 18ZM276.047 14.5909H280.512V15.5284H276.047V14.5909ZM283.389 18V9.27273H284.446V17.0625H288.502V18H283.389ZM288.501 10.2102V9.27273H295.047V10.2102H292.303V18H291.246V10.2102H288.501ZM295.928 9.27273H297.138L299.559 13.3466H299.661L302.081 9.27273H303.292L300.138 14.4034V18H299.081V14.4034L295.928 9.27273Z" fill="black"/>
<path d="M570.75 341.119C570.108 341.119 569.561 340.945 569.109 340.595C568.658 340.243 568.313 339.733 568.074 339.065C567.835 338.395 567.716 337.585 567.716 336.636C567.716 335.693 567.835 334.888 568.074 334.22C568.315 333.55 568.662 333.038 569.114 332.686C569.568 332.331 570.114 332.153 570.75 332.153C571.386 332.153 571.93 332.331 572.382 332.686C572.837 333.038 573.183 333.55 573.422 334.22C573.663 334.888 573.784 335.693 573.784 336.636C573.784 337.585 573.665 338.395 573.426 339.065C573.188 339.733 572.842 340.243 572.391 340.595C571.939 340.945 571.392 341.119 570.75 341.119ZM570.75 340.182C571.386 340.182 571.881 339.875 572.233 339.261C572.585 338.648 572.761 337.773 572.761 336.636C572.761 335.881 572.68 335.237 572.518 334.706C572.359 334.175 572.129 333.77 571.828 333.491C571.53 333.213 571.17 333.074 570.75 333.074C570.119 333.074 569.626 333.385 569.271 334.007C568.916 334.626 568.739 335.503 568.739 336.636C568.739 337.392 568.818 338.034 568.977 338.562C569.136 339.091 569.365 339.493 569.663 339.768C569.964 340.044 570.327 340.182 570.75 340.182ZM581.267 341.136C580.722 341.136 580.24 340.999 579.822 340.723C579.405 340.445 579.078 340.053 578.842 339.547C578.607 339.038 578.489 338.438 578.489 337.744C578.489 337.057 578.607 336.46 578.842 335.955C579.078 335.449 579.406 335.058 579.827 334.783C580.247 334.507 580.733 334.369 581.284 334.369C581.71 334.369 582.047 334.44 582.294 334.582C582.544 334.722 582.734 334.881 582.865 335.06C582.999 335.236 583.102 335.381 583.176 335.494H583.261V332.273H584.267V341H583.295V339.994H583.176C583.102 340.114 582.997 340.264 582.861 340.446C582.724 340.625 582.53 340.786 582.277 340.928C582.024 341.067 581.688 341.136 581.267 341.136ZM581.403 340.233C581.807 340.233 582.148 340.128 582.426 339.918C582.705 339.705 582.916 339.411 583.061 339.036C583.206 338.658 583.278 338.222 583.278 337.727C583.278 337.239 583.207 336.811 583.065 336.445C582.923 336.075 582.713 335.788 582.435 335.584C582.156 335.376 581.813 335.273 581.403 335.273C580.977 335.273 580.622 335.382 580.338 335.601C580.057 335.817 579.845 336.111 579.703 336.483C579.564 336.852 579.494 337.267 579.494 337.727C579.494 338.193 579.565 338.616 579.707 338.997C579.852 339.375 580.065 339.676 580.347 339.901C580.631 340.122 580.983 340.233 581.403 340.233ZM588.175 341.153C587.76 341.153 587.384 341.075 587.045 340.919C586.707 340.76 586.439 340.531 586.24 340.233C586.041 339.932 585.942 339.568 585.942 339.142C585.942 338.767 586.016 338.463 586.163 338.23C586.311 337.994 586.509 337.81 586.756 337.676C587.003 337.543 587.276 337.443 587.574 337.378C587.875 337.31 588.178 337.256 588.482 337.216C588.879 337.165 589.202 337.126 589.449 337.101C589.699 337.072 589.881 337.026 589.994 336.96C590.111 336.895 590.169 336.781 590.169 336.619V336.585C590.169 336.165 590.054 335.838 589.824 335.605C589.597 335.372 589.251 335.256 588.788 335.256C588.308 335.256 587.932 335.361 587.659 335.571C587.386 335.781 587.195 336.006 587.084 336.244L586.129 335.903C586.3 335.506 586.527 335.196 586.811 334.974C587.098 334.75 587.411 334.594 587.749 334.506C588.089 334.415 588.425 334.369 588.754 334.369C588.964 334.369 589.206 334.395 589.479 334.446C589.754 334.494 590.02 334.595 590.276 334.749C590.534 334.902 590.749 335.134 590.919 335.443C591.089 335.753 591.175 336.168 591.175 336.688V341H590.169V340.114H590.118C590.05 340.256 589.936 340.408 589.777 340.57C589.618 340.732 589.406 340.869 589.142 340.983C588.878 341.097 588.555 341.153 588.175 341.153ZM588.328 340.25C588.726 340.25 589.061 340.172 589.334 340.016C589.609 339.859 589.817 339.658 589.956 339.411C590.098 339.163 590.169 338.903 590.169 338.631V337.71C590.126 337.761 590.033 337.808 589.888 337.851C589.746 337.891 589.581 337.926 589.393 337.957C589.209 337.986 589.028 338.011 588.852 338.034C588.679 338.054 588.538 338.071 588.43 338.085C588.169 338.119 587.925 338.175 587.697 338.251C587.473 338.325 587.291 338.437 587.152 338.588C587.016 338.736 586.947 338.937 586.947 339.193C586.947 339.543 587.077 339.807 587.335 339.986C587.597 340.162 587.928 340.25 588.328 340.25ZM593.424 343.455C593.253 343.455 593.101 343.44 592.968 343.412C592.834 343.386 592.742 343.361 592.691 343.335L592.946 342.449C593.191 342.511 593.407 342.534 593.594 342.517C593.782 342.5 593.948 342.416 594.093 342.266C594.24 342.118 594.375 341.878 594.498 341.545L594.685 341.034L592.265 334.455H593.355L595.162 339.67H595.23L597.037 334.455H598.128L595.35 341.955C595.225 342.293 595.07 342.572 594.885 342.794C594.701 343.018 594.486 343.185 594.242 343.293C594 343.401 593.728 343.455 593.424 343.455ZM604.092 335.92L603.189 336.176C603.132 336.026 603.048 335.879 602.937 335.737C602.829 335.592 602.681 335.473 602.494 335.379C602.306 335.286 602.066 335.239 601.774 335.239C601.373 335.239 601.039 335.331 600.772 335.516C600.508 335.697 600.376 335.929 600.376 336.21C600.376 336.46 600.467 336.658 600.649 336.803C600.831 336.947 601.115 337.068 601.501 337.165L602.473 337.403C603.058 337.545 603.494 337.763 603.781 338.055C604.068 338.345 604.211 338.719 604.211 339.176C604.211 339.551 604.103 339.886 603.887 340.182C603.674 340.477 603.376 340.71 602.993 340.881C602.609 341.051 602.163 341.136 601.654 341.136C600.987 341.136 600.434 340.991 599.997 340.702C599.559 340.412 599.282 339.989 599.166 339.432L600.12 339.193C600.211 339.545 600.383 339.81 600.636 339.986C600.892 340.162 601.225 340.25 601.637 340.25C602.106 340.25 602.478 340.151 602.754 339.952C603.032 339.75 603.172 339.509 603.172 339.227C603.172 339 603.092 338.81 602.933 338.656C602.774 338.5 602.529 338.384 602.2 338.307L601.109 338.051C600.51 337.909 600.069 337.689 599.788 337.391C599.51 337.089 599.37 336.713 599.37 336.261C599.37 335.892 599.474 335.565 599.681 335.281C599.892 334.997 600.177 334.774 600.538 334.612C600.902 334.45 601.314 334.369 601.774 334.369C602.422 334.369 602.93 334.511 603.299 334.795C603.672 335.08 603.936 335.455 604.092 335.92Z" fill="black"/>
<path d="M771.972 332.273V341H770.915V333.381H770.864L768.733 334.795V333.722L770.915 332.273H771.972ZM777.277 341.119C776.692 341.119 776.175 341.016 775.726 340.808C775.28 340.598 774.932 340.31 774.682 339.943C774.432 339.574 774.308 339.153 774.311 338.682C774.308 338.312 774.381 337.972 774.528 337.659C774.676 337.344 774.878 337.081 775.134 336.871C775.392 336.658 775.68 336.523 775.999 336.466V336.415C775.581 336.307 775.249 336.072 775.001 335.712C774.754 335.348 774.632 334.935 774.635 334.472C774.632 334.028 774.744 333.632 774.972 333.283C775.199 332.933 775.511 332.658 775.909 332.456C776.31 332.254 776.766 332.153 777.277 332.153C777.783 332.153 778.234 332.254 778.632 332.456C779.03 332.658 779.342 332.933 779.57 333.283C779.8 333.632 779.916 334.028 779.919 334.472C779.916 334.935 779.79 335.348 779.54 335.712C779.293 336.072 778.964 336.307 778.555 336.415V336.466C778.871 336.523 779.155 336.658 779.408 336.871C779.661 337.081 779.862 337.344 780.013 337.659C780.163 337.972 780.24 338.312 780.243 338.682C780.24 339.153 780.112 339.574 779.859 339.943C779.609 340.31 779.261 340.598 778.815 340.808C778.372 341.016 777.859 341.119 777.277 341.119ZM777.277 340.182C777.672 340.182 778.013 340.118 778.3 339.99C778.587 339.862 778.808 339.682 778.964 339.449C779.121 339.216 779.2 338.943 779.203 338.631C779.2 338.301 779.115 338.01 778.947 337.757C778.78 337.504 778.551 337.305 778.261 337.161C777.974 337.016 777.646 336.943 777.277 336.943C776.905 336.943 776.572 337.016 776.28 337.161C775.99 337.305 775.761 337.504 775.594 337.757C775.429 338.01 775.348 338.301 775.351 338.631C775.348 338.943 775.423 339.216 775.577 339.449C775.733 339.682 775.956 339.862 776.246 339.99C776.536 340.118 776.879 340.182 777.277 340.182ZM777.277 336.04C777.589 336.04 777.866 335.977 778.108 335.852C778.352 335.727 778.544 335.553 778.683 335.328C778.822 335.104 778.893 334.841 778.896 334.54C778.893 334.244 778.824 333.987 778.688 333.768C778.551 333.547 778.362 333.376 778.121 333.257C777.879 333.135 777.598 333.074 777.277 333.074C776.95 333.074 776.665 333.135 776.42 333.257C776.176 333.376 775.987 333.547 775.854 333.768C775.72 333.987 775.655 334.244 775.658 334.54C775.655 334.841 775.722 335.104 775.858 335.328C775.997 335.553 776.189 335.727 776.433 335.852C776.678 335.977 776.959 336.04 777.277 336.04ZM784.723 341.119C784.081 341.119 783.534 340.945 783.082 340.595C782.63 340.243 782.285 339.733 782.047 339.065C781.808 338.395 781.689 337.585 781.689 336.636C781.689 335.693 781.808 334.888 782.047 334.22C782.288 333.55 782.635 333.038 783.086 332.686C783.541 332.331 784.086 332.153 784.723 332.153C785.359 332.153 785.903 332.331 786.355 332.686C786.809 333.038 787.156 333.55 787.395 334.22C787.636 334.888 787.757 335.693 787.757 336.636C787.757 337.585 787.637 338.395 787.399 339.065C787.16 339.733 786.815 340.243 786.363 340.595C785.912 340.945 785.365 341.119 784.723 341.119ZM784.723 340.182C785.359 340.182 785.853 339.875 786.206 339.261C786.558 338.648 786.734 337.773 786.734 336.636C786.734 335.881 786.653 335.237 786.491 334.706C786.332 334.175 786.102 333.77 785.801 333.491C785.502 333.213 785.143 333.074 784.723 333.074C784.092 333.074 783.599 333.385 783.244 334.007C782.889 334.626 782.711 335.503 782.711 336.636C782.711 337.392 782.791 338.034 782.95 338.562C783.109 339.091 783.338 339.493 783.636 339.768C783.937 340.044 784.299 340.182 784.723 340.182ZM795.24 341.136C794.694 341.136 794.213 340.999 793.795 340.723C793.377 340.445 793.051 340.053 792.815 339.547C792.579 339.038 792.461 338.438 792.461 337.744C792.461 337.057 792.579 336.46 792.815 335.955C793.051 335.449 793.379 335.058 793.799 334.783C794.22 334.507 794.706 334.369 795.257 334.369C795.683 334.369 796.02 334.44 796.267 334.582C796.517 334.722 796.707 334.881 796.838 335.06C796.971 335.236 797.075 335.381 797.149 335.494H797.234V332.273H798.24V341H797.268V339.994H797.149C797.075 340.114 796.97 340.264 796.833 340.446C796.697 340.625 796.502 340.786 796.25 340.928C795.997 341.067 795.66 341.136 795.24 341.136ZM795.376 340.233C795.779 340.233 796.12 340.128 796.399 339.918C796.677 339.705 796.889 339.411 797.034 339.036C797.179 338.658 797.251 338.222 797.251 337.727C797.251 337.239 797.18 336.811 797.038 336.445C796.896 336.075 796.686 335.788 796.407 335.584C796.129 335.376 795.785 335.273 795.376 335.273C794.95 335.273 794.595 335.382 794.311 335.601C794.029 335.817 793.818 336.111 793.676 336.483C793.537 336.852 793.467 337.267 793.467 337.727C793.467 338.193 793.538 338.616 793.68 338.997C793.825 339.375 794.038 339.676 794.319 339.901C794.603 340.122 794.956 340.233 795.376 340.233ZM802.147 341.153C801.733 341.153 801.356 341.075 801.018 340.919C800.68 340.76 800.412 340.531 800.213 340.233C800.014 339.932 799.914 339.568 799.914 339.142C799.914 338.767 799.988 338.463 800.136 338.23C800.284 337.994 800.481 337.81 800.728 337.676C800.975 337.543 801.248 337.443 801.547 337.378C801.848 337.31 802.15 337.256 802.454 337.216C802.852 337.165 803.174 337.126 803.422 337.101C803.672 337.072 803.853 337.026 803.967 336.96C804.083 336.895 804.142 336.781 804.142 336.619V336.585C804.142 336.165 804.027 335.838 803.797 335.605C803.569 335.372 803.224 335.256 802.761 335.256C802.281 335.256 801.904 335.361 801.632 335.571C801.359 335.781 801.167 336.006 801.056 336.244L800.102 335.903C800.272 335.506 800.5 335.196 800.784 334.974C801.071 334.75 801.383 334.594 801.721 334.506C802.062 334.415 802.397 334.369 802.727 334.369C802.937 334.369 803.179 334.395 803.451 334.446C803.727 334.494 803.993 334.595 804.248 334.749C804.507 334.902 804.721 335.134 804.892 335.443C805.062 335.753 805.147 336.168 805.147 336.688V341H804.142V340.114H804.091C804.022 340.256 803.909 340.408 803.75 340.57C803.591 340.732 803.379 340.869 803.115 340.983C802.85 341.097 802.528 341.153 802.147 341.153ZM802.301 340.25C802.699 340.25 803.034 340.172 803.306 340.016C803.582 339.859 803.789 339.658 803.929 339.411C804.071 339.163 804.142 338.903 804.142 338.631V337.71C804.099 337.761 804.005 337.808 803.86 337.851C803.718 337.891 803.554 337.926 803.366 337.957C803.181 337.986 803.001 338.011 802.825 338.034C802.652 338.054 802.511 338.071 802.403 338.085C802.142 338.119 801.897 338.175 801.67 338.251C801.446 338.325 801.264 338.437 801.125 338.588C800.988 338.736 800.92 338.937 800.92 339.193C800.92 339.543 801.049 339.807 801.308 339.986C801.569 340.162 801.9 340.25 802.301 340.25ZM807.396 343.455C807.226 343.455 807.074 343.44 806.94 343.412C806.807 343.386 806.714 343.361 806.663 343.335L806.919 342.449C807.163 342.511 807.379 342.534 807.567 342.517C807.754 342.5 807.92 342.416 808.065 342.266C808.213 342.118 808.348 341.878 808.47 341.545L808.658 341.034L806.237 334.455H807.328L809.135 339.67H809.203L811.01 334.455H812.101L809.322 341.955C809.197 342.293 809.043 342.572 808.858 342.794C808.673 343.018 808.459 343.185 808.214 343.293C807.973 343.401 807.7 343.455 807.396 343.455ZM818.065 335.92L817.161 336.176C817.104 336.026 817.021 335.879 816.91 335.737C816.802 335.592 816.654 335.473 816.467 335.379C816.279 335.286 816.039 335.239 815.746 335.239C815.346 335.239 815.012 335.331 814.745 335.516C814.481 335.697 814.349 335.929 814.349 336.21C814.349 336.46 814.44 336.658 814.621 336.803C814.803 336.947 815.087 337.068 815.474 337.165L816.445 337.403C817.031 337.545 817.467 337.763 817.754 338.055C818.04 338.345 818.184 338.719 818.184 339.176C818.184 339.551 818.076 339.886 817.86 340.182C817.647 340.477 817.349 340.71 816.965 340.881C816.582 341.051 816.136 341.136 815.627 341.136C814.96 341.136 814.407 340.991 813.969 340.702C813.532 340.412 813.255 339.989 813.138 339.432L814.093 339.193C814.184 339.545 814.356 339.81 814.609 339.986C814.864 340.162 815.198 340.25 815.61 340.25C816.079 340.25 816.451 340.151 816.727 339.952C817.005 339.75 817.144 339.509 817.144 339.227C817.144 339 817.065 338.81 816.906 338.656C816.746 338.5 816.502 338.384 816.173 338.307L815.082 338.051C814.482 337.909 814.042 337.689 813.761 337.391C813.482 337.089 813.343 336.713 813.343 336.261C813.343 335.892 813.447 335.565 813.654 335.281C813.864 334.997 814.15 334.774 814.511 334.612C814.874 334.45 815.286 334.369 815.746 334.369C816.394 334.369 816.903 334.511 817.272 334.795C817.644 335.08 817.908 335.455 818.065 335.92Z" fill="black"/>
<path d="M9.68182 17.1534C10.0398 17.1562 10.3977 17.2244 10.7557 17.358C11.1136 17.4915 11.4403 17.7131 11.7358 18.0227C12.0313 18.3295 12.2685 18.7486 12.4474 19.2798C12.6264 19.8111 12.7159 20.4773 12.7159 21.2784C12.7159 22.054 12.642 22.7429 12.4943 23.3452C12.3494 23.9446 12.1392 24.4503 11.8636 24.8622C11.5909 25.2741 11.2585 25.5866 10.8665 25.7997C10.4773 26.0128 10.0369 26.1193 9.54545 26.1193C9.05682 26.1193 8.62074 26.0227 8.23722 25.8295C7.85653 25.6335 7.54403 25.3622 7.29972 25.0156C7.05824 24.6662 6.90341 24.2614 6.83523 23.8011H7.875C7.96875 24.2017 8.15483 24.5327 8.43324 24.794C8.71449 25.0526 9.08523 25.1818 9.54545 25.1818C10.2188 25.1818 10.75 24.8878 11.1392 24.2997C11.5313 23.7116 11.7273 22.8807 11.7273 21.8068H11.6591C11.5 22.0455 11.3111 22.2514 11.0923 22.4247C10.8736 22.598 10.6307 22.7315 10.3636 22.8253C10.0966 22.919 9.8125 22.9659 9.51136 22.9659C9.01136 22.9659 8.55256 22.8423 8.13494 22.5952C7.72017 22.3452 7.38778 22.0028 7.13778 21.5682C6.89062 21.1307 6.76705 20.6307 6.76705 20.0682C6.76705 19.5341 6.88636 19.0455 7.125 18.6023C7.36648 18.1562 7.70455 17.8011 8.1392 17.5369C8.5767 17.2727 9.09091 17.1449 9.68182 17.1534ZM9.68182 18.0909C9.32386 18.0909 9.00142 18.1804 8.71449 18.3594C8.4304 18.5355 8.20455 18.7741 8.03693 19.0753C7.87216 19.3736 7.78977 19.7045 7.78977 20.0682C7.78977 20.4318 7.86932 20.7628 8.02841 21.0611C8.19034 21.3565 8.41051 21.5923 8.68892 21.7685C8.97017 21.9418 9.28977 22.0284 9.64773 22.0284C9.91761 22.0284 10.169 21.9759 10.402 21.8707C10.6349 21.7628 10.8381 21.6165 11.0114 21.4318C11.1875 21.2443 11.3253 21.0327 11.4247 20.7969C11.5241 20.5582 11.5739 20.3097 11.5739 20.0511C11.5739 19.7102 11.4915 19.3906 11.3267 19.0923C11.1648 18.794 10.9403 18.5526 10.6534 18.3679C10.3693 18.1832 10.0455 18.0909 9.68182 18.0909ZM17.2383 26.1193C16.5962 26.1193 16.0494 25.9446 15.5977 25.5952C15.146 25.2429 14.8008 24.733 14.5621 24.0653C14.3235 23.3949 14.2042 22.5852 14.2042 21.6364C14.2042 20.6932 14.3235 19.8878 14.5621 19.2202C14.8036 18.5497 15.1502 18.0384 15.6019 17.6861C16.0565 17.331 16.6019 17.1534 17.2383 17.1534C17.8746 17.1534 18.4187 17.331 18.8704 17.6861C19.3249 18.0384 19.6715 18.5497 19.9102 19.2202C20.1516 19.8878 20.2724 20.6932 20.2724 21.6364C20.2724 22.5852 20.1531 23.3949 19.9144 24.0653C19.6758 24.733 19.3306 25.2429 18.8789 25.5952C18.4272 25.9446 17.8803 26.1193 17.2383 26.1193ZM17.2383 25.1818C17.8746 25.1818 18.369 24.875 18.7212 24.2614C19.0735 23.6477 19.2496 22.7727 19.2496 21.6364C19.2496 20.8807 19.1687 20.2372 19.0067 19.706C18.8477 19.1747 18.6175 18.7699 18.3164 18.4915C18.0181 18.2131 17.6587 18.0739 17.2383 18.0739C16.6076 18.0739 16.1147 18.3849 15.7596 19.0071C15.4045 19.6264 15.2269 20.5028 15.2269 21.6364C15.2269 22.392 15.3065 23.0341 15.4656 23.5625C15.6246 24.0909 15.8533 24.4929 16.1516 24.7685C16.4528 25.044 16.815 25.1818 17.2383 25.1818ZM26.3406 24.3636V23.9034C26.3406 23.5852 26.4059 23.294 26.5366 23.0298C26.6701 22.7628 26.8633 22.5497 27.1161 22.3906C27.3718 22.2287 27.6815 22.1477 28.0451 22.1477C28.4144 22.1477 28.7241 22.2287 28.9741 22.3906C29.2241 22.5497 29.413 22.7628 29.5408 23.0298C29.6687 23.294 29.7326 23.5852 29.7326 23.9034V24.3636C29.7326 24.6818 29.6673 24.9744 29.5366 25.2415C29.4087 25.5057 29.2184 25.7187 28.9656 25.8807C28.7156 26.0398 28.4087 26.1193 28.0451 26.1193C27.6758 26.1193 27.3647 26.0398 27.1119 25.8807C26.859 25.7187 26.6673 25.5057 26.5366 25.2415C26.4059 24.9744 26.3406 24.6818 26.3406 24.3636ZM27.2099 23.9034V24.3636C27.2099 24.6278 27.2724 24.8651 27.3974 25.0753C27.5224 25.2827 27.7383 25.3864 28.0451 25.3864C28.3434 25.3864 28.5536 25.2827 28.6758 25.0753C28.8008 24.8651 28.8633 24.6278 28.8633 24.3636V23.9034C28.8633 23.6392 28.8036 23.4034 28.6843 23.196C28.565 22.9858 28.3519 22.8807 28.0451 22.8807C27.7468 22.8807 27.5323 22.9858 27.4016 23.196C27.2738 23.4034 27.2099 23.6392 27.2099 23.9034ZM21.994 19.3693V18.9091C21.994 18.5909 22.0593 18.2997 22.19 18.0355C22.3235 17.7685 22.5167 17.5554 22.7695 17.3963C23.0252 17.2344 23.3349 17.1534 23.6985 17.1534C24.0678 17.1534 24.3775 17.2344 24.6275 17.3963C24.8775 17.5554 25.0664 17.7685 25.1942 18.0355C25.3221 18.2997 25.386 18.5909 25.386 18.9091V19.3693C25.386 19.6875 25.3207 19.9801 25.19 20.2472C25.0621 20.5114 24.8718 20.7244 24.619 20.8864C24.369 21.0455 24.0621 21.125 23.6985 21.125C23.3292 21.125 23.0181 21.0455 22.7653 20.8864C22.5124 20.7244 22.3207 20.5114 22.19 20.2472C22.0593 19.9801 21.994 19.6875 21.994 19.3693ZM22.8633 18.9091V19.3693C22.8633 19.6335 22.9258 19.8707 23.0508 20.081C23.1758 20.2884 23.3917 20.392 23.6985 20.392C23.9968 20.392 24.207 20.2884 24.3292 20.081C24.4542 19.8707 24.5167 19.6335 24.5167 19.3693V18.9091C24.5167 18.6449 24.457 18.4091 24.3377 18.2017C24.2184 17.9915 24.0053 17.8864 23.6985 17.8864C23.4002 17.8864 23.1857 17.9915 23.055 18.2017C22.9272 18.4091 22.8633 18.6449 22.8633 18.9091ZM22.3178 26L28.3178 17.2727H29.2894L23.2894 26H22.3178Z" fill="black"/>
<path d="M276.176 86L280.08 78.2784V78.2102H275.58V77.2727H281.17V78.2614L277.284 86H276.176ZM282.759 86V85.233L285.64 82.0795C285.978 81.7102 286.256 81.3892 286.475 81.1165C286.694 80.8409 286.855 80.5824 286.961 80.3409C287.069 80.0966 287.123 79.8409 287.123 79.5739C287.123 79.267 287.049 79.0014 286.901 78.777C286.756 78.5526 286.557 78.3793 286.304 78.2571C286.051 78.1349 285.767 78.0739 285.452 78.0739C285.117 78.0739 284.824 78.1435 284.574 78.2827C284.327 78.419 284.135 78.6108 283.999 78.858C283.865 79.1051 283.799 79.3949 283.799 79.7273H282.793C282.793 79.2159 282.911 78.767 283.147 78.3807C283.382 77.9943 283.703 77.6932 284.11 77.4773C284.519 77.2614 284.978 77.1534 285.486 77.1534C285.998 77.1534 286.451 77.2614 286.846 77.4773C287.24 77.6932 287.55 77.9844 287.775 78.3509C287.999 78.7173 288.111 79.125 288.111 79.5739C288.111 79.8949 288.053 80.2088 287.936 80.5156C287.823 80.8196 287.624 81.1591 287.34 81.5341C287.059 81.9062 286.668 82.3608 286.168 82.8977L284.208 84.9943V85.0625H288.265V86H282.759ZM294.473 84.3636V83.9034C294.473 83.5852 294.539 83.294 294.669 83.0298C294.803 82.7628 294.996 82.5497 295.249 82.3906C295.505 82.2287 295.814 82.1477 296.178 82.1477C296.547 82.1477 296.857 82.2287 297.107 82.3906C297.357 82.5497 297.546 82.7628 297.674 83.0298C297.801 83.294 297.865 83.5852 297.865 83.9034V84.3636C297.865 84.6818 297.8 84.9744 297.669 85.2415C297.542 85.5057 297.351 85.7187 297.098 85.8807C296.848 86.0398 296.542 86.1193 296.178 86.1193C295.809 86.1193 295.498 86.0398 295.245 85.8807C294.992 85.7187 294.8 85.5057 294.669 85.2415C294.539 84.9744 294.473 84.6818 294.473 84.3636ZM295.343 83.9034V84.3636C295.343 84.6278 295.405 84.8651 295.53 85.0753C295.655 85.2827 295.871 85.3864 296.178 85.3864C296.476 85.3864 296.686 85.2827 296.809 85.0753C296.934 84.8651 296.996 84.6278 296.996 84.3636V83.9034C296.996 83.6392 296.936 83.4034 296.817 83.196C296.698 82.9858 296.485 82.8807 296.178 82.8807C295.88 82.8807 295.665 82.9858 295.534 83.196C295.407 83.4034 295.343 83.6392 295.343 83.9034ZM290.127 79.3693V78.9091C290.127 78.5909 290.192 78.2997 290.323 78.0355C290.456 77.7685 290.65 77.5554 290.902 77.3963C291.158 77.2344 291.468 77.1534 291.831 77.1534C292.201 77.1534 292.51 77.2344 292.76 77.3963C293.01 77.5554 293.199 77.7685 293.327 78.0355C293.455 78.2997 293.519 78.5909 293.519 78.9091V79.3693C293.519 79.6875 293.453 79.9801 293.323 80.2472C293.195 80.5114 293.005 80.7244 292.752 80.8864C292.502 81.0455 292.195 81.125 291.831 81.125C291.462 81.125 291.151 81.0455 290.898 80.8864C290.645 80.7244 290.453 80.5114 290.323 80.2472C290.192 79.9801 290.127 79.6875 290.127 79.3693ZM290.996 78.9091V79.3693C290.996 79.6335 291.059 79.8707 291.184 80.081C291.309 80.2884 291.525 80.392 291.831 80.392C292.13 80.392 292.34 80.2884 292.462 80.081C292.587 79.8707 292.65 79.6335 292.65 79.3693V78.9091C292.65 78.6449 292.59 78.4091 292.471 78.2017C292.351 77.9915 292.138 77.8864 291.831 77.8864C291.533 77.8864 291.319 77.9915 291.188 78.2017C291.06 78.4091 290.996 78.6449 290.996 78.9091ZM290.451 86L296.451 77.2727H297.422L291.422 86H290.451Z" fill="black"/>
<path d="M520.852 187.119C520.29 187.119 519.788 187.023 519.348 186.83C518.911 186.636 518.563 186.368 518.304 186.024C518.048 185.678 517.909 185.276 517.886 184.818H518.96C518.983 185.099 519.08 185.342 519.25 185.547C519.42 185.749 519.643 185.905 519.919 186.016C520.195 186.126 520.5 186.182 520.835 186.182C521.21 186.182 521.543 186.116 521.832 185.986C522.122 185.855 522.349 185.673 522.514 185.44C522.679 185.207 522.761 184.938 522.761 184.631C522.761 184.31 522.682 184.027 522.523 183.783C522.364 183.536 522.131 183.342 521.824 183.203C521.517 183.064 521.142 182.994 520.699 182.994H520V182.057H520.699C521.045 182.057 521.349 181.994 521.611 181.869C521.875 181.744 522.081 181.568 522.229 181.341C522.379 181.114 522.455 180.847 522.455 180.54C522.455 180.244 522.389 179.987 522.259 179.768C522.128 179.55 521.943 179.379 521.705 179.257C521.469 179.135 521.19 179.074 520.869 179.074C520.568 179.074 520.284 179.129 520.017 179.24C519.753 179.348 519.537 179.506 519.369 179.713C519.202 179.918 519.111 180.165 519.097 180.455H518.074C518.091 179.997 518.229 179.597 518.487 179.253C518.746 178.906 519.084 178.636 519.501 178.443C519.922 178.25 520.384 178.153 520.886 178.153C521.426 178.153 521.889 178.263 522.276 178.482C522.662 178.697 522.959 178.983 523.166 179.338C523.374 179.693 523.477 180.077 523.477 180.489C523.477 180.98 523.348 181.399 523.089 181.746C522.834 182.092 522.486 182.332 522.045 182.466V182.534C522.597 182.625 523.027 182.859 523.337 183.237C523.646 183.612 523.801 184.077 523.801 184.631C523.801 185.105 523.672 185.531 523.413 185.909C523.158 186.284 522.808 186.58 522.365 186.795C521.922 187.011 521.418 187.119 520.852 187.119ZM525.817 187L529.72 179.278V179.21H525.22V178.273H530.811V179.261L526.925 187H525.817ZM536.848 185.364V184.903C536.848 184.585 536.914 184.294 537.044 184.03C537.178 183.763 537.371 183.55 537.624 183.391C537.88 183.229 538.189 183.148 538.553 183.148C538.922 183.148 539.232 183.229 539.482 183.391C539.732 183.55 539.921 183.763 540.049 184.03C540.176 184.294 540.24 184.585 540.24 184.903V185.364C540.24 185.682 540.175 185.974 540.044 186.241C539.917 186.506 539.726 186.719 539.473 186.881C539.223 187.04 538.917 187.119 538.553 187.119C538.184 187.119 537.873 187.04 537.62 186.881C537.367 186.719 537.175 186.506 537.044 186.241C536.914 185.974 536.848 185.682 536.848 185.364ZM537.718 184.903V185.364C537.718 185.628 537.78 185.865 537.905 186.075C538.03 186.283 538.246 186.386 538.553 186.386C538.851 186.386 539.061 186.283 539.184 186.075C539.309 185.865 539.371 185.628 539.371 185.364V184.903C539.371 184.639 539.311 184.403 539.192 184.196C539.073 183.986 538.86 183.881 538.553 183.881C538.255 183.881 538.04 183.986 537.909 184.196C537.782 184.403 537.718 184.639 537.718 184.903ZM532.502 180.369V179.909C532.502 179.591 532.567 179.3 532.698 179.036C532.831 178.768 533.025 178.555 533.277 178.396C533.533 178.234 533.843 178.153 534.206 178.153C534.576 178.153 534.885 178.234 535.135 178.396C535.385 178.555 535.574 178.768 535.702 179.036C535.83 179.3 535.894 179.591 535.894 179.909V180.369C535.894 180.687 535.828 180.98 535.698 181.247C535.57 181.511 535.38 181.724 535.127 181.886C534.877 182.045 534.57 182.125 534.206 182.125C533.837 182.125 533.526 182.045 533.273 181.886C533.02 181.724 532.828 181.511 532.698 181.247C532.567 180.98 532.502 180.687 532.502 180.369ZM533.371 179.909V180.369C533.371 180.634 533.434 180.871 533.559 181.081C533.684 181.288 533.9 181.392 534.206 181.392C534.505 181.392 534.715 181.288 534.837 181.081C534.962 180.871 535.025 180.634 535.025 180.369V179.909C535.025 179.645 534.965 179.409 534.846 179.202C534.726 178.991 534.513 178.886 534.206 178.886C533.908 178.886 533.694 178.991 533.563 179.202C533.435 179.409 533.371 179.645 533.371 179.909ZM532.826 187L538.826 178.273H539.797L533.797 187H532.826Z" fill="black"/>
<path d="M770.972 113.273V122H769.915V114.381H769.864L767.733 115.795V114.722L769.915 113.273H770.972ZM773.277 120.21V119.341L777.112 113.273H777.743V114.619H777.317L774.419 119.205V119.273H779.584V120.21H773.277ZM777.385 122V119.946V119.541V113.273H778.391V122H777.385ZM784.13 122.119C783.567 122.119 783.066 122.023 782.625 121.83C782.188 121.636 781.84 121.368 781.581 121.024C781.326 120.678 781.186 120.276 781.164 119.818H782.238C782.26 120.099 782.357 120.342 782.527 120.547C782.698 120.749 782.921 120.905 783.196 121.016C783.472 121.126 783.777 121.182 784.113 121.182C784.488 121.182 784.82 121.116 785.11 120.986C785.4 120.855 785.627 120.673 785.792 120.44C785.956 120.207 786.039 119.938 786.039 119.631C786.039 119.31 785.959 119.027 785.8 118.783C785.641 118.536 785.408 118.342 785.101 118.203C784.794 118.064 784.419 117.994 783.976 117.994H783.277V117.057H783.976C784.323 117.057 784.627 116.994 784.888 116.869C785.152 116.744 785.358 116.568 785.506 116.341C785.657 116.114 785.732 115.847 785.732 115.54C785.732 115.244 785.667 114.987 785.536 114.768C785.405 114.55 785.221 114.379 784.982 114.257C784.746 114.135 784.468 114.074 784.147 114.074C783.846 114.074 783.561 114.129 783.294 114.24C783.03 114.348 782.814 114.506 782.647 114.713C782.479 114.918 782.388 115.165 782.374 115.455H781.351C781.368 114.997 781.506 114.597 781.765 114.253C782.023 113.906 782.361 113.636 782.779 113.443C783.199 113.25 783.661 113.153 784.164 113.153C784.703 113.153 785.167 113.263 785.553 113.482C785.939 113.697 786.236 113.983 786.444 114.338C786.651 114.693 786.755 115.077 786.755 115.489C786.755 115.98 786.625 116.399 786.367 116.746C786.111 117.092 785.763 117.332 785.323 117.466V117.534C785.874 117.625 786.304 117.859 786.614 118.237C786.924 118.612 787.078 119.077 787.078 119.631C787.078 120.105 786.949 120.531 786.691 120.909C786.435 121.284 786.086 121.58 785.642 121.795C785.199 122.011 784.695 122.119 784.13 122.119ZM794.685 122.136C794.14 122.136 793.658 121.999 793.24 121.723C792.823 121.445 792.496 121.053 792.26 120.547C792.025 120.038 791.907 119.438 791.907 118.744C791.907 118.057 792.025 117.46 792.26 116.955C792.496 116.449 792.824 116.058 793.245 115.783C793.665 115.507 794.151 115.369 794.702 115.369C795.128 115.369 795.465 115.44 795.712 115.582C795.962 115.722 796.152 115.881 796.283 116.06C796.417 116.236 796.52 116.381 796.594 116.494H796.679V113.273H797.685V122H796.713V120.994H796.594C796.52 121.114 796.415 121.264 796.279 121.446C796.142 121.625 795.948 121.786 795.695 121.928C795.442 122.067 795.105 122.136 794.685 122.136ZM794.821 121.233C795.225 121.233 795.566 121.128 795.844 120.918C796.123 120.705 796.334 120.411 796.479 120.036C796.624 119.658 796.696 119.222 796.696 118.727C796.696 118.239 796.625 117.811 796.483 117.445C796.341 117.075 796.131 116.788 795.853 116.584C795.574 116.376 795.23 116.273 794.821 116.273C794.395 116.273 794.04 116.382 793.756 116.601C793.475 116.817 793.263 117.111 793.121 117.483C792.982 117.852 792.912 118.267 792.912 118.727C792.912 119.193 792.983 119.616 793.125 119.997C793.27 120.375 793.483 120.676 793.765 120.901C794.049 121.122 794.401 121.233 794.821 121.233ZM801.593 122.153C801.178 122.153 800.801 122.075 800.463 121.919C800.125 121.76 799.857 121.531 799.658 121.233C799.459 120.932 799.36 120.568 799.36 120.142C799.36 119.767 799.434 119.463 799.581 119.23C799.729 118.994 799.926 118.81 800.174 118.676C800.421 118.543 800.694 118.443 800.992 118.378C801.293 118.31 801.596 118.256 801.9 118.216C802.297 118.165 802.62 118.126 802.867 118.101C803.117 118.072 803.299 118.026 803.412 117.96C803.529 117.895 803.587 117.781 803.587 117.619V117.585C803.587 117.165 803.472 116.838 803.242 116.605C803.015 116.372 802.669 116.256 802.206 116.256C801.726 116.256 801.35 116.361 801.077 116.571C800.804 116.781 800.613 117.006 800.502 117.244L799.547 116.903C799.718 116.506 799.945 116.196 800.229 115.974C800.516 115.75 800.828 115.594 801.167 115.506C801.507 115.415 801.843 115.369 802.172 115.369C802.382 115.369 802.624 115.395 802.897 115.446C803.172 115.494 803.438 115.595 803.694 115.749C803.952 115.902 804.167 116.134 804.337 116.443C804.507 116.753 804.593 117.168 804.593 117.688V122H803.587V121.114H803.536C803.468 121.256 803.354 121.408 803.195 121.57C803.036 121.732 802.824 121.869 802.56 121.983C802.296 122.097 801.973 122.153 801.593 122.153ZM801.746 121.25C802.144 121.25 802.479 121.172 802.752 121.016C803.027 120.859 803.235 120.658 803.374 120.411C803.516 120.163 803.587 119.903 803.587 119.631V118.71C803.544 118.761 803.451 118.808 803.306 118.851C803.164 118.891 802.999 118.926 802.811 118.957C802.627 118.986 802.446 119.011 802.27 119.034C802.097 119.054 801.956 119.071 801.848 119.085C801.587 119.119 801.343 119.175 801.115 119.251C800.891 119.325 800.709 119.437 800.57 119.588C800.434 119.736 800.365 119.937 800.365 120.193C800.365 120.543 800.495 120.807 800.753 120.986C801.015 121.162 801.346 121.25 801.746 121.25ZM806.842 124.455C806.671 124.455 806.519 124.44 806.386 124.412C806.252 124.386 806.16 124.361 806.109 124.335L806.364 123.449C806.609 123.511 806.825 123.534 807.012 123.517C807.2 123.5 807.366 123.416 807.511 123.266C807.658 123.118 807.793 122.878 807.915 122.545L808.103 122.034L805.683 115.455H806.773L808.58 120.67H808.648L810.455 115.455H811.546L808.768 122.955C808.643 123.293 808.488 123.572 808.303 123.794C808.119 124.018 807.904 124.185 807.66 124.293C807.418 124.401 807.146 124.455 806.842 124.455ZM817.51 116.92L816.607 117.176C816.55 117.026 816.466 116.879 816.355 116.737C816.247 116.592 816.099 116.473 815.912 116.379C815.724 116.286 815.484 116.239 815.192 116.239C814.791 116.239 814.457 116.331 814.19 116.516C813.926 116.697 813.794 116.929 813.794 117.21C813.794 117.46 813.885 117.658 814.067 117.803C814.249 117.947 814.533 118.068 814.919 118.165L815.891 118.403C816.476 118.545 816.912 118.763 817.199 119.055C817.486 119.345 817.629 119.719 817.629 120.176C817.629 120.551 817.521 120.886 817.305 121.182C817.092 121.477 816.794 121.71 816.411 121.881C816.027 122.051 815.581 122.136 815.072 122.136C814.405 122.136 813.852 121.991 813.415 121.702C812.977 121.412 812.7 120.989 812.584 120.432L813.538 120.193C813.629 120.545 813.801 120.81 814.054 120.986C814.31 121.162 814.643 121.25 815.055 121.25C815.524 121.25 815.896 121.151 816.172 120.952C816.45 120.75 816.589 120.509 816.589 120.227C816.589 120 816.51 119.81 816.351 119.656C816.192 119.5 815.947 119.384 815.618 119.307L814.527 119.051C813.928 118.909 813.487 118.689 813.206 118.391C812.928 118.089 812.788 117.713 812.788 117.261C812.788 116.892 812.892 116.565 813.099 116.281C813.31 115.997 813.595 115.774 813.956 115.612C814.32 115.45 814.732 115.369 815.192 115.369C815.839 115.369 816.348 115.511 816.717 115.795C817.089 116.08 817.354 116.455 817.51 116.92Z" fill="black"/>
<path d="M562 127L826 127" stroke="black" stroke-width="2" stroke-linecap="square"/>
<path d="M0.207162 33.5856C174.37 52.0386 399.557 127.576 561.869 220.176" stroke="black" stroke-width="2"/>
</g>
<defs>
<clipPath id="clip0_10181_14786">
<rect width="825" height="350" fill="white"/>
</clipPath>
</defs>
</svg>
