<svg width="825" height="350" viewBox="0 0 825 350" fill="none" xmlns="http://www.w3.org/2000/svg">
<g opacity="0.1">
<path d="M561 0H0V350H561V0Z" fill="#F6B81A"/>
<path d="M825 0H561V350H825V0Z" fill="#F9386D"/>
</g>
<path fill-rule="evenodd" clip-rule="evenodd" d="M561 0V350H0C216.171 297.693 361.472 238.75 435.903 173.172C510.334 107.594 552.033 49.8698 561 0Z" fill="#F6B81A"/>
<path fill-rule="evenodd" clip-rule="evenodd" d="M561 0V350H825C825 222 789.549 141 740.52 80.9999C691.491 20.9999 609.651 0 561 0Z" fill="#F9386D"/>
<path d="M1 168H824" stroke="white" stroke-opacity="0.5" stroke-width="2" stroke-linecap="round"/>
<path d="M6.05682 162V153.273H9.00568C9.69034 153.273 10.25 153.396 10.6847 153.643C11.1222 153.888 11.446 154.219 11.6562 154.636C11.8665 155.054 11.9716 155.52 11.9716 156.034C11.9716 156.548 11.8665 157.016 11.6562 157.436C11.4489 157.857 11.1278 158.192 10.6932 158.442C10.2585 158.689 9.7017 158.812 9.02273 158.812H6.90909V157.875H8.98864C9.45739 157.875 9.83381 157.794 10.1179 157.632C10.402 157.47 10.608 157.251 10.7358 156.976C10.8665 156.697 10.9318 156.384 10.9318 156.034C10.9318 155.685 10.8665 155.372 10.7358 155.097C10.608 154.821 10.4006 154.605 10.1136 154.449C9.8267 154.29 9.44602 154.21 8.97159 154.21H7.11364V162H6.05682ZM13.674 162V153.273H16.6229C17.3047 153.273 17.8643 153.389 18.3018 153.622C18.7393 153.852 19.0632 154.169 19.2734 154.572C19.4837 154.976 19.5888 155.435 19.5888 155.949C19.5888 156.463 19.4837 156.919 19.2734 157.317C19.0632 157.714 18.7408 158.027 18.3061 158.254C17.8714 158.479 17.3161 158.591 16.6399 158.591H14.2536V157.636H16.6058C17.0717 157.636 17.4467 157.568 17.7308 157.432C18.0178 157.295 18.2251 157.102 18.353 156.852C18.4837 156.599 18.549 156.298 18.549 155.949C18.549 155.599 18.4837 155.294 18.353 155.033C18.2223 154.771 18.0135 154.57 17.7266 154.428C17.4396 154.283 17.0604 154.21 16.5888 154.21H14.7308V162H13.674ZM17.782 158.08L19.9297 162H18.7024L16.5888 158.08H17.782ZM28.7134 157.636C28.7134 158.557 28.5472 159.352 28.2148 160.023C27.8825 160.693 27.4265 161.21 26.8469 161.574C26.2674 161.938 25.6055 162.119 24.8612 162.119C24.1168 162.119 23.4549 161.938 22.8754 161.574C22.2958 161.21 21.8398 160.693 21.5075 160.023C21.1751 159.352 21.0089 158.557 21.0089 157.636C21.0089 156.716 21.1751 155.92 21.5075 155.25C21.8398 154.58 22.2958 154.062 22.8754 153.699C23.4549 153.335 24.1168 153.153 24.8612 153.153C25.6055 153.153 26.2674 153.335 26.8469 153.699C27.4265 154.062 27.8825 154.58 28.2148 155.25C28.5472 155.92 28.7134 156.716 28.7134 157.636ZM27.6907 157.636C27.6907 156.881 27.5643 156.243 27.3114 155.723C27.0614 155.203 26.7219 154.81 26.293 154.543C25.8668 154.276 25.3896 154.142 24.8612 154.142C24.3327 154.142 23.854 154.276 23.4251 154.543C22.9989 154.81 22.6594 155.203 22.4066 155.723C22.1566 156.243 22.0316 156.881 22.0316 157.636C22.0316 158.392 22.1566 159.03 22.4066 159.55C22.6594 160.07 22.9989 160.463 23.4251 160.73C23.854 160.997 24.3327 161.131 24.8612 161.131C25.3896 161.131 25.8668 160.997 26.293 160.73C26.7219 160.463 27.0614 160.07 27.3114 159.55C27.5643 159.03 27.6907 158.392 27.6907 157.636ZM30.4904 162V153.273H35.7234V154.21H31.5472V157.159H35.3313V158.097H31.5472V162H30.4904ZM38.5902 153.273V162H37.5334V153.273H38.5902ZM40.2319 154.21V153.273H46.7773V154.21H44.033V162H42.9762V154.21H40.2319ZM51.7834 162V153.273H52.8402V161.062H56.897V162H51.7834ZM59.5902 153.273V162H58.5334V153.273H59.5902ZM68.6296 153.273V162H67.6069L62.8512 155.148H62.766V162H61.7092V153.273H62.7319L67.5046 160.142H67.5898V153.273H68.6296ZM70.7443 162V153.273H76.0114V154.21H71.8011V157.159H75.7386V158.097H71.8011V161.062H76.0795V162H70.7443Z" fill="white"/>
</svg>
