<svg width="825" height="350" viewBox="0 0 825 350" fill="none" xmlns="http://www.w3.org/2000/svg">
<g clip-path="url(#clip0_10541_15442)">
<rect width="825" height="350" fill="white"/>
<g opacity="0.25">
<path d="M561 0H0V350H561V0Z" fill="#F6B81A"/>
<rect x="561" y="126" width="264" height="224" fill="#D9D9D9"/>
<path d="M825 0H561V350H825V0Z" fill="#F9386D"/>
</g>
<path fill-rule="evenodd" clip-rule="evenodd" d="M561 0V350H825C825 222 789.549 141 740.52 80.9999C691.491 20.9999 609.651 0 561 0Z" fill="#F9386D"/>
<path fill-rule="evenodd" clip-rule="evenodd" d="M561 0V350H0C216.171 297.693 359.306 236.844 435.903 173.172C512.5 109.5 552.033 49.8698 561 0Z" fill="#F6B81A"/>
<path d="M9.75 342.119C9.10795 342.119 8.56108 341.945 8.10938 341.595C7.65767 341.243 7.3125 340.733 7.07386 340.065C6.83523 339.395 6.71591 338.585 6.71591 337.636C6.71591 336.693 6.83523 335.888 7.07386 335.22C7.31534 334.55 7.66193 334.038 8.11364 333.686C8.56818 333.331 9.11364 333.153 9.75 333.153C10.3864 333.153 10.9304 333.331 11.3821 333.686C11.8366 334.038 12.1832 334.55 12.4219 335.22C12.6634 335.888 12.7841 336.693 12.7841 337.636C12.7841 338.585 12.6648 339.395 12.4261 340.065C12.1875 340.733 11.8423 341.243 11.3906 341.595C10.9389 341.945 10.392 342.119 9.75 342.119ZM9.75 341.182C10.3864 341.182 10.8807 340.875 11.233 340.261C11.5852 339.648 11.7614 338.773 11.7614 337.636C11.7614 336.881 11.6804 336.237 11.5185 335.706C11.3594 335.175 11.1293 334.77 10.8281 334.491C10.5298 334.213 10.1705 334.074 9.75 334.074C9.11932 334.074 8.62642 334.385 8.27131 335.007C7.91619 335.626 7.73864 336.503 7.73864 337.636C7.73864 338.392 7.81818 339.034 7.97727 339.562C8.13636 340.091 8.36506 340.493 8.66335 340.768C8.96449 341.044 9.3267 341.182 9.75 341.182ZM18.8523 340.364V339.903C18.8523 339.585 18.9176 339.294 19.0483 339.03C19.1818 338.763 19.375 338.55 19.6278 338.391C19.8835 338.229 20.1932 338.148 20.5568 338.148C20.9261 338.148 21.2358 338.229 21.4858 338.391C21.7358 338.55 21.9247 338.763 22.0526 339.03C22.1804 339.294 22.2443 339.585 22.2443 339.903V340.364C22.2443 340.682 22.179 340.974 22.0483 341.241C21.9205 341.506 21.7301 341.719 21.4773 341.881C21.2273 342.04 20.9205 342.119 20.5568 342.119C20.1875 342.119 19.8764 342.04 19.6236 341.881C19.3707 341.719 19.179 341.506 19.0483 341.241C18.9176 340.974 18.8523 340.682 18.8523 340.364ZM19.7216 339.903V340.364C19.7216 340.628 19.7841 340.865 19.9091 341.075C20.0341 341.283 20.25 341.386 20.5568 341.386C20.8551 341.386 21.0653 341.283 21.1875 341.075C21.3125 340.865 21.375 340.628 21.375 340.364V339.903C21.375 339.639 21.3153 339.403 21.196 339.196C21.0767 338.986 20.8636 338.881 20.5568 338.881C20.2585 338.881 20.044 338.986 19.9134 339.196C19.7855 339.403 19.7216 339.639 19.7216 339.903ZM14.5057 335.369V334.909C14.5057 334.591 14.571 334.3 14.7017 334.036C14.8352 333.768 15.0284 333.555 15.2812 333.396C15.5369 333.234 15.8466 333.153 16.2102 333.153C16.5795 333.153 16.8892 333.234 17.1392 333.396C17.3892 333.555 17.5781 333.768 17.706 334.036C17.8338 334.3 17.8977 334.591 17.8977 334.909V335.369C17.8977 335.687 17.8324 335.98 17.7017 336.247C17.5739 336.511 17.3835 336.724 17.1307 336.886C16.8807 337.045 16.5739 337.125 16.2102 337.125C15.8409 337.125 15.5298 337.045 15.277 336.886C15.0241 336.724 14.8324 336.511 14.7017 336.247C14.571 335.98 14.5057 335.687 14.5057 335.369ZM15.375 334.909V335.369C15.375 335.634 15.4375 335.871 15.5625 336.081C15.6875 336.288 15.9034 336.392 16.2102 336.392C16.5085 336.392 16.7188 336.288 16.8409 336.081C16.9659 335.871 17.0284 335.634 17.0284 335.369V334.909C17.0284 334.645 16.9688 334.409 16.8494 334.202C16.7301 333.991 16.517 333.886 16.2102 333.886C15.9119 333.886 15.6974 333.991 15.5668 334.202C15.4389 334.409 15.375 334.645 15.375 334.909ZM14.8295 342L20.8295 333.273H21.8011L15.8011 342H14.8295Z" fill="black"/>
<path d="M529.972 333.273V342H528.915V334.381H528.864L526.733 335.795V334.722L528.915 333.273H529.972ZM535.328 342.119C534.686 342.119 534.139 341.945 533.688 341.595C533.236 341.243 532.891 340.733 532.652 340.065C532.413 339.395 532.294 338.585 532.294 337.636C532.294 336.693 532.413 335.888 532.652 335.22C532.893 334.55 533.24 334.038 533.692 333.686C534.146 333.331 534.692 333.153 535.328 333.153C535.964 333.153 536.509 333.331 536.96 333.686C537.415 334.038 537.761 334.55 538 335.22C538.241 335.888 538.362 336.693 538.362 337.636C538.362 338.585 538.243 339.395 538.004 340.065C537.766 340.733 537.42 341.243 536.969 341.595C536.517 341.945 535.97 342.119 535.328 342.119ZM535.328 341.182C535.964 341.182 536.459 340.875 536.811 340.261C537.163 339.648 537.339 338.773 537.339 337.636C537.339 336.881 537.259 336.237 537.097 335.706C536.938 335.175 536.707 334.77 536.406 334.491C536.108 334.213 535.749 334.074 535.328 334.074C534.697 334.074 534.205 334.385 533.849 335.007C533.494 335.626 533.317 336.503 533.317 337.636C533.317 338.392 533.396 339.034 533.555 339.562C533.714 340.091 533.943 340.493 534.241 340.768C534.543 341.044 534.905 341.182 535.328 341.182ZM542.828 342.119C542.186 342.119 541.639 341.945 541.188 341.595C540.736 341.243 540.391 340.733 540.152 340.065C539.913 339.395 539.794 338.585 539.794 337.636C539.794 336.693 539.913 335.888 540.152 335.22C540.393 334.55 540.74 334.038 541.192 333.686C541.646 333.331 542.192 333.153 542.828 333.153C543.464 333.153 544.009 333.331 544.46 333.686C544.915 334.038 545.261 334.55 545.5 335.22C545.741 335.888 545.862 336.693 545.862 337.636C545.862 338.585 545.743 339.395 545.504 340.065C545.266 340.733 544.92 341.243 544.469 341.595C544.017 341.945 543.47 342.119 542.828 342.119ZM542.828 341.182C543.464 341.182 543.959 340.875 544.311 340.261C544.663 339.648 544.839 338.773 544.839 337.636C544.839 336.881 544.759 336.237 544.597 335.706C544.438 335.175 544.207 334.77 543.906 334.491C543.608 334.213 543.249 334.074 542.828 334.074C542.197 334.074 541.705 334.385 541.349 335.007C540.994 335.626 540.817 336.503 540.817 337.636C540.817 338.392 540.896 339.034 541.055 339.562C541.214 340.091 541.443 340.493 541.741 340.768C542.043 341.044 542.405 341.182 542.828 341.182ZM551.93 340.364V339.903C551.93 339.585 551.996 339.294 552.126 339.03C552.26 338.763 552.453 338.55 552.706 338.391C552.962 338.229 553.271 338.148 553.635 338.148C554.004 338.148 554.314 338.229 554.564 338.391C554.814 338.55 555.003 338.763 555.131 339.03C555.259 339.294 555.322 339.585 555.322 339.903V340.364C555.322 340.682 555.257 340.974 555.126 341.241C554.999 341.506 554.808 341.719 554.555 341.881C554.305 342.04 553.999 342.119 553.635 342.119C553.266 342.119 552.955 342.04 552.702 341.881C552.449 341.719 552.257 341.506 552.126 341.241C551.996 340.974 551.93 340.682 551.93 340.364ZM552.8 339.903V340.364C552.8 340.628 552.862 340.865 552.987 341.075C553.112 341.283 553.328 341.386 553.635 341.386C553.933 341.386 554.143 341.283 554.266 341.075C554.391 340.865 554.453 340.628 554.453 340.364V339.903C554.453 339.639 554.393 339.403 554.274 339.196C554.155 338.986 553.942 338.881 553.635 338.881C553.337 338.881 553.122 338.986 552.991 339.196C552.864 339.403 552.8 339.639 552.8 339.903ZM547.584 335.369V334.909C547.584 334.591 547.649 334.3 547.78 334.036C547.913 333.768 548.107 333.555 548.359 333.396C548.615 333.234 548.925 333.153 549.288 333.153C549.658 333.153 549.967 333.234 550.217 333.396C550.467 333.555 550.656 333.768 550.784 334.036C550.912 334.3 550.976 334.591 550.976 334.909V335.369C550.976 335.687 550.911 335.98 550.78 336.247C550.652 336.511 550.462 336.724 550.209 336.886C549.959 337.045 549.652 337.125 549.288 337.125C548.919 337.125 548.608 337.045 548.355 336.886C548.102 336.724 547.911 336.511 547.78 336.247C547.649 335.98 547.584 335.687 547.584 335.369ZM548.453 334.909V335.369C548.453 335.634 548.516 335.871 548.641 336.081C548.766 336.288 548.982 336.392 549.288 336.392C549.587 336.392 549.797 336.288 549.919 336.081C550.044 335.871 550.107 335.634 550.107 335.369V334.909C550.107 334.645 550.047 334.409 549.928 334.202C549.808 333.991 549.595 333.886 549.288 333.886C548.99 333.886 548.776 333.991 548.645 334.202C548.517 334.409 548.453 334.645 548.453 334.909ZM547.908 342L553.908 333.273H554.879L548.879 342H547.908Z" fill="black"/>
<path d="M251.455 18V9.27273H254.404C255.089 9.27273 255.648 9.39631 256.083 9.64347C256.521 9.88778 256.844 10.2188 257.055 10.6364C257.265 11.054 257.37 11.5199 257.37 12.0341C257.37 12.5483 257.265 13.0156 257.055 13.4361C256.847 13.8565 256.526 14.1918 256.092 14.4418C255.657 14.6889 255.1 14.8125 254.421 14.8125H252.308V13.875H254.387C254.856 13.875 255.232 13.794 255.516 13.6321C255.8 13.4702 256.006 13.2514 256.134 12.9759C256.265 12.6974 256.33 12.3835 256.33 12.0341C256.33 11.6847 256.265 11.3722 256.134 11.0966C256.006 10.821 255.799 10.6051 255.512 10.4489C255.225 10.2898 254.844 10.2102 254.37 10.2102H252.512V18H251.455ZM259.072 18V9.27273H264.339V10.2102H260.129V13.1591H264.067V14.0966H260.129V17.0625H264.408V18H259.072ZM273.165 9.27273V18H272.142L267.386 11.1477H267.301V18H266.244V9.27273H267.267L272.04 16.142H272.125V9.27273H273.165ZM275.637 18H274.529L277.734 9.27273H278.825L282.029 18H280.922L278.314 10.6534H278.245L275.637 18ZM276.047 14.5909H280.512V15.5284H276.047V14.5909ZM283.389 18V9.27273H284.446V17.0625H288.502V18H283.389ZM288.501 10.2102V9.27273H295.047V10.2102H292.303V18H291.246V10.2102H288.501ZM295.928 9.27273H297.138L299.559 13.3466H299.661L302.081 9.27273H303.292L300.138 14.4034V18H299.081V14.4034L295.928 9.27273Z" fill="black"/>
<path d="M7.05682 167V158.273H10.0057C10.6903 158.273 11.25 158.396 11.6847 158.643C12.1222 158.888 12.446 159.219 12.6562 159.636C12.8665 160.054 12.9716 160.52 12.9716 161.034C12.9716 161.548 12.8665 162.016 12.6562 162.436C12.4489 162.857 12.1278 163.192 11.6932 163.442C11.2585 163.689 10.7017 163.812 10.0227 163.812H7.90909V162.875H9.98864C10.4574 162.875 10.8338 162.794 11.1179 162.632C11.402 162.47 11.608 162.251 11.7358 161.976C11.8665 161.697 11.9318 161.384 11.9318 161.034C11.9318 160.685 11.8665 160.372 11.7358 160.097C11.608 159.821 11.4006 159.605 11.1136 159.449C10.8267 159.29 10.446 159.21 9.97159 159.21H8.11364V167H7.05682ZM14.674 167V158.273H17.6229C18.3047 158.273 18.8643 158.389 19.3018 158.622C19.7393 158.852 20.0632 159.169 20.2734 159.572C20.4837 159.976 20.5888 160.435 20.5888 160.949C20.5888 161.463 20.4837 161.919 20.2734 162.317C20.0632 162.714 19.7408 163.027 19.3061 163.254C18.8714 163.479 18.3161 163.591 17.6399 163.591H15.2536V162.636H17.6058C18.0717 162.636 18.4467 162.568 18.7308 162.432C19.0178 162.295 19.2251 162.102 19.353 161.852C19.4837 161.599 19.549 161.298 19.549 160.949C19.549 160.599 19.4837 160.294 19.353 160.033C19.2223 159.771 19.0135 159.57 18.7266 159.428C18.4396 159.283 18.0604 159.21 17.5888 159.21H15.7308V167H14.674ZM18.782 163.08L20.9297 167H19.7024L17.5888 163.08H18.782ZM29.7134 162.636C29.7134 163.557 29.5472 164.352 29.2148 165.023C28.8825 165.693 28.4265 166.21 27.8469 166.574C27.2674 166.938 26.6055 167.119 25.8612 167.119C25.1168 167.119 24.4549 166.938 23.8754 166.574C23.2958 166.21 22.8398 165.693 22.5075 165.023C22.1751 164.352 22.0089 163.557 22.0089 162.636C22.0089 161.716 22.1751 160.92 22.5075 160.25C22.8398 159.58 23.2958 159.062 23.8754 158.699C24.4549 158.335 25.1168 158.153 25.8612 158.153C26.6055 158.153 27.2674 158.335 27.8469 158.699C28.4265 159.062 28.8825 159.58 29.2148 160.25C29.5472 160.92 29.7134 161.716 29.7134 162.636ZM28.6907 162.636C28.6907 161.881 28.5643 161.243 28.3114 160.723C28.0614 160.203 27.7219 159.81 27.293 159.543C26.8668 159.276 26.3896 159.142 25.8612 159.142C25.3327 159.142 24.854 159.276 24.4251 159.543C23.9989 159.81 23.6594 160.203 23.4066 160.723C23.1566 161.243 23.0316 161.881 23.0316 162.636C23.0316 163.392 23.1566 164.03 23.4066 164.55C23.6594 165.07 23.9989 165.463 24.4251 165.73C24.854 165.997 25.3327 166.131 25.8612 166.131C26.3896 166.131 26.8668 165.997 27.293 165.73C27.7219 165.463 28.0614 165.07 28.3114 164.55C28.5643 164.03 28.6907 163.392 28.6907 162.636ZM31.4904 167V158.273H36.7234V159.21H32.5472V162.159H36.3313V163.097H32.5472V167H31.4904ZM39.5902 158.273V167H38.5334V158.273H39.5902ZM41.2319 159.21V158.273H47.7773V159.21H45.033V167H43.9762V159.21H41.2319ZM52.7834 167V158.273H53.8402V166.062H57.897V167H52.7834ZM60.5902 158.273V167H59.5334V158.273H60.5902ZM69.6296 158.273V167H68.6069L63.8512 160.148H63.766V167H62.7092V158.273H63.7319L68.5046 165.142H68.5898V158.273H69.6296ZM71.7443 167V158.273H77.0114V159.21H72.8011V162.159H76.7386V163.097H72.8011V166.062H77.0795V167H71.7443Z" fill="black"/>
<path d="M253.072 342V333.273H256.021C256.703 333.273 257.263 333.389 257.7 333.622C258.138 333.852 258.462 334.169 258.672 334.572C258.882 334.976 258.987 335.435 258.987 335.949C258.987 336.463 258.882 336.919 258.672 337.317C258.462 337.714 258.139 338.027 257.705 338.254C257.27 338.479 256.714 338.591 256.038 338.591H253.652V337.636H256.004C256.47 337.636 256.845 337.568 257.129 337.432C257.416 337.295 257.624 337.102 257.751 336.852C257.882 336.599 257.947 336.298 257.947 335.949C257.947 335.599 257.882 335.294 257.751 335.033C257.621 334.771 257.412 334.57 257.125 334.428C256.838 334.283 256.459 334.21 255.987 334.21H254.129V342H253.072ZM257.18 338.08L259.328 342H258.101L255.987 338.08H257.18ZM260.748 342V333.273H266.015V334.21H261.805V337.159H265.743V338.097H261.805V341.062H266.083V342H260.748ZM269.505 342L267.119 333.273H268.193L270.017 340.381H270.102L271.96 333.273H273.153L275.011 340.381H275.096L276.92 333.273H277.994L275.608 342H274.517L272.591 335.045H272.522L270.596 342H269.505ZM278.989 342H277.881L281.086 333.273H282.176L285.381 342H284.273L281.665 334.653H281.597L278.989 342ZM279.398 338.591H283.864V339.528H279.398V338.591ZM286.74 342V333.273H289.689C290.371 333.273 290.931 333.389 291.368 333.622C291.806 333.852 292.13 334.169 292.34 334.572C292.55 334.976 292.655 335.435 292.655 335.949C292.655 336.463 292.55 336.919 292.34 337.317C292.13 337.714 291.807 338.027 291.373 338.254C290.938 338.479 290.382 338.591 289.706 338.591H287.32V337.636H289.672C290.138 337.636 290.513 337.568 290.797 337.432C291.084 337.295 291.292 337.102 291.419 336.852C291.55 336.599 291.615 336.298 291.615 335.949C291.615 335.599 291.55 335.294 291.419 335.033C291.289 334.771 291.08 334.57 290.793 334.428C290.506 334.283 290.127 334.21 289.655 334.21H287.797V342H286.74ZM290.848 338.08L292.996 342H291.769L289.655 338.08H290.848ZM297.109 342H294.416V333.273H297.229C298.075 333.273 298.8 333.447 299.402 333.797C300.004 334.143 300.466 334.642 300.787 335.293C301.108 335.94 301.268 336.716 301.268 337.619C301.268 338.528 301.107 339.311 300.783 339.967C300.459 340.621 299.987 341.124 299.368 341.476C298.749 341.825 297.996 342 297.109 342ZM295.473 341.062H297.041C297.763 341.062 298.361 340.923 298.835 340.645C299.31 340.366 299.663 339.97 299.896 339.456C300.129 338.942 300.246 338.33 300.246 337.619C300.246 336.915 300.131 336.308 299.901 335.8C299.67 335.288 299.327 334.896 298.869 334.624C298.412 334.348 297.842 334.21 297.161 334.21H295.473V341.062Z" fill="black"/>
<path d="M663.455 18V9.27273H666.404C667.089 9.27273 667.648 9.39631 668.083 9.64347C668.521 9.88778 668.844 10.2188 669.055 10.6364C669.265 11.054 669.37 11.5199 669.37 12.0341C669.37 12.5483 669.265 13.0156 669.055 13.4361C668.847 13.8565 668.526 14.1918 668.092 14.4418C667.657 14.6889 667.1 14.8125 666.421 14.8125H664.308V13.875H666.387C666.856 13.875 667.232 13.794 667.516 13.6321C667.8 13.4702 668.006 13.2514 668.134 12.9759C668.265 12.6974 668.33 12.3835 668.33 12.0341C668.33 11.6847 668.265 11.3722 668.134 11.0966C668.006 10.821 667.799 10.6051 667.512 10.4489C667.225 10.2898 666.844 10.2102 666.37 10.2102H664.512V18H663.455ZM671.072 18V9.27273H676.339V10.2102H672.129V13.1591H676.067V14.0966H672.129V17.0625H676.408V18H671.072ZM685.165 9.27273V18H684.142L679.386 11.1477H679.301V18H678.244V9.27273H679.267L684.04 16.142H684.125V9.27273H685.165ZM687.637 18H686.529L689.734 9.27273H690.825L694.029 18H692.922L690.314 10.6534H690.245L687.637 18ZM688.047 14.5909H692.512V15.5284H688.047V14.5909ZM695.389 18V9.27273H696.446V17.0625H700.502V18H695.389ZM700.501 10.2102V9.27273H707.047V10.2102H704.303V18H703.246V10.2102H700.501ZM707.928 9.27273H709.138L711.559 13.3466H711.661L714.081 9.27273H715.292L712.138 14.4034V18H711.081V14.4034L707.928 9.27273Z" fill="black"/>
<path d="M669.072 342V333.273H672.021C672.703 333.273 673.263 333.389 673.7 333.622C674.138 333.852 674.462 334.169 674.672 334.572C674.882 334.976 674.987 335.435 674.987 335.949C674.987 336.463 674.882 336.919 674.672 337.317C674.462 337.714 674.139 338.027 673.705 338.254C673.27 338.479 672.714 338.591 672.038 338.591H669.652V337.636H672.004C672.47 337.636 672.845 337.568 673.129 337.432C673.416 337.295 673.624 337.102 673.751 336.852C673.882 336.599 673.947 336.298 673.947 335.949C673.947 335.599 673.882 335.294 673.751 335.033C673.621 334.771 673.412 334.57 673.125 334.428C672.838 334.283 672.459 334.21 671.987 334.21H670.129V342H669.072ZM673.18 338.08L675.328 342H674.101L671.987 338.08H673.18ZM676.748 342V333.273H682.015V334.21H677.805V337.159H681.743V338.097H677.805V341.062H682.083V342H676.748ZM685.505 342L683.119 333.273H684.193L686.017 340.381H686.102L687.96 333.273H689.153L691.011 340.381H691.096L692.92 333.273H693.994L691.608 342H690.517L688.591 335.045H688.522L686.596 342H685.505ZM694.989 342H693.881L697.086 333.273H698.176L701.381 342H700.273L697.665 334.653H697.597L694.989 342ZM695.398 338.591H699.864V339.528H695.398V338.591ZM702.74 342V333.273H705.689C706.371 333.273 706.931 333.389 707.368 333.622C707.806 333.852 708.13 334.169 708.34 334.572C708.55 334.976 708.655 335.435 708.655 335.949C708.655 336.463 708.55 336.919 708.34 337.317C708.13 337.714 707.807 338.027 707.373 338.254C706.938 338.479 706.382 338.591 705.706 338.591H703.32V337.636H705.672C706.138 337.636 706.513 337.568 706.797 337.432C707.084 337.295 707.292 337.102 707.419 336.852C707.55 336.599 707.615 336.298 707.615 335.949C707.615 335.599 707.55 335.294 707.419 335.033C707.289 334.771 707.08 334.57 706.793 334.428C706.506 334.283 706.127 334.21 705.655 334.21H703.797V342H702.74ZM706.848 338.08L708.996 342H707.769L705.655 338.08H706.848ZM713.109 342H710.416V333.273H713.229C714.075 333.273 714.8 333.447 715.402 333.797C716.004 334.143 716.466 334.642 716.787 335.293C717.108 335.94 717.268 336.716 717.268 337.619C717.268 338.528 717.107 339.311 716.783 339.967C716.459 340.621 715.987 341.124 715.368 341.476C714.749 341.825 713.996 342 713.109 342ZM711.473 341.062H713.041C713.763 341.062 714.361 340.923 714.835 340.645C715.31 340.366 715.663 339.97 715.896 339.456C716.129 338.942 716.246 338.33 716.246 337.619C716.246 336.915 716.131 336.308 715.901 335.8C715.67 335.288 715.327 334.896 714.869 334.624C714.412 334.348 713.842 334.21 713.161 334.21H711.473V341.062Z" fill="black"/>
<path d="M570.75 342.119C570.108 342.119 569.561 341.945 569.109 341.595C568.658 341.243 568.313 340.733 568.074 340.065C567.835 339.395 567.716 338.585 567.716 337.636C567.716 336.693 567.835 335.888 568.074 335.22C568.315 334.55 568.662 334.038 569.114 333.686C569.568 333.331 570.114 333.153 570.75 333.153C571.386 333.153 571.93 333.331 572.382 333.686C572.837 334.038 573.183 334.55 573.422 335.22C573.663 335.888 573.784 336.693 573.784 337.636C573.784 338.585 573.665 339.395 573.426 340.065C573.188 340.733 572.842 341.243 572.391 341.595C571.939 341.945 571.392 342.119 570.75 342.119ZM570.75 341.182C571.386 341.182 571.881 340.875 572.233 340.261C572.585 339.648 572.761 338.773 572.761 337.636C572.761 336.881 572.68 336.237 572.518 335.706C572.359 335.175 572.129 334.77 571.828 334.491C571.53 334.213 571.17 334.074 570.75 334.074C570.119 334.074 569.626 334.385 569.271 335.007C568.916 335.626 568.739 336.503 568.739 337.636C568.739 338.392 568.818 339.034 568.977 339.562C569.136 340.091 569.365 340.493 569.663 340.768C569.964 341.044 570.327 341.182 570.75 341.182ZM581.267 342.136C580.722 342.136 580.24 341.999 579.822 341.723C579.405 341.445 579.078 341.053 578.842 340.547C578.607 340.038 578.489 339.438 578.489 338.744C578.489 338.057 578.607 337.46 578.842 336.955C579.078 336.449 579.406 336.058 579.827 335.783C580.247 335.507 580.733 335.369 581.284 335.369C581.71 335.369 582.047 335.44 582.294 335.582C582.544 335.722 582.734 335.881 582.865 336.06C582.999 336.236 583.102 336.381 583.176 336.494H583.261V333.273H584.267V342H583.295V340.994H583.176C583.102 341.114 582.997 341.264 582.861 341.446C582.724 341.625 582.53 341.786 582.277 341.928C582.024 342.067 581.688 342.136 581.267 342.136ZM581.403 341.233C581.807 341.233 582.148 341.128 582.426 340.918C582.705 340.705 582.916 340.411 583.061 340.036C583.206 339.658 583.278 339.222 583.278 338.727C583.278 338.239 583.207 337.811 583.065 337.445C582.923 337.075 582.713 336.788 582.435 336.584C582.156 336.376 581.813 336.273 581.403 336.273C580.977 336.273 580.622 336.382 580.338 336.601C580.057 336.817 579.845 337.111 579.703 337.483C579.564 337.852 579.494 338.267 579.494 338.727C579.494 339.193 579.565 339.616 579.707 339.997C579.852 340.375 580.065 340.676 580.347 340.901C580.631 341.122 580.983 341.233 581.403 341.233ZM588.175 342.153C587.76 342.153 587.384 342.075 587.045 341.919C586.707 341.76 586.439 341.531 586.24 341.233C586.041 340.932 585.942 340.568 585.942 340.142C585.942 339.767 586.016 339.463 586.163 339.23C586.311 338.994 586.509 338.81 586.756 338.676C587.003 338.543 587.276 338.443 587.574 338.378C587.875 338.31 588.178 338.256 588.482 338.216C588.879 338.165 589.202 338.126 589.449 338.101C589.699 338.072 589.881 338.026 589.994 337.96C590.111 337.895 590.169 337.781 590.169 337.619V337.585C590.169 337.165 590.054 336.838 589.824 336.605C589.597 336.372 589.251 336.256 588.788 336.256C588.308 336.256 587.932 336.361 587.659 336.571C587.386 336.781 587.195 337.006 587.084 337.244L586.129 336.903C586.3 336.506 586.527 336.196 586.811 335.974C587.098 335.75 587.411 335.594 587.749 335.506C588.089 335.415 588.425 335.369 588.754 335.369C588.964 335.369 589.206 335.395 589.479 335.446C589.754 335.494 590.02 335.595 590.276 335.749C590.534 335.902 590.749 336.134 590.919 336.443C591.089 336.753 591.175 337.168 591.175 337.688V342H590.169V341.114H590.118C590.05 341.256 589.936 341.408 589.777 341.57C589.618 341.732 589.406 341.869 589.142 341.983C588.878 342.097 588.555 342.153 588.175 342.153ZM588.328 341.25C588.726 341.25 589.061 341.172 589.334 341.016C589.609 340.859 589.817 340.658 589.956 340.411C590.098 340.163 590.169 339.903 590.169 339.631V338.71C590.126 338.761 590.033 338.808 589.888 338.851C589.746 338.891 589.581 338.926 589.393 338.957C589.209 338.986 589.028 339.011 588.852 339.034C588.679 339.054 588.538 339.071 588.43 339.085C588.169 339.119 587.925 339.175 587.697 339.251C587.473 339.325 587.291 339.437 587.152 339.588C587.016 339.736 586.947 339.937 586.947 340.193C586.947 340.543 587.077 340.807 587.335 340.986C587.597 341.162 587.928 341.25 588.328 341.25ZM593.424 344.455C593.253 344.455 593.101 344.44 592.968 344.412C592.834 344.386 592.742 344.361 592.691 344.335L592.946 343.449C593.191 343.511 593.407 343.534 593.594 343.517C593.782 343.5 593.948 343.416 594.093 343.266C594.24 343.118 594.375 342.878 594.498 342.545L594.685 342.034L592.265 335.455H593.355L595.162 340.67H595.23L597.037 335.455H598.128L595.35 342.955C595.225 343.293 595.07 343.572 594.885 343.794C594.701 344.018 594.486 344.185 594.242 344.293C594 344.401 593.728 344.455 593.424 344.455ZM604.092 336.92L603.189 337.176C603.132 337.026 603.048 336.879 602.937 336.737C602.829 336.592 602.681 336.473 602.494 336.379C602.306 336.286 602.066 336.239 601.774 336.239C601.373 336.239 601.039 336.331 600.772 336.516C600.508 336.697 600.376 336.929 600.376 337.21C600.376 337.46 600.467 337.658 600.649 337.803C600.831 337.947 601.115 338.068 601.501 338.165L602.473 338.403C603.058 338.545 603.494 338.763 603.781 339.055C604.068 339.345 604.211 339.719 604.211 340.176C604.211 340.551 604.103 340.886 603.887 341.182C603.674 341.477 603.376 341.71 602.993 341.881C602.609 342.051 602.163 342.136 601.654 342.136C600.987 342.136 600.434 341.991 599.997 341.702C599.559 341.412 599.282 340.989 599.166 340.432L600.12 340.193C600.211 340.545 600.383 340.81 600.636 340.986C600.892 341.162 601.225 341.25 601.637 341.25C602.106 341.25 602.478 341.151 602.754 340.952C603.032 340.75 603.172 340.509 603.172 340.227C603.172 340 603.092 339.81 602.933 339.656C602.774 339.5 602.529 339.384 602.2 339.307L601.109 339.051C600.51 338.909 600.069 338.689 599.788 338.391C599.51 338.089 599.37 337.713 599.37 337.261C599.37 336.892 599.474 336.565 599.681 336.281C599.892 335.997 600.177 335.774 600.538 335.612C600.902 335.45 601.314 335.369 601.774 335.369C602.422 335.369 602.93 335.511 603.299 335.795C603.672 336.08 603.936 336.455 604.092 336.92Z" fill="black"/>
<path d="M771.972 333.273V342H770.915V334.381H770.864L768.733 335.795V334.722L770.915 333.273H771.972ZM777.277 342.119C776.692 342.119 776.175 342.016 775.726 341.808C775.28 341.598 774.932 341.31 774.682 340.943C774.432 340.574 774.308 340.153 774.311 339.682C774.308 339.312 774.381 338.972 774.528 338.659C774.676 338.344 774.878 338.081 775.134 337.871C775.392 337.658 775.68 337.523 775.999 337.466V337.415C775.581 337.307 775.249 337.072 775.001 336.712C774.754 336.348 774.632 335.935 774.635 335.472C774.632 335.028 774.744 334.632 774.972 334.283C775.199 333.933 775.511 333.658 775.909 333.456C776.31 333.254 776.766 333.153 777.277 333.153C777.783 333.153 778.234 333.254 778.632 333.456C779.03 333.658 779.342 333.933 779.57 334.283C779.8 334.632 779.916 335.028 779.919 335.472C779.916 335.935 779.79 336.348 779.54 336.712C779.293 337.072 778.964 337.307 778.555 337.415V337.466C778.871 337.523 779.155 337.658 779.408 337.871C779.661 338.081 779.862 338.344 780.013 338.659C780.163 338.972 780.24 339.312 780.243 339.682C780.24 340.153 780.112 340.574 779.859 340.943C779.609 341.31 779.261 341.598 778.815 341.808C778.372 342.016 777.859 342.119 777.277 342.119ZM777.277 341.182C777.672 341.182 778.013 341.118 778.3 340.99C778.587 340.862 778.808 340.682 778.964 340.449C779.121 340.216 779.2 339.943 779.203 339.631C779.2 339.301 779.115 339.01 778.947 338.757C778.78 338.504 778.551 338.305 778.261 338.161C777.974 338.016 777.646 337.943 777.277 337.943C776.905 337.943 776.572 338.016 776.28 338.161C775.99 338.305 775.761 338.504 775.594 338.757C775.429 339.01 775.348 339.301 775.351 339.631C775.348 339.943 775.423 340.216 775.577 340.449C775.733 340.682 775.956 340.862 776.246 340.99C776.536 341.118 776.879 341.182 777.277 341.182ZM777.277 337.04C777.589 337.04 777.866 336.977 778.108 336.852C778.352 336.727 778.544 336.553 778.683 336.328C778.822 336.104 778.893 335.841 778.896 335.54C778.893 335.244 778.824 334.987 778.688 334.768C778.551 334.547 778.362 334.376 778.121 334.257C777.879 334.135 777.598 334.074 777.277 334.074C776.95 334.074 776.665 334.135 776.42 334.257C776.176 334.376 775.987 334.547 775.854 334.768C775.72 334.987 775.655 335.244 775.658 335.54C775.655 335.841 775.722 336.104 775.858 336.328C775.997 336.553 776.189 336.727 776.433 336.852C776.678 336.977 776.959 337.04 777.277 337.04ZM784.723 342.119C784.081 342.119 783.534 341.945 783.082 341.595C782.63 341.243 782.285 340.733 782.047 340.065C781.808 339.395 781.689 338.585 781.689 337.636C781.689 336.693 781.808 335.888 782.047 335.22C782.288 334.55 782.635 334.038 783.086 333.686C783.541 333.331 784.086 333.153 784.723 333.153C785.359 333.153 785.903 333.331 786.355 333.686C786.809 334.038 787.156 334.55 787.395 335.22C787.636 335.888 787.757 336.693 787.757 337.636C787.757 338.585 787.637 339.395 787.399 340.065C787.16 340.733 786.815 341.243 786.363 341.595C785.912 341.945 785.365 342.119 784.723 342.119ZM784.723 341.182C785.359 341.182 785.853 340.875 786.206 340.261C786.558 339.648 786.734 338.773 786.734 337.636C786.734 336.881 786.653 336.237 786.491 335.706C786.332 335.175 786.102 334.77 785.801 334.491C785.502 334.213 785.143 334.074 784.723 334.074C784.092 334.074 783.599 334.385 783.244 335.007C782.889 335.626 782.711 336.503 782.711 337.636C782.711 338.392 782.791 339.034 782.95 339.562C783.109 340.091 783.338 340.493 783.636 340.768C783.937 341.044 784.299 341.182 784.723 341.182ZM795.24 342.136C794.694 342.136 794.213 341.999 793.795 341.723C793.377 341.445 793.051 341.053 792.815 340.547C792.579 340.038 792.461 339.438 792.461 338.744C792.461 338.057 792.579 337.46 792.815 336.955C793.051 336.449 793.379 336.058 793.799 335.783C794.22 335.507 794.706 335.369 795.257 335.369C795.683 335.369 796.02 335.44 796.267 335.582C796.517 335.722 796.707 335.881 796.838 336.06C796.971 336.236 797.075 336.381 797.149 336.494H797.234V333.273H798.24V342H797.268V340.994H797.149C797.075 341.114 796.97 341.264 796.833 341.446C796.697 341.625 796.502 341.786 796.25 341.928C795.997 342.067 795.66 342.136 795.24 342.136ZM795.376 341.233C795.779 341.233 796.12 341.128 796.399 340.918C796.677 340.705 796.889 340.411 797.034 340.036C797.179 339.658 797.251 339.222 797.251 338.727C797.251 338.239 797.18 337.811 797.038 337.445C796.896 337.075 796.686 336.788 796.407 336.584C796.129 336.376 795.785 336.273 795.376 336.273C794.95 336.273 794.595 336.382 794.311 336.601C794.029 336.817 793.818 337.111 793.676 337.483C793.537 337.852 793.467 338.267 793.467 338.727C793.467 339.193 793.538 339.616 793.68 339.997C793.825 340.375 794.038 340.676 794.319 340.901C794.603 341.122 794.956 341.233 795.376 341.233ZM802.147 342.153C801.733 342.153 801.356 342.075 801.018 341.919C800.68 341.76 800.412 341.531 800.213 341.233C800.014 340.932 799.914 340.568 799.914 340.142C799.914 339.767 799.988 339.463 800.136 339.23C800.284 338.994 800.481 338.81 800.728 338.676C800.975 338.543 801.248 338.443 801.547 338.378C801.848 338.31 802.15 338.256 802.454 338.216C802.852 338.165 803.174 338.126 803.422 338.101C803.672 338.072 803.853 338.026 803.967 337.96C804.083 337.895 804.142 337.781 804.142 337.619V337.585C804.142 337.165 804.027 336.838 803.797 336.605C803.569 336.372 803.224 336.256 802.761 336.256C802.281 336.256 801.904 336.361 801.632 336.571C801.359 336.781 801.167 337.006 801.056 337.244L800.102 336.903C800.272 336.506 800.5 336.196 800.784 335.974C801.071 335.75 801.383 335.594 801.721 335.506C802.062 335.415 802.397 335.369 802.727 335.369C802.937 335.369 803.179 335.395 803.451 335.446C803.727 335.494 803.993 335.595 804.248 335.749C804.507 335.902 804.721 336.134 804.892 336.443C805.062 336.753 805.147 337.168 805.147 337.688V342H804.142V341.114H804.091C804.022 341.256 803.909 341.408 803.75 341.57C803.591 341.732 803.379 341.869 803.115 341.983C802.85 342.097 802.528 342.153 802.147 342.153ZM802.301 341.25C802.699 341.25 803.034 341.172 803.306 341.016C803.582 340.859 803.789 340.658 803.929 340.411C804.071 340.163 804.142 339.903 804.142 339.631V338.71C804.099 338.761 804.005 338.808 803.86 338.851C803.718 338.891 803.554 338.926 803.366 338.957C803.181 338.986 803.001 339.011 802.825 339.034C802.652 339.054 802.511 339.071 802.403 339.085C802.142 339.119 801.897 339.175 801.67 339.251C801.446 339.325 801.264 339.437 801.125 339.588C800.988 339.736 800.92 339.937 800.92 340.193C800.92 340.543 801.049 340.807 801.308 340.986C801.569 341.162 801.9 341.25 802.301 341.25ZM807.396 344.455C807.226 344.455 807.074 344.44 806.94 344.412C806.807 344.386 806.714 344.361 806.663 344.335L806.919 343.449C807.163 343.511 807.379 343.534 807.567 343.517C807.754 343.5 807.92 343.416 808.065 343.266C808.213 343.118 808.348 342.878 808.47 342.545L808.658 342.034L806.237 335.455H807.328L809.135 340.67H809.203L811.01 335.455H812.101L809.322 342.955C809.197 343.293 809.043 343.572 808.858 343.794C808.673 344.018 808.459 344.185 808.214 344.293C807.973 344.401 807.7 344.455 807.396 344.455ZM818.065 336.92L817.161 337.176C817.104 337.026 817.021 336.879 816.91 336.737C816.802 336.592 816.654 336.473 816.467 336.379C816.279 336.286 816.039 336.239 815.746 336.239C815.346 336.239 815.012 336.331 814.745 336.516C814.481 336.697 814.349 336.929 814.349 337.21C814.349 337.46 814.44 337.658 814.621 337.803C814.803 337.947 815.087 338.068 815.474 338.165L816.445 338.403C817.031 338.545 817.467 338.763 817.754 339.055C818.04 339.345 818.184 339.719 818.184 340.176C818.184 340.551 818.076 340.886 817.86 341.182C817.647 341.477 817.349 341.71 816.965 341.881C816.582 342.051 816.136 342.136 815.627 342.136C814.96 342.136 814.407 341.991 813.969 341.702C813.532 341.412 813.255 340.989 813.138 340.432L814.093 340.193C814.184 340.545 814.356 340.81 814.609 340.986C814.864 341.162 815.198 341.25 815.61 341.25C816.079 341.25 816.451 341.151 816.727 340.952C817.005 340.75 817.144 340.509 817.144 340.227C817.144 340 817.065 339.81 816.906 339.656C816.746 339.5 816.502 339.384 816.173 339.307L815.082 339.051C814.482 338.909 814.042 338.689 813.761 338.391C813.482 338.089 813.343 337.713 813.343 337.261C813.343 336.892 813.447 336.565 813.654 336.281C813.864 335.997 814.15 335.774 814.511 335.612C814.874 335.45 815.286 335.369 815.746 335.369C816.394 335.369 816.903 335.511 817.272 335.795C817.644 336.08 817.908 336.455 818.065 336.92Z" fill="black"/>
<path d="M421.176 167L425.08 159.278V159.21H420.58V158.273H426.17V159.261L422.284 167H421.176ZM430.827 158.273V167H429.77V159.381H429.719L427.588 160.795V159.722L429.77 158.273H430.827ZM437.786 165.364V164.903C437.786 164.585 437.851 164.294 437.982 164.03C438.115 163.763 438.309 163.55 438.561 163.391C438.817 163.229 439.127 163.148 439.49 163.148C439.86 163.148 440.169 163.229 440.419 163.391C440.669 163.55 440.858 163.763 440.986 164.03C441.114 164.294 441.178 164.585 441.178 164.903V165.364C441.178 165.682 441.113 165.974 440.982 166.241C440.854 166.506 440.664 166.719 440.411 166.881C440.161 167.04 439.854 167.119 439.49 167.119C439.121 167.119 438.81 167.04 438.557 166.881C438.304 166.719 438.113 166.506 437.982 166.241C437.851 165.974 437.786 165.682 437.786 165.364ZM438.655 164.903V165.364C438.655 165.628 438.718 165.865 438.843 166.075C438.968 166.283 439.184 166.386 439.49 166.386C439.789 166.386 439.999 166.283 440.121 166.075C440.246 165.865 440.309 165.628 440.309 165.364V164.903C440.309 164.639 440.249 164.403 440.13 164.196C440.01 163.986 439.797 163.881 439.49 163.881C439.192 163.881 438.978 163.986 438.847 164.196C438.719 164.403 438.655 164.639 438.655 164.903ZM433.439 160.369V159.909C433.439 159.591 433.505 159.3 433.635 159.036C433.769 158.768 433.962 158.555 434.215 158.396C434.471 158.234 434.78 158.153 435.144 158.153C435.513 158.153 435.823 158.234 436.073 158.396C436.323 158.555 436.512 158.768 436.64 159.036C436.767 159.3 436.831 159.591 436.831 159.909V160.369C436.831 160.687 436.766 160.98 436.635 161.247C436.507 161.511 436.317 161.724 436.064 161.886C435.814 162.045 435.507 162.125 435.144 162.125C434.775 162.125 434.463 162.045 434.211 161.886C433.958 161.724 433.766 161.511 433.635 161.247C433.505 160.98 433.439 160.687 433.439 160.369ZM434.309 159.909V160.369C434.309 160.634 434.371 160.871 434.496 161.081C434.621 161.288 434.837 161.392 435.144 161.392C435.442 161.392 435.652 161.288 435.775 161.081C435.9 160.871 435.962 160.634 435.962 160.369V159.909C435.962 159.645 435.902 159.409 435.783 159.202C435.664 158.991 435.451 158.886 435.144 158.886C434.846 158.886 434.631 158.991 434.5 159.202C434.373 159.409 434.309 159.645 434.309 159.909ZM433.763 167L439.763 158.273H440.735L434.735 167H433.763Z" fill="black"/>
<path d="M753.972 158.273V167H752.915V159.381H752.864L750.733 160.795V159.722L752.915 158.273H753.972ZM756.277 165.21V164.341L760.112 158.273H760.743V159.619H760.317L757.419 164.205V164.273H762.584V165.21H756.277ZM760.385 167V164.946V164.541V158.273H761.391V167H760.385ZM767.13 167.119C766.567 167.119 766.066 167.023 765.625 166.83C765.188 166.636 764.84 166.368 764.581 166.024C764.326 165.678 764.186 165.276 764.164 164.818H765.238C765.26 165.099 765.357 165.342 765.527 165.547C765.698 165.749 765.921 165.905 766.196 166.016C766.472 166.126 766.777 166.182 767.113 166.182C767.488 166.182 767.82 166.116 768.11 165.986C768.4 165.855 768.627 165.673 768.792 165.44C768.956 165.207 769.039 164.938 769.039 164.631C769.039 164.31 768.959 164.027 768.8 163.783C768.641 163.536 768.408 163.342 768.101 163.203C767.794 163.064 767.419 162.994 766.976 162.994H766.277V162.057H766.976C767.323 162.057 767.627 161.994 767.888 161.869C768.152 161.744 768.358 161.568 768.506 161.341C768.657 161.114 768.732 160.847 768.732 160.54C768.732 160.244 768.667 159.987 768.536 159.768C768.405 159.55 768.221 159.379 767.982 159.257C767.746 159.135 767.468 159.074 767.147 159.074C766.846 159.074 766.561 159.129 766.294 159.24C766.03 159.348 765.814 159.506 765.647 159.713C765.479 159.918 765.388 160.165 765.374 160.455H764.351C764.368 159.997 764.506 159.597 764.765 159.253C765.023 158.906 765.361 158.636 765.779 158.443C766.199 158.25 766.661 158.153 767.164 158.153C767.703 158.153 768.167 158.263 768.553 158.482C768.939 158.697 769.236 158.983 769.444 159.338C769.651 159.693 769.755 160.077 769.755 160.489C769.755 160.98 769.625 161.399 769.367 161.746C769.111 162.092 768.763 162.332 768.323 162.466V162.534C768.874 162.625 769.304 162.859 769.614 163.237C769.924 163.612 770.078 164.077 770.078 164.631C770.078 165.105 769.949 165.531 769.691 165.909C769.435 166.284 769.086 166.58 768.642 166.795C768.199 167.011 767.695 167.119 767.13 167.119ZM777.685 167.136C777.14 167.136 776.658 166.999 776.24 166.723C775.823 166.445 775.496 166.053 775.26 165.547C775.025 165.038 774.907 164.438 774.907 163.744C774.907 163.057 775.025 162.46 775.26 161.955C775.496 161.449 775.824 161.058 776.245 160.783C776.665 160.507 777.151 160.369 777.702 160.369C778.128 160.369 778.465 160.44 778.712 160.582C778.962 160.722 779.152 160.881 779.283 161.06C779.417 161.236 779.52 161.381 779.594 161.494H779.679V158.273H780.685V167H779.713V165.994H779.594C779.52 166.114 779.415 166.264 779.279 166.446C779.142 166.625 778.948 166.786 778.695 166.928C778.442 167.067 778.105 167.136 777.685 167.136ZM777.821 166.233C778.225 166.233 778.566 166.128 778.844 165.918C779.123 165.705 779.334 165.411 779.479 165.036C779.624 164.658 779.696 164.222 779.696 163.727C779.696 163.239 779.625 162.811 779.483 162.445C779.341 162.075 779.131 161.788 778.853 161.584C778.574 161.376 778.23 161.273 777.821 161.273C777.395 161.273 777.04 161.382 776.756 161.601C776.475 161.817 776.263 162.111 776.121 162.483C775.982 162.852 775.912 163.267 775.912 163.727C775.912 164.193 775.983 164.616 776.125 164.997C776.27 165.375 776.483 165.676 776.765 165.901C777.049 166.122 777.401 166.233 777.821 166.233ZM784.593 167.153C784.178 167.153 783.801 167.075 783.463 166.919C783.125 166.76 782.857 166.531 782.658 166.233C782.459 165.932 782.36 165.568 782.36 165.142C782.36 164.767 782.434 164.463 782.581 164.23C782.729 163.994 782.926 163.81 783.174 163.676C783.421 163.543 783.694 163.443 783.992 163.378C784.293 163.31 784.596 163.256 784.9 163.216C785.297 163.165 785.62 163.126 785.867 163.101C786.117 163.072 786.299 163.026 786.412 162.96C786.529 162.895 786.587 162.781 786.587 162.619V162.585C786.587 162.165 786.472 161.838 786.242 161.605C786.015 161.372 785.669 161.256 785.206 161.256C784.726 161.256 784.35 161.361 784.077 161.571C783.804 161.781 783.613 162.006 783.502 162.244L782.547 161.903C782.718 161.506 782.945 161.196 783.229 160.974C783.516 160.75 783.828 160.594 784.167 160.506C784.507 160.415 784.843 160.369 785.172 160.369C785.382 160.369 785.624 160.395 785.897 160.446C786.172 160.494 786.438 160.595 786.694 160.749C786.952 160.902 787.167 161.134 787.337 161.443C787.507 161.753 787.593 162.168 787.593 162.688V167H786.587V166.114H786.536C786.468 166.256 786.354 166.408 786.195 166.57C786.036 166.732 785.824 166.869 785.56 166.983C785.296 167.097 784.973 167.153 784.593 167.153ZM784.746 166.25C785.144 166.25 785.479 166.172 785.752 166.016C786.027 165.859 786.235 165.658 786.374 165.411C786.516 165.163 786.587 164.903 786.587 164.631V163.71C786.544 163.761 786.451 163.808 786.306 163.851C786.164 163.891 785.999 163.926 785.811 163.957C785.627 163.986 785.446 164.011 785.27 164.034C785.097 164.054 784.956 164.071 784.848 164.085C784.587 164.119 784.343 164.175 784.115 164.251C783.891 164.325 783.709 164.437 783.57 164.588C783.434 164.736 783.365 164.937 783.365 165.193C783.365 165.543 783.495 165.807 783.753 165.986C784.015 166.162 784.346 166.25 784.746 166.25ZM789.842 169.455C789.671 169.455 789.519 169.44 789.386 169.412C789.252 169.386 789.16 169.361 789.109 169.335L789.364 168.449C789.609 168.511 789.825 168.534 790.012 168.517C790.2 168.5 790.366 168.416 790.511 168.266C790.658 168.118 790.793 167.878 790.915 167.545L791.103 167.034L788.683 160.455H789.773L791.58 165.67H791.648L793.455 160.455H794.546L791.768 167.955C791.643 168.293 791.488 168.572 791.303 168.794C791.119 169.018 790.904 169.185 790.66 169.293C790.418 169.401 790.146 169.455 789.842 169.455ZM800.51 161.92L799.607 162.176C799.55 162.026 799.466 161.879 799.355 161.737C799.247 161.592 799.099 161.473 798.912 161.379C798.724 161.286 798.484 161.239 798.192 161.239C797.791 161.239 797.457 161.331 797.19 161.516C796.926 161.697 796.794 161.929 796.794 162.21C796.794 162.46 796.885 162.658 797.067 162.803C797.249 162.947 797.533 163.068 797.919 163.165L798.891 163.403C799.476 163.545 799.912 163.763 800.199 164.055C800.486 164.345 800.629 164.719 800.629 165.176C800.629 165.551 800.521 165.886 800.305 166.182C800.092 166.477 799.794 166.71 799.411 166.881C799.027 167.051 798.581 167.136 798.072 167.136C797.405 167.136 796.852 166.991 796.415 166.702C795.977 166.412 795.7 165.989 795.584 165.432L796.538 165.193C796.629 165.545 796.801 165.81 797.054 165.986C797.31 166.162 797.643 166.25 798.055 166.25C798.524 166.25 798.896 166.151 799.172 165.952C799.45 165.75 799.589 165.509 799.589 165.227C799.589 165 799.51 164.81 799.351 164.656C799.192 164.5 798.947 164.384 798.618 164.307L797.527 164.051C796.928 163.909 796.487 163.689 796.206 163.391C795.928 163.089 795.788 162.713 795.788 162.261C795.788 161.892 795.892 161.565 796.099 161.281C796.31 160.997 796.595 160.774 796.956 160.612C797.32 160.45 797.732 160.369 798.192 160.369C798.839 160.369 799.348 160.511 799.717 160.795C800.089 161.08 800.354 161.455 800.51 161.92Z" fill="black"/>
<path d="M0 175L825 175" stroke="black" stroke-width="2" stroke-linecap="square"/>
</g>
<defs>
<clipPath id="clip0_10541_15442">
<rect width="825" height="350" fill="white"/>
</clipPath>
</defs>
</svg>
